<svg width="17" height="16" viewBox="0 0 17 16" fill="none" xmlns="http://www.w3.org/2000/svg">
<path d="M5.71521 8.56152C5.71521 7.76587 6.03129 7.00281 6.59389 6.4402C7.1565 5.87759 7.91957 5.56152 8.71521 5.56152C9.51086 5.56152 10.2739 5.87759 10.8365 6.4402C11.3991 7.00281 11.7152 7.76587 11.7152 8.56152C11.7152 9.35717 11.3991 10.1202 10.8365 10.6828C10.2739 11.2455 9.51086 11.5615 8.71521 11.5615C7.91957 11.5615 7.1565 11.2455 6.59389 10.6828C6.03129 10.1202 5.71521 9.35717 5.71521 8.56152ZM5.49921 1.38752C5.62411 1.13921 5.81554 0.930478 6.05216 0.784625C6.28877 0.638772 6.56126 0.561532 6.83921 0.561523H10.6032C10.8819 0.561533 11.1551 0.639196 11.3922 0.785802C11.6292 0.932407 11.8207 1.14216 11.9452 1.39152L12.5302 2.56152H14.2202C14.8833 2.56152 15.5191 2.82492 15.988 3.29376C16.4568 3.7626 16.7202 4.39848 16.7202 5.06152V13.0615C16.7202 13.7246 16.4568 14.3604 15.988 14.8293C15.5191 15.2981 14.8833 15.5615 14.2202 15.5615H3.22021C2.55717 15.5615 1.92129 15.2981 1.45245 14.8293C0.983607 14.3604 0.720215 13.7246 0.720215 13.0615V5.06152C0.720215 4.39848 0.983607 3.7626 1.45245 3.29376C1.92129 2.82492 2.55717 2.56152 3.22021 2.56152H4.91021L5.49921 1.38752ZM8.71521 4.56152C7.65435 4.56152 6.63693 4.98295 5.88679 5.7331C5.13664 6.48324 4.71521 7.50066 4.71521 8.56152C4.71521 9.62239 5.13664 10.6398 5.88679 11.39C6.63693 12.1401 7.65435 12.5615 8.71521 12.5615C9.77608 12.5615 10.7935 12.1401 11.5436 11.39C12.2938 10.6398 12.7152 9.62239 12.7152 8.56152C12.7152 7.50066 12.2938 6.48324 11.5436 5.7331C10.7935 4.98295 9.77608 4.56152 8.71521 4.56152Z" fill="#FDFDFD"/>
</svg>
