<svg width="164" height="157" viewBox="0 0 164 157" fill="none" xmlns="http://www.w3.org/2000/svg">
<path d="M92.4855 155.897C86.1293 152.889 83.5964 145.736 82.7005 139.074C82.5493 137.968 82.2322 136.818 82.5935 135.756C82.9549 134.694 84.0683 133.828 85.1375 134.126C86.026 134.373 86.5459 135.266 87.1395 135.97C87.929 136.92 88.9724 137.626 90.148 138.005C90.9148 138.252 91.8255 138.329 92.456 137.828C93.3187 137.139 93.1933 135.804 93.0164 134.705C92.6551 132.668 92.3011 130.63 91.9545 128.592C91.7047 127.505 91.6313 126.385 91.737 125.274C91.8992 124.168 92.4928 123.062 93.4883 122.605C94.4838 122.148 95.8811 122.52 96.283 123.56C96.4015 124.007 96.4902 124.461 96.5484 124.92C96.6553 125.374 96.954 125.842 97.4075 125.897C97.861 125.953 98.2554 125.565 98.532 125.186C99.4758 123.884 100.007 122.325 100.486 120.78C100.965 119.235 101.415 117.661 102.241 116.274C103.067 114.888 104.328 113.694 105.887 113.325C107.447 112.956 109.29 113.657 109.943 115.135C110.595 116.614 109.965 118.343 109.206 119.766C108.052 121.873 106.6 123.803 104.896 125.495C104.556 125.766 104.31 126.138 104.195 126.557C104.081 127.331 104.899 127.943 105.67 128.061C106.533 128.194 107.41 127.958 108.284 127.914C109.158 127.87 110.149 128.091 110.614 128.847C111.252 129.894 110.511 131.232 109.718 132.165C108.126 134.023 106.227 135.595 104.103 136.81C103.343 137.242 102.536 137.647 101.979 138.326C101.422 139.004 101.198 140.059 101.721 140.766C102.245 141.474 103.303 141.552 104.121 141.249C104.94 140.947 105.622 140.361 106.378 139.922C107.793 139.096 109.762 138.868 110.953 140.011C111.325 140.41 111.598 140.891 111.752 141.414C111.906 141.937 111.937 142.489 111.842 143.027C111.646 144.097 111.235 145.116 110.636 146.024C108.727 149.306 105.981 152.023 102.68 153.899C99.3799 155.706 96.1871 156.587 92.4892 155.901" fill="#F5F5F5"/>
<path d="M93.492 151.451C93.981 147.657 94.6875 143.894 95.6083 140.18L96.3162 137.257C96.5484 136.294 96.7807 135.343 97.0535 134.429C97.6048 132.674 98.2522 130.951 98.9928 129.267C99.6897 127.652 100.409 126.141 101.091 124.736C101.773 123.331 102.44 122.034 103.096 120.88C104.121 119.049 105.29 117.303 106.592 115.659C107.052 115.076 107.425 114.638 107.679 114.343C107.801 114.203 107.9 114.092 107.97 114.007C108.04 113.922 108.074 113.897 108.077 113.9C108.051 113.943 108.021 113.983 107.989 114.022L107.709 114.368C107.465 114.671 107.104 115.106 106.654 115.707C105.381 117.367 104.233 119.121 103.222 120.953C102.576 122.111 101.92 123.409 101.242 124.813C100.563 126.218 99.8556 127.73 99.1661 129.345C98.4319 131.028 97.7919 132.752 97.2489 134.506C96.965 135.417 96.7365 136.35 96.5116 137.323L95.8037 140.25C94.885 143.956 94.1748 147.71 93.6763 151.495" fill="#E0E0E0"/>
<path d="M97.1162 134.414C97.0363 134.271 96.9732 134.118 96.9282 133.96C96.8176 133.669 96.6738 133.223 96.5042 132.703C96.165 131.634 95.7447 130.141 95.2875 128.497C94.8304 126.852 94.3916 125.366 94.034 124.308C93.857 123.777 93.7096 123.346 93.6063 123.055C93.5444 122.903 93.4962 122.747 93.4625 122.586C93.5515 122.724 93.6245 122.871 93.68 123.025C93.8091 123.309 93.975 123.733 94.1704 124.257C94.5649 125.311 95.0258 126.789 95.4866 128.441C95.9475 130.093 96.3346 131.538 96.6443 132.659C96.7881 133.168 96.9061 133.595 97.013 133.938C97.0613 134.094 97.0958 134.253 97.1162 134.414Z" fill="#E0E0E0"/>
<path d="M110.813 129.378C110.635 129.452 110.45 129.508 110.26 129.544C109.891 129.636 109.386 129.769 108.752 129.953C107.48 130.322 105.744 130.867 103.852 131.568C101.961 132.268 100.276 132.98 99.0592 133.526C98.4546 133.795 97.9716 134.027 97.6361 134.186C97.4675 134.277 97.2911 134.354 97.1089 134.414C97.2614 134.297 97.4257 134.195 97.5992 134.112C97.9237 133.931 98.3993 133.681 98.9966 133.375C100.187 132.792 101.869 132.058 103.764 131.354C105.381 130.749 107.029 130.228 108.7 129.795C109.342 129.625 109.866 129.514 110.231 129.444C110.422 129.404 110.617 129.382 110.813 129.378Z" fill="#E0E0E0"/>
<path d="M93.621 151.167C93.5738 151.119 93.5318 151.066 93.4957 151.009L93.1675 150.54C92.8837 150.128 92.4892 149.527 92.0135 148.774C91.055 147.27 89.8014 145.15 88.4483 142.791C87.0952 140.431 85.8675 138.304 84.9347 136.785L83.8287 134.982L83.5337 134.491C83.4947 134.437 83.4637 134.378 83.4415 134.314C83.4415 134.314 83.4895 134.362 83.5669 134.469C83.6443 134.576 83.766 134.75 83.895 134.941C84.1789 135.35 84.5734 135.951 85.0527 136.707C86.0076 138.212 87.2648 140.328 88.6179 142.687C89.971 145.047 91.1987 147.174 92.1278 148.697L93.2339 150.496C93.3519 150.692 93.4514 150.865 93.5289 150.987C93.5684 151.042 93.5995 151.103 93.621 151.167Z" fill="#E0E0E0"/>
<path d="M111.385 141.932C111.333 141.977 111.274 142.014 111.211 142.042L110.699 142.315L108.796 143.307C107.189 144.147 104.984 145.331 102.551 146.625C100.117 147.919 97.9015 149.103 96.283 149.906C95.4719 150.308 94.8082 150.644 94.3511 150.839L93.798 151.083C93.7373 151.115 93.673 151.139 93.6063 151.156C93.659 151.112 93.7173 151.075 93.7796 151.046L94.2958 150.773L96.1982 149.777C97.802 148.94 100.007 147.757 102.44 146.459C104.873 145.161 107.093 143.985 108.708 143.182C109.519 142.78 110.183 142.444 110.64 142.249L111.171 142.005C111.238 141.97 111.31 141.945 111.385 141.932Z" fill="#E0E0E0"/>
<path d="M46.3846 76.7582C46.3846 76.7582 42.0046 77.3665 44.4638 86.9598C46.9229 96.5531 49.0097 101.501 49.0097 101.501C49.0097 101.501 49.3378 103.673 47.5866 103.606C45.8353 103.54 42.2627 102.131 41.0497 104.008C39.7961 105.969 40.8948 108.329 43.6305 110.803C46.3662 113.277 52.1989 118.914 52.7224 119.427C53.2459 119.939 53.6294 120.994 52.4274 121.137C51.2255 121.281 42.7014 120.282 42.4728 124.356C42.2442 128.43 51.0301 134.064 51.9776 134.698C52.9252 135.332 53.0837 135.826 52.8625 136.379C52.6413 136.932 49.8171 136.324 47.3801 136.136C44.9431 135.948 42.082 136.165 42.1447 138.525C42.2074 140.884 46.8234 146.857 60.2805 151.296L66.6552 152.944L71.3633 148.306C80.8386 137.765 81.8746 130.292 80.7575 128.212C79.6404 126.133 77.0706 127.368 75.0281 128.74C72.9855 130.111 70.8471 132.058 70.39 131.689C69.9328 131.321 69.8148 130.812 70.3236 129.79C70.8324 128.769 75.6585 119.515 73.4317 116.094C71.2048 112.672 64.3029 117.768 63.1968 118.236C62.0908 118.704 61.8917 117.591 62.0908 116.897C62.2899 116.204 64.5389 108.418 65.6966 104.897C66.8542 101.376 66.633 98.7874 64.5684 97.7108C62.5774 96.6748 60.1847 99.6833 58.6952 100.612C57.2056 101.541 56.4167 99.5063 56.4167 99.5063C56.4167 99.5063 55.7678 94.1788 53.1353 84.6297C50.5029 75.0807 46.3035 76.7914 46.3035 76.7914" fill="#EBEBEB"/>
<path d="M66.6514 154.53C64.7453 147.525 61.5635 134.989 58.7799 124.227C55.9963 113.465 53.4671 103.761 51.5942 96.7342C50.6577 93.2243 49.8982 90.3854 49.382 88.4129C49.1239 87.4358 48.9212 86.6727 48.7811 86.1491L48.6262 85.5592C48.593 85.4265 48.582 85.3564 48.582 85.3564C48.582 85.3564 48.6078 85.4191 48.6483 85.5519C48.6889 85.6846 48.7442 85.8874 48.8179 86.1381C48.9691 86.6616 49.1866 87.4174 49.4595 88.3907C50.0125 90.3485 50.7941 93.1837 51.7453 96.6936C53.6514 103.699 56.2065 113.436 58.9901 124.176C61.7737 134.916 64.9296 147.462 66.8026 154.489" fill="#E0E0E0"/>
<path d="M45.968 106.198C46.1152 106.259 46.256 106.334 46.3883 106.423C46.65 106.578 47.0261 106.814 47.4943 107.109C48.4124 107.702 49.6622 108.554 51.0227 109.516L54.4957 111.994L55.5539 112.731C55.6873 112.814 55.811 112.912 55.9226 113.023C55.7738 112.963 55.6317 112.887 55.4986 112.798C55.2368 112.643 54.8607 112.407 54.3925 112.108C53.4818 111.507 52.243 110.634 50.8826 109.675L47.3911 107.223L46.3293 106.486C46.1989 106.403 46.0778 106.307 45.968 106.198Z" fill="#E0E0E0"/>
<path d="M56.4572 112.717C56.4093 112.687 58.0499 110.036 60.1183 106.795C62.1866 103.555 63.9084 100.952 63.9563 100.981C64.0043 101.011 62.3636 103.665 60.2916 106.906C58.2195 110.147 56.5051 112.739 56.4572 112.717Z" fill="#E0E0E0"/>
<path d="M59.9893 129.411C60.0913 129.284 60.209 129.17 60.3395 129.072L61.3313 128.202C62.1682 127.464 63.3222 126.447 64.5536 125.274C65.785 124.102 66.869 123.007 67.6432 122.207C68.0119 121.838 68.3143 121.51 68.5613 121.259C68.6729 121.136 68.7964 121.023 68.93 120.924C68.8483 121.065 68.7492 121.195 68.635 121.311C68.4359 121.551 68.1373 121.89 67.7612 122.303C67.0238 123.132 65.9473 124.249 64.7085 125.422C63.4697 126.594 62.3046 127.604 61.4419 128.312C61.0068 128.681 60.6529 128.946 60.4022 129.135C60.2752 129.242 60.1367 129.334 59.9893 129.411Z" fill="#E0E0E0"/>
<path d="M49.2051 125.603C49.3539 125.62 49.5 125.656 49.6401 125.709L50.8089 126.078C51.7896 126.392 53.1427 126.838 54.6322 127.339C56.1217 127.84 57.4674 128.312 58.437 128.663L59.5837 129.083C59.7264 129.128 59.8637 129.188 59.9929 129.264C59.844 129.249 59.6977 129.214 59.5579 129.16L58.3891 128.792C57.4084 128.478 56.0553 128.032 54.5658 127.527C53.0763 127.022 51.7306 126.554 50.7609 126.207L49.6143 125.783C49.4704 125.742 49.3328 125.681 49.2051 125.603Z" fill="#E0E0E0"/>
<path d="M50.4512 140.737C50.6409 140.765 50.8274 140.812 51.008 140.877L52.5048 141.334C53.7657 141.729 55.5023 142.285 57.4195 142.916C59.3366 143.546 61.0658 144.121 62.3156 144.553L63.7904 145.069C63.9739 145.128 64.1526 145.2 64.325 145.286C64.134 145.258 63.9463 145.211 63.7646 145.146L62.2677 144.689C61.0068 144.295 59.2703 143.738 57.3531 143.107C55.4359 142.477 53.7068 141.898 52.4606 141.471L50.9858 140.951C50.8016 140.896 50.6226 140.824 50.4512 140.737Z" fill="#E0E0E0"/>
<path d="M64.0227 145.084C64.1525 144.925 64.2969 144.778 64.4541 144.645L65.6744 143.499C66.7031 142.529 68.1188 141.183 69.6415 139.653C71.1642 138.123 72.5099 136.704 73.4759 135.671L74.6188 134.447C74.7534 134.291 74.9001 134.145 75.0576 134.012C74.9501 134.186 74.8267 134.349 74.6889 134.499C74.4382 134.805 74.0621 135.236 73.5828 135.767C72.6427 136.829 71.3154 138.267 69.7853 139.797C68.2553 141.327 66.8358 142.662 65.774 143.605C65.2431 144.074 64.8117 144.453 64.5057 144.712C64.3553 144.849 64.1938 144.973 64.0227 145.084Z" fill="#E0E0E0"/>
<path d="M27.3603 19.5491L23.7619 18.443C23.7619 18.443 22.818 21.4663 19.662 20.5408C19.051 20.3726 18.5075 20.0186 18.1065 19.5278C17.7056 19.037 17.4671 18.4338 17.4241 17.8015C17.3768 17.2683 17.4576 16.7315 17.6596 16.2358C17.8616 15.7401 18.179 15.2998 18.5855 14.9515C19.5109 14.133 21.1331 13.6353 23.4227 14.8188L25.9556 6.70763L22.3977 5.60156L20.9229 10.354C20.9229 10.354 15.5253 10.0848 13.8109 15.582C12.1703 20.8432 16.5061 23.5383 18.5265 24.1687C20.0602 24.648 25.4468 25.9163 27.3603 19.5491Z" fill="#F5F5F5"/>
<path d="M22.8796 3.91325L26.4907 5.04004L27.5428 1.66834L23.9317 0.54155L22.8796 3.91325Z" fill="#F5F5F5"/>
<path d="M37.289 10.391L38.7306 10.0223C38.6866 9.85855 38.676 9.68765 38.6993 9.51975C38.7227 9.35184 38.7796 9.19034 38.8666 9.04485C38.9536 8.89936 39.069 8.77285 39.2059 8.67285C39.3427 8.57284 39.4983 8.50138 39.6634 8.46271C39.9036 8.3902 40.1604 8.39419 40.3982 8.47412C40.636 8.55405 40.8431 8.70597 40.9907 8.90882C41.116 9.07726 41.1997 9.27295 41.235 9.47992C41.2702 9.68689 41.256 9.89926 41.1935 10.0997C41.0571 10.5679 40.6183 11.0767 39.6007 11.1615L40.4598 14.4097L41.8829 14.041L41.3815 12.1385C41.9212 11.813 42.3388 11.319 42.57 10.7327C42.8012 10.1464 42.8331 9.50032 42.6608 8.89407C42.1078 6.78517 40.08 6.79623 39.28 7.00639C38.6606 7.15017 36.5922 7.85437 37.289 10.391Z" fill="#EBEBEB"/>
<path d="M42.385 14.5146L40.933 14.9038L41.2964 16.2592L42.7483 15.87L42.385 14.5146Z" fill="#EBEBEB"/>
<path d="M156.306 47.7058L157.707 48.2109C157.765 48.0522 157.855 47.907 157.971 47.7836C158.087 47.6602 158.226 47.5613 158.381 47.4926C158.535 47.4239 158.702 47.3868 158.871 47.3835C159.04 47.3802 159.209 47.4108 159.366 47.4735C159.602 47.5494 159.808 47.6965 159.958 47.8945C160.107 48.0925 160.191 48.3318 160.199 48.5796C160.208 48.791 160.166 49.0015 160.078 49.1938C159.989 49.3861 159.856 49.5546 159.69 49.6856C159.321 49.9916 158.661 50.1576 157.777 49.6488L156.63 52.8084L158.016 53.3098L158.687 51.4664C159.317 51.5054 159.941 51.3368 160.465 50.9864C160.99 50.6361 161.384 50.1234 161.589 49.5271C162.326 47.4772 160.663 46.3379 159.878 46.054C159.277 45.8181 157.176 45.2245 156.306 47.7058Z" fill="#EBEBEB"/>
<path d="M157.809 53.9502L156.402 53.4404L155.926 54.7542L157.333 55.264L157.809 53.9502Z" fill="#EBEBEB"/>
<path d="M7.62063 63.7511L10.5701 62.6082C10.5701 62.6082 9.61155 60.1195 12.1813 59.0761C12.6731 58.868 13.2174 58.8176 13.7391 58.9319C14.2607 59.0461 14.7341 59.3194 15.094 59.714C15.4001 60.042 15.6244 60.4378 15.7487 60.869C15.873 61.3001 15.8937 61.7546 15.8092 62.1953C15.6249 63.2202 14.8138 64.4074 12.679 64.8166L15.2599 71.501L18.2094 70.3728L16.6978 66.4573C16.6978 66.4573 20.3846 63.8101 18.6555 59.2752C16.978 54.9395 12.6864 55.4335 11.0384 56.0713C9.7664 56.5617 5.5486 58.5415 7.62063 63.7511Z" fill="#F5F5F5"/>
<path d="M18.7682 71.7334L15.7922 72.8799L16.8632 75.6597L19.8392 74.5132L18.7682 71.7334Z" fill="#F5F5F5"/>
<path d="M157.46 74.9998L155.358 75.8072C155.358 75.8072 156.036 77.5733 154.215 78.3106C153.866 78.4564 153.481 78.4914 153.112 78.4109C152.743 78.3305 152.407 78.1384 152.15 77.8608C151.934 77.6283 151.775 77.3477 151.687 77.0421C151.599 76.7365 151.585 76.4144 151.645 76.1022C151.778 75.3648 152.353 74.539 153.857 74.2587L152.051 69.5063L149.971 70.3064L151.041 73.0826C150.284 73.6616 149.738 74.4731 149.488 75.3924C149.237 76.3116 149.296 77.2878 149.654 78.1705C150.838 81.2417 153.869 80.8951 155.048 80.4417C155.941 80.0914 158.927 78.6904 157.46 74.9998Z" fill="#F5F5F5"/>
<path d="M149.56 69.3433L151.669 68.5308L150.911 66.5629L148.802 67.3754L149.56 69.3433Z" fill="#F5F5F5"/>
<path d="M163.395 156.528C163.395 156.583 126.951 156.624 82.0037 156.624C37.0568 156.624 0.604492 156.583 0.604492 156.528C0.604492 156.473 37.042 156.432 82.0037 156.432C126.965 156.432 163.395 156.476 163.395 156.528Z" fill="#263238"/>
<path d="M23.9831 146.953C24.3518 145.596 23.4411 144.236 22.4457 143.266C21.4502 142.297 20.2593 141.404 19.7395 140.103C18.8989 137.994 20.0271 135.266 18.5965 133.507C17.7522 132.475 16.2406 132.128 15.4922 131.022C15.1461 130.412 14.9173 129.743 14.8175 129.05C14.0219 125.547 12.299 122.322 9.82912 119.714C9.66263 122.834 10.3389 125.942 11.7869 128.71C12.3657 129.816 13.081 130.893 13.2616 132.128C13.575 134.13 12.4542 136.184 12.9482 138.16C13.5123 140.409 16.0378 141.917 16.1558 144.232C16.2591 146.19 14.552 147.919 14.6811 149.866C14.7845 150.699 15.0867 151.496 15.5622 152.188C17.0739 154.707 19.3007 156.439 22.6706 156.384L26.7999 156.528L23.9831 146.953Z" fill="#0957DE"/>
<g opacity="0.3">
<path opacity="0.3" d="M23.9831 146.953C24.3518 145.596 23.4411 144.236 22.4457 143.266C21.4502 142.297 20.2593 141.404 19.7395 140.103C18.8989 137.994 20.0271 135.266 18.5965 133.507C17.7522 132.475 16.2406 132.128 15.4922 131.022C15.1461 130.412 14.9173 129.743 14.8175 129.05C14.0219 125.547 12.299 122.322 9.82912 119.714C9.66263 122.834 10.3389 125.942 11.7869 128.71C12.3657 129.816 13.081 130.893 13.2616 132.128C13.575 134.13 12.4542 136.184 12.9482 138.16C13.5123 140.409 16.0378 141.917 16.1558 144.232C16.2591 146.19 14.552 147.919 14.6811 149.866C14.7845 150.699 15.0867 151.496 15.5622 152.188C17.0739 154.707 19.3007 156.439 22.6706 156.384L26.7999 156.528L23.9831 146.953Z" fill="black"/>
</g>
<path d="M27.6331 156.613C28.0113 156.671 28.3967 156.664 28.7723 156.591C29.2284 156.521 29.6766 156.408 30.1107 156.251C30.7101 156.043 31.2708 155.737 31.7698 155.344C32.07 155.103 32.3046 154.79 32.4519 154.434C32.5752 154.035 32.6398 153.62 32.6436 153.202C32.6519 152.756 32.6851 152.31 32.7431 151.868C32.8208 151.396 32.9912 150.945 33.2445 150.54C33.7312 149.685 34.5423 148.874 34.8004 147.713C35.0585 146.551 34.8815 145.335 34.6898 144.096C34.4981 142.857 34.3211 141.515 34.7857 140.217C35.2502 138.919 36.1351 137.758 36.5886 136.305C37.042 134.853 36.8282 133.253 36.9241 131.693C36.9524 130.901 37.1352 130.122 37.4623 129.4C37.7942 128.662 38.2587 127.98 38.62 127.213C39.3574 125.658 39.4828 123.895 39.6819 122.166C39.7814 121.296 39.8773 120.415 39.9768 119.53C40.0396 118.635 40.194 117.75 40.4377 116.886C40.7174 116.016 41.0473 115.163 41.4258 114.331C41.6207 113.901 41.7809 113.456 41.905 113C41.9745 112.529 42.0188 112.054 42.0378 111.577C42.0817 110.624 42.0447 109.668 41.9272 108.72C41.8166 107.769 41.6433 106.825 41.54 105.87C41.54 105.811 41.54 105.756 41.54 105.704L41.5179 105.516L41.352 105.597C40.4803 106.045 39.7233 106.687 39.1399 107.474C38.5676 108.245 38.1071 109.092 37.772 109.992C37.0826 111.765 36.8356 113.624 36.489 115.397C36.1424 117.17 35.7 118.914 34.793 120.389C34.3396 121.126 33.7902 121.797 33.3183 122.513C32.8058 123.211 32.4557 124.014 32.2933 124.865C32.0463 126.613 33.0086 128.146 32.8095 129.695C32.7197 130.453 32.4682 131.184 32.0721 131.837C31.7034 132.497 31.2573 133.109 30.837 133.721C30.411 134.321 30.0408 134.959 29.7309 135.627C29.4393 136.281 29.267 136.981 29.2221 137.695C29.1226 139.089 29.318 140.409 29.2221 141.655C29.107 142.843 28.7601 143.996 28.2009 145.051C27.7031 146.065 27.1464 146.983 26.6819 147.875C26.4496 148.317 26.2321 148.752 26.0551 149.191C25.8876 149.612 25.7641 150.05 25.6864 150.496C25.563 151.276 25.5531 152.069 25.6569 152.852C25.7652 153.943 26.1736 154.983 26.8367 155.857C26.9381 155.989 27.0503 156.112 27.1722 156.226C27.2537 156.311 27.3439 156.388 27.4414 156.454C27.5962 156.568 27.6773 156.62 27.6773 156.62C27.3826 156.387 27.1143 156.123 26.8773 155.831C26.2443 154.955 25.8619 153.922 25.7712 152.845C25.6773 152.072 25.6947 151.29 25.8228 150.522C25.9005 150.086 26.0241 149.66 26.1915 149.25C26.3783 148.806 26.5888 148.373 26.822 147.952C27.2902 147.067 27.8506 146.153 28.3594 145.132C28.9353 144.061 29.2937 142.887 29.4139 141.677C29.5245 140.405 29.3328 139.078 29.436 137.721C29.4835 137.03 29.6519 136.352 29.9337 135.719C30.2455 135.065 30.6157 134.441 31.0398 133.854C31.4601 133.242 31.9062 132.63 32.2896 131.955C32.7105 131.277 32.9796 130.516 33.0786 129.724C33.2777 128.076 32.3228 126.535 32.5698 124.909C32.7314 124.096 33.07 123.328 33.5616 122.66C34.0299 121.956 34.5829 121.285 35.0364 120.529C35.9765 119.014 36.43 117.237 36.7729 115.456C37.1158 113.675 37.3702 111.832 38.0486 110.092C38.3748 109.217 38.8229 108.393 39.3795 107.643C39.9408 106.888 40.6688 106.272 41.5069 105.844L41.3188 105.737C41.3188 105.793 41.3188 105.848 41.3373 105.907C41.4405 106.873 41.6138 107.817 41.706 108.761C41.8224 109.693 41.8582 110.635 41.8129 111.574C41.7942 112.035 41.7524 112.495 41.6875 112.953C41.5684 113.394 41.413 113.824 41.223 114.239C40.8425 115.08 40.5102 115.942 40.2275 116.82C39.9818 117.697 39.8261 118.596 39.763 119.504C39.6671 120.393 39.5676 121.274 39.4717 122.144C39.2726 123.881 39.1436 125.613 38.4394 127.114C38.0707 127.851 37.6283 128.555 37.2854 129.308C36.9479 130.057 36.7601 130.865 36.7323 131.686C36.6402 133.278 36.8466 134.838 36.4153 136.246C35.9839 137.655 35.088 138.827 34.6345 140.158C34.181 141.489 34.3469 142.897 34.546 144.133C34.7451 145.368 34.9442 146.584 34.6787 147.679C34.4133 148.774 33.6538 149.593 33.1597 150.47C32.8993 150.893 32.7251 151.363 32.6473 151.853C32.5916 152.301 32.562 152.751 32.5588 153.202C32.5594 153.61 32.4997 154.015 32.3818 154.404C32.2452 154.742 32.0259 155.04 31.744 155.271C31.2583 155.662 30.7115 155.971 30.1254 156.185C29.6971 156.35 29.2539 156.474 28.8018 156.554C28.5256 156.604 28.2457 156.631 27.9649 156.635C27.7326 156.613 27.6331 156.613 27.6331 156.613Z" fill="#263238"/>
<path d="M40.6773 107.983C40.6576 108.022 40.644 108.065 40.6368 108.108L40.5483 108.477C40.4672 108.805 40.3676 109.295 40.2128 109.907C40.0579 110.519 39.6782 111.213 39.3574 112.064C38.9818 113.023 38.6544 114 38.3767 114.992C38.0596 116.098 37.7831 117.314 37.4882 118.627C37.2375 120.025 36.7933 121.381 36.1683 122.657C35.8291 123.328 35.4309 124.006 35.147 124.751C34.8493 125.511 34.6498 126.307 34.5534 127.118C34.3437 128.798 34.0459 130.465 33.6612 132.114C32.8353 135.494 32.0463 138.717 31.3274 141.652C30.6084 144.586 29.9301 147.211 29.3696 149.431C28.8092 151.65 28.3852 153.42 28.0756 154.685C27.9318 155.289 27.8175 155.765 27.7364 156.115C27.7032 156.266 27.6737 156.388 27.6516 156.484C27.6475 156.527 27.6475 156.57 27.6516 156.613C27.673 156.575 27.6891 156.534 27.6995 156.491C27.7253 156.392 27.7622 156.274 27.8064 156.123C27.8986 155.78 28.0276 155.304 28.1935 154.703C28.5254 153.45 28.9936 151.669 29.5724 149.475C30.1513 147.281 30.826 144.627 31.5818 141.711C32.3376 138.794 33.1045 135.55 33.9377 132.165C34.3199 130.512 34.6104 128.84 34.8078 127.155C34.902 126.363 35.0952 125.587 35.383 124.843C35.6742 124.106 36.0466 123.446 36.3858 122.767C37.1232 121.422 37.4144 119.976 37.7057 118.675C37.997 117.373 38.2551 116.142 38.5574 115.043C38.8597 113.945 39.1768 112.964 39.4939 112.116C39.8109 111.268 40.1612 110.567 40.3123 109.933C40.4635 109.299 40.5336 108.827 40.5999 108.488C40.6245 108.336 40.6466 108.213 40.6663 108.119C40.6773 108.027 40.6847 107.983 40.6773 107.983Z" fill="#263238"/>
<path d="M28.3631 156.631C31.0582 155.028 31.8325 150.161 30.708 147.233C29.5835 144.306 27.6147 141.629 27.3123 138.507C27.0764 136.106 27.8654 133.644 27.3123 131.299C26.5565 128.132 23.4669 125.68 23.5038 122.424C23.5222 120.599 24.5619 118.881 24.4771 117.056C24.3776 114.822 22.6595 113.045 21.5977 111.076C19.968 108.057 19.8611 104.491 19.3044 101.121C18.7477 97.7517 17.461 94.1164 14.4598 92.4536C14.0174 95.3257 13.2616 97.2945 13.4976 101.184C13.586 102.581 15.2083 105.24 15.4295 108.318C15.5622 110.162 15.6507 111.983 15.765 113.812C15.8793 115.64 15.9899 117.41 16.6277 119.077C17.1181 120.356 17.9034 121.517 18.2684 122.837C18.9505 125.319 18.0509 127.999 18.6039 130.521C19.0721 132.652 20.5469 134.484 20.8492 136.645C21.2695 139.679 19.3081 142.835 20.3109 145.729C20.8123 147.167 21.9921 148.31 22.3277 149.803C22.5894 150.954 22.3055 152.174 22.5415 153.328C22.9102 155.193 26.4717 156.646 28.3705 156.524" fill="#0957DE"/>
<path d="M15.1973 95.2891C15.1922 95.343 15.1922 95.3973 15.1973 95.4513C15.1973 95.5729 15.2341 95.7278 15.2562 95.9232C15.3189 96.3398 15.389 96.9482 15.5291 97.7372C15.6692 98.5261 16.0895 99.4184 16.4139 100.495C16.7384 101.572 17.0997 102.803 17.402 104.182C17.7043 105.561 17.9698 107.098 18.2389 108.746C18.5081 110.394 18.803 112.19 19.6215 113.908C19.9902 114.767 20.4253 115.63 20.7276 116.551C21.0374 117.495 21.2281 118.473 21.2954 119.464C21.4461 121.566 21.7107 123.658 22.0881 125.732C22.9139 129.986 23.6992 134.038 24.4145 137.729C25.1297 141.419 25.8487 144.712 26.4238 147.499C26.999 150.286 27.4709 152.513 27.799 154.084L28.1677 155.872C28.212 156.064 28.2452 156.215 28.2747 156.333C28.2846 156.387 28.2994 156.44 28.3189 156.491C28.3254 156.438 28.3254 156.383 28.3189 156.329C28.2968 156.208 28.271 156.056 28.2378 155.861C28.1567 155.433 28.0424 154.829 27.8986 154.062C27.5889 152.487 27.1612 150.238 26.6045 147.462C26.0478 144.686 25.3878 141.357 24.6541 137.681C23.9204 134.005 23.1794 129.938 22.3498 125.687C21.9722 123.614 21.7064 121.522 21.5535 119.42C21.4833 118.409 21.2863 117.41 20.9672 116.448C20.6391 115.512 20.2077 114.645 19.828 113.79C19.0169 112.098 18.7219 110.332 18.4417 108.691C18.1615 107.05 17.8924 105.509 17.5716 104.123C17.2509 102.737 16.9006 101.498 16.5393 100.436C16.178 99.3741 15.7761 98.4745 15.6139 97.704C15.4517 96.9334 15.3742 96.314 15.2968 95.9048C15.2599 95.713 15.2304 95.5582 15.2083 95.4365C15.2075 95.3872 15.2038 95.338 15.1973 95.2891Z" fill="#263238"/>
<path d="M145.219 18.2696H143.744C143.745 18.4368 143.713 18.6026 143.649 18.7571C143.584 18.9115 143.49 19.0515 143.371 19.1688C143.251 19.286 143.11 19.3781 142.954 19.4396C142.798 19.5011 142.632 19.5308 142.465 19.5268C142.218 19.5357 141.974 19.4672 141.768 19.3311C141.562 19.195 141.404 18.9979 141.315 18.7673C141.237 18.5753 141.206 18.3677 141.224 18.1613C141.242 17.955 141.308 17.7558 141.418 17.5801C141.669 17.1672 142.214 16.7948 143.202 16.9681V13.6499H141.753V15.5892C141.159 15.7642 140.638 16.1295 140.271 16.629C139.904 17.1285 139.711 17.7347 139.722 18.3544C139.722 20.5001 141.646 20.9979 142.472 20.9979C143.103 21.0126 145.249 20.8615 145.219 18.2696Z" fill="#0957DE"/>
<path d="M141.742 12.979H143.213V11.6038H141.742V12.979Z" fill="#0957DE"/>
<path d="M153.26 16.3083C153.265 16.2458 153.265 16.1829 153.26 16.1203C153.26 15.9876 153.26 15.8069 153.26 15.5746C153.26 15.4567 153.26 15.3203 153.242 15.1728C153.223 15.0253 153.201 14.8631 153.175 14.6935C153.15 14.5239 153.124 14.3248 153.094 14.1294L152.939 13.5026C152.666 12.4232 152.217 11.3958 151.612 10.4609C150.734 9.07642 149.549 7.91182 148.15 7.05664C146.751 6.20145 145.174 5.67846 143.542 5.52787C143.051 5.48456 142.558 5.47471 142.067 5.49837C141.82 5.49837 141.565 5.49837 141.329 5.5463L140.57 5.6606C139.528 5.85428 138.519 6.19829 137.576 6.68187C136.591 7.20293 135.686 7.86219 134.888 8.63961C134.071 9.46762 133.388 10.418 132.864 11.4564C132.3 12.527 131.931 13.6892 131.773 14.8889C131.727 15.1928 131.701 15.4995 131.696 15.8069C131.671 16.1147 131.665 16.4238 131.677 16.7323C131.757 18.7101 132.376 20.6286 133.465 22.2811V22.1668C132.953 23.4462 132.448 24.7034 131.954 25.9274L131.865 26.1523L132.097 26.086L136.116 24.9799L136.02 24.9578C137.374 25.9824 138.95 26.6722 140.622 26.9708C141.397 27.1153 142.187 27.1636 142.974 27.1146C143.353 27.109 143.732 27.0732 144.106 27.0077L144.655 26.9229C144.836 26.8897 145.024 26.8344 145.186 26.7939C147.662 26.1663 149.835 24.6776 151.313 22.5945C151.865 21.8271 152.308 20.9871 152.63 20.0985C152.7 19.9031 152.766 19.7298 152.829 19.5381C152.891 19.3463 152.925 19.1694 152.965 19.0035C153.006 18.8375 153.05 18.6679 153.087 18.5131C153.124 18.3582 153.135 18.2071 153.157 18.0633C153.19 17.7794 153.242 17.5287 153.253 17.3259C153.264 17.1231 153.253 16.9277 153.253 16.7729C153.253 16.618 153.253 16.5222 153.253 16.4374C153.253 16.3526 153.253 16.3231 153.253 16.3231C153.247 16.361 153.247 16.3995 153.253 16.4374C153.253 16.5222 153.253 16.6328 153.227 16.7729C153.201 16.913 153.205 17.1084 153.19 17.3222C153.175 17.5361 153.12 17.7868 153.076 18.0596C152.724 20.1002 151.788 21.9947 150.38 23.5131C148.972 25.0315 147.154 26.1085 145.145 26.6132C144.972 26.6538 144.799 26.7054 144.622 26.7386L144.08 26.8197C143.714 26.8807 143.344 26.914 142.974 26.9192C142.201 26.9599 141.426 26.9092 140.666 26.768C139.034 26.4677 137.495 25.7897 136.171 24.7882L136.127 24.7513H136.072L132.049 25.8574L132.19 26.0159L133.705 22.259L133.727 22.2L133.694 22.1447C132.968 21.0463 132.453 19.8222 132.175 18.5352C132.048 17.9381 131.971 17.3313 131.946 16.7213C131.934 16.4201 131.94 16.1184 131.965 15.818C131.967 15.5179 131.992 15.2185 132.038 14.9221C132.18 13.7505 132.528 12.6132 133.067 11.5633C133.579 10.5485 134.245 9.61836 135.04 8.80551C135.82 8.04231 136.707 7.39539 137.672 6.88464C138.594 6.40499 139.582 6.06338 140.603 5.87075L141.34 5.75646C141.587 5.71959 141.835 5.72327 142.078 5.70484C142.558 5.68198 143.04 5.6906 143.519 5.73065C145.125 5.87124 146.678 6.37594 148.06 7.20643C149.442 8.03692 150.616 9.17136 151.494 10.5236C152.103 11.4422 152.558 12.4532 152.844 13.5174L153.009 14.1368C153.043 14.3322 153.072 14.5054 153.102 14.6898C153.131 14.8741 153.153 15.0216 153.179 15.1691C153.205 15.3166 153.198 15.4493 153.209 15.5673C153.209 15.7959 153.238 15.9765 153.249 16.1092C153.242 16.1758 153.246 16.243 153.26 16.3083Z" fill="#263238"/>
<path d="M43.3134 59.7879H64.6052C64.6052 59.7879 64.6052 41.9102 83.1834 41.5931C92.832 41.4235 97.8351 47.7465 99.8703 52.5874C102.23 58.2099 101.515 64.6177 98.3513 69.8347C94.7418 75.789 86.9625 81.7728 72.6131 79.2436L72.4767 126.683H93.5325V98.5592C93.5325 98.5592 123.061 90.9274 123.061 58.3721C123.061 27.2363 97.8831 20.5114 84.3485 20.0764C76.8199 19.8367 74.0916 19.5123 64.7785 20.8359C52.9104 22.5319 43.0627 36.3135 43.3134 59.7879Z" fill="#0957DE"/>
<path d="M93.7869 136.571H72.4177V156.528H93.7869V136.571Z" fill="#0957DE"/>
<path opacity="0.1" d="M93.7869 136.571H72.4177V156.528H93.7869V136.571Z" fill="black"/>
<path opacity="0.1" d="M43.3134 59.7879H64.6052C64.6052 59.7879 64.6052 41.9102 83.1834 41.5931C92.832 41.4235 97.8351 47.7465 99.8703 52.5874C102.23 58.2099 101.515 64.6177 98.3513 69.8347C94.7418 75.789 86.9625 81.7728 72.6131 79.2436L72.4767 126.683H93.5325V98.5592C93.5325 98.5592 123.061 90.9274 123.061 58.3721C123.061 27.2363 97.8831 20.5114 84.3485 20.0764C76.8199 19.8367 74.0916 19.5123 64.7785 20.8359C52.9104 22.5319 43.0627 36.3135 43.3134 59.7879Z" fill="black"/>
<path d="M34.4907 59.7879H55.7861C55.7861 59.7879 55.7861 41.9102 74.3644 41.5931C84.013 41.4235 89.0161 47.7465 91.0476 52.5874C93.4109 58.2099 92.6956 64.6177 89.5323 69.8347C85.9228 75.789 78.007 81.2014 63.6577 78.6832V126.683H84.7135V98.5592C84.7135 98.5592 114.242 90.9274 114.242 58.3721C114.242 27.2363 86.3173 20.0063 74.3681 20.0063C65.2283 20.0174 34.0888 22.2259 34.4907 59.7879Z" fill="#0957DE"/>
<path opacity="0.3" d="M34.4907 59.7879H55.7861C55.7861 59.7879 55.7861 41.9102 74.3644 41.5931C84.013 41.4235 89.0161 47.7465 91.0476 52.5874C93.4109 58.2099 92.6956 64.6177 89.5323 69.8347C85.9228 75.789 78.007 81.2014 63.6577 78.6832V126.683H84.7135V98.5592C84.7135 98.5592 114.242 90.9274 114.242 58.3721C114.242 27.2363 86.3173 20.0063 74.3681 20.0063C65.2283 20.0174 34.0888 22.2259 34.4907 59.7879Z" fill="black"/>
<path d="M84.9679 136.571H63.5987V156.528H84.9679V136.571Z" fill="#0957DE"/>
<path opacity="0.3" d="M84.9679 136.571H63.5987V156.528H84.9679V136.571Z" fill="black"/>
<path d="M76.7682 41.6891C76.6627 41.6982 76.5566 41.6982 76.4512 41.6891C76.241 41.6891 75.9387 41.619 75.5442 41.6153C74.4288 41.5605 73.3107 41.6074 72.2039 41.7554C70.5624 41.9632 68.9474 42.3426 67.3851 42.8873C66.4641 43.2092 65.5672 43.5961 64.701 44.045C63.7648 44.5129 62.8832 45.0829 62.0723 45.7447C61.267 46.4124 60.5453 47.175 59.9228 48.0158C59.3328 48.7931 58.7946 49.6085 58.3117 50.4565C57.5053 51.9008 56.8659 53.4321 56.4055 55.0209C56.0934 56.0931 55.8787 57.1914 55.764 58.3022C55.7198 58.693 55.7087 59.0027 55.6977 59.2092C55.6979 59.3156 55.688 59.4217 55.6682 59.5263C55.6586 59.4208 55.6586 59.3147 55.6682 59.2092C55.6682 58.999 55.6682 58.6893 55.7013 58.2948C55.7861 57.1721 55.9825 56.0605 56.2876 54.9766C56.731 53.3695 57.3621 51.8202 58.1679 50.3606C58.6518 49.5033 59.1925 48.6793 59.7864 47.8941C60.4141 47.0396 61.1447 46.2656 61.9617 45.5898C62.7824 44.9189 63.6752 44.3415 64.6236 43.868C65.4952 43.4109 66.3983 43.0166 67.3261 42.6882C68.9026 42.1456 70.533 41.7747 72.1891 41.5822C73.3034 41.4452 74.4285 41.4193 75.5479 41.5047C75.8521 41.5242 76.1549 41.5611 76.4548 41.6153C76.5609 41.6325 76.6656 41.6572 76.7682 41.6891Z" fill="#263238"/>
<path d="M108.852 37.8949C108.852 37.8949 108.826 37.8691 108.781 37.8138C108.737 37.7585 108.671 37.6627 108.597 37.5557L107.893 36.5603C107.742 36.3464 107.58 36.0994 107.388 35.845L106.724 35.0376L105.965 34.1048C105.688 33.7804 105.364 33.467 105.039 33.1241C104.715 32.7812 104.383 32.4162 104.007 32.066C103.631 31.7157 103.229 31.3581 102.816 30.9894C102.61 30.805 102.407 30.6207 102.186 30.4253L101.5 29.8833C101.032 29.5146 100.567 29.1459 100.062 28.7773C97.8604 27.2021 95.5251 25.8228 93.0827 24.6553L91.1397 23.7778L89.2115 23.0405C88.581 22.7787 87.9395 22.5943 87.3201 22.3879C86.7007 22.1814 86.0961 21.9713 85.4767 21.8275L83.7143 21.3666C83.1429 21.2154 82.5751 21.1233 82.0331 20.9979C81.4911 20.8726 80.9676 20.762 80.4551 20.6993L78.9804 20.4854C78.0476 20.3269 77.1922 20.2937 76.4475 20.22C76.0788 20.1905 75.7101 20.1499 75.4041 20.1352L74.5266 20.1131L73.3099 20.0725H72.9928H72.8859C72.9214 20.067 72.9574 20.067 72.9928 20.0725H73.3099H74.5266H75.4078C75.7285 20.0725 76.0788 20.1167 76.4548 20.1426C77.1922 20.2052 78.0623 20.231 78.9951 20.3822L80.4699 20.5813C80.9823 20.6403 81.5059 20.773 82.0515 20.8726C82.5972 20.9721 83.1576 21.0753 83.7438 21.2413L85.5135 21.6984C86.1255 21.8385 86.7302 22.0671 87.357 22.2551C87.9837 22.4432 88.6216 22.6238 89.252 22.904L91.1913 23.6414L93.1454 24.5226C95.6006 25.6928 97.9452 27.0822 100.15 28.674C100.659 29.0427 101.124 29.4372 101.592 29.8022L102.278 30.2999C102.499 30.4843 102.702 30.6686 102.908 30.8677L104.095 31.9738C104.464 32.3425 104.796 32.7112 105.124 33.0467C105.452 33.3822 105.766 33.7103 106.042 34.0384L106.78 34.9786L107.436 35.7971C107.624 36.0552 107.782 36.3059 107.93 36.5345C108.217 36.9658 108.442 37.305 108.601 37.5484L108.774 37.8175C108.803 37.8399 108.829 37.8659 108.852 37.8949Z" fill="#263238"/>
<path d="M106.632 83.6128C106.588 83.6926 106.535 83.7669 106.473 83.834L105.965 84.435C105.755 84.7041 105.489 85.0249 105.161 85.3825C104.833 85.7401 104.483 86.1604 104.055 86.5955C103.627 87.0305 103.17 87.5172 102.65 88.0076C102.13 88.4979 101.566 89.0141 100.965 89.5524C98.3294 91.853 95.4399 93.8458 92.3527 95.492C91.6374 95.8606 90.9627 96.2293 90.3102 96.5132C89.6576 96.7971 89.0493 97.0884 88.4888 97.3243C87.9284 97.5603 87.4123 97.7557 86.9625 97.929C86.5127 98.1023 86.1182 98.2424 85.7937 98.3456L85.0564 98.5852C84.9708 98.6193 84.8818 98.644 84.7909 98.659C84.8704 98.6135 84.9544 98.5764 85.0416 98.5484L85.779 98.2756C86.0997 98.1613 86.4869 98.0138 86.933 97.8294C87.3791 97.6451 87.8952 97.4608 88.4483 97.199C89.0013 96.9372 89.6133 96.6902 90.2512 96.3694C90.889 96.0487 91.5711 95.7095 92.2827 95.3371C93.6874 94.5629 95.2027 93.6559 96.7327 92.6088C98.2628 91.5617 99.638 90.4593 100.862 89.4196C101.463 88.8887 102.038 88.391 102.551 87.8896C103.063 87.3882 103.542 86.9347 103.966 86.4996C104.39 86.0646 104.763 85.6627 105.095 85.3088C105.426 84.9548 105.699 84.6451 105.92 84.387L106.437 83.8008C106.497 83.733 106.562 83.6701 106.632 83.6128Z" fill="#263238"/>
<path d="M84.3411 125.009C84.2858 125.009 84.2416 119.088 84.2416 111.784C84.2416 104.48 84.2858 98.5557 84.3411 98.5557C84.3964 98.5557 84.437 104.477 84.437 111.784C84.437 119.092 84.3927 125.009 84.3411 125.009Z" fill="#263238"/>
<path d="M85.1522 155.175C85.0969 155.175 85.0564 151.02 85.0564 145.895C85.0564 140.771 85.0969 136.612 85.1522 136.612C85.2076 136.612 85.2481 140.767 85.2481 145.895C85.2481 151.024 85.2039 155.175 85.1522 155.175Z" fill="#263238"/>
<path d="M106.112 56.9599C105.744 57.6973 107.119 58.3019 107.911 58.5416C108.72 58.7401 109.557 58.7974 110.385 58.7112C111.491 58.6522 112.623 58.5489 113.578 58.0033C114.414 57.4852 115.083 56.7361 115.503 55.8464C115.917 54.9596 116.244 54.0348 116.48 53.085C116.48 53.085 107.768 53.6527 106.112 56.9599Z" fill="#0957DE"/>
<g opacity="0.4">
<path opacity="0.4" d="M106.112 56.9599C105.744 57.6973 107.119 58.3019 107.911 58.5416C108.72 58.7401 109.557 58.7974 110.385 58.7112C111.491 58.6522 112.623 58.5489 113.578 58.0033C114.414 57.4852 115.083 56.7361 115.503 55.8464C115.917 54.9596 116.244 54.0348 116.48 53.085C116.48 53.085 107.768 53.6527 106.112 56.9599Z" fill="black"/>
</g>
<path d="M130.719 54.6003C132.155 55.619 133.876 56.1584 135.637 56.1414C136.481 56.1884 137.313 55.9263 137.978 55.404C138.262 55.1422 138.476 54.8104 138.767 54.5597C138.966 54.3901 139.198 54.2611 139.386 54.0804C139.486 53.995 139.562 53.8863 139.609 53.764C139.656 53.6418 139.672 53.5098 139.656 53.3799C139.583 53.0597 139.403 52.7737 139.147 52.5688C138.148 52.001 136.953 52.0231 135.803 52.0489C134.652 52.0988 133.514 52.3212 132.429 52.7089C131.537 53.0112 130.604 53.4463 130.151 54.2574" fill="#0957DE"/>
<g opacity="0.4">
<path opacity="0.4" d="M139.656 53.3801C139.525 53.0691 139.296 52.8099 139.003 52.6427C138.004 52.0749 136.953 52.0233 135.803 52.0491C134.652 52.099 133.514 52.3214 132.429 52.7091C131.537 53.0114 130.604 53.4465 130.151 54.2576L130.719 54.6005C132.155 55.6192 133.876 56.1586 135.637 56.1416C136.481 56.1886 137.313 55.9265 137.978 55.4042C138.262 55.1424 138.476 54.8106 138.767 54.5599C138.966 54.3903 139.198 54.2613 139.386 54.0806C139.486 53.9952 139.562 53.8865 139.609 53.7642C139.656 53.642 139.672 53.51 139.656 53.3801Z" fill="black"/>
</g>
<path d="M113.707 67.8328L132.086 68.0761C132.124 68.076 132.161 68.0672 132.194 68.0503C132.227 68.0334 132.256 68.0089 132.279 67.9788C132.301 67.9487 132.316 67.9138 132.322 67.8769C132.328 67.8401 132.326 67.8022 132.315 67.7664L130.158 61.0415C130.158 61.0415 130.475 57.6791 130.914 53.6383C131.581 47.4996 132.47 39.7829 132.481 39.805C131.224 36.2804 123.806 35.6831 123.806 35.6831L115.352 36.1845L115.057 35.6868L112.623 36.8187C112.093 37.0656 111.582 37.3541 111.097 37.6814C109.489 38.7543 105.618 41.2208 104.91 43.9675C103.277 50.3274 106.042 57.4247 106.042 57.4247L107.819 56.0347C108.267 55.6898 108.737 55.3757 109.228 55.0946L112.789 64.6399C112.577 64.7736 112.398 64.9528 112.264 65.1645C112.13 65.3763 112.045 65.6152 112.015 65.864C111.985 66.6382 112.384 67.5673 113.707 67.8328Z" fill="#0957DE"/>
<g opacity="0.3">
<path opacity="0.3" d="M121.594 56.5801C122.176 53.4463 121.87 50.2239 121.557 47.0532C120.539 49.634 120.576 52.5836 119.496 55.1423C119.363 55.4125 119.267 55.6988 119.208 55.9939C119.18 56.1422 119.187 56.295 119.23 56.4398C119.272 56.5846 119.348 56.7174 119.451 56.8272C119.746 57.0963 120.189 56.9488 120.58 56.9046C120.929 56.8379 121.27 56.7289 121.594 56.5801Z" fill="black"/>
</g>
<g opacity="0.4">
<path opacity="0.4" d="M114.813 63.836C116.288 64.3485 117.859 63.3936 119.418 63.224C120.451 63.1134 121.483 63.3494 122.508 63.5153C124.58 63.8506 126.689 63.9026 128.776 63.6701C129.096 63.6525 129.409 63.571 129.697 63.4305C129.846 63.3289 129.968 63.1926 130.052 63.0332C130.136 62.8739 130.18 62.6964 130.18 62.5161C126.707 62.1474 123.238 61.9483 119.765 61.5907C118.9 61.4432 118.015 61.472 117.162 61.6755C116.115 62 115.318 62.8221 114.581 63.6369" fill="black"/>
</g>
<path d="M139.125 52.1708C137.624 48.7899 132.333 39.4399 132.333 39.4399L128.237 44.5758L129.192 54.6594C129.192 54.6594 131.356 52.2445 137.407 52.1966C137.846 52.2142 138.276 52.3299 138.666 52.5353C139.055 52.7408 139.393 53.0306 139.656 53.3838L139.125 52.1708Z" fill="#0957DE"/>
<path d="M114.529 50.3828C114.237 49.666 114.005 48.926 113.836 48.1707C113.607 47.4349 113.44 46.6814 113.335 45.918C113.623 46.636 113.853 47.3757 114.024 48.1301C114.253 48.8661 114.422 49.6195 114.529 50.3828Z" fill="#263238"/>
<path d="M127.928 43.8936C128.061 43.9878 128.184 44.0953 128.296 44.2143C128.622 44.5289 128.927 44.8638 129.211 45.2171C130.164 46.3825 130.834 47.753 131.168 49.2211C131.342 50.0326 131.38 50.8672 131.283 51.6913C131.19 52.4471 131.047 53.1108 130.951 53.6712C130.855 54.2316 130.796 54.6888 130.766 55.0058C130.766 55.1706 130.748 55.3349 130.715 55.4962C130.689 55.3317 130.681 55.1647 130.693 54.9985C130.709 54.5467 130.751 54.0961 130.818 53.6491C130.896 53.085 131.025 52.414 131.109 51.6729C131.195 50.8674 131.151 50.0535 130.98 49.2617C130.65 47.821 130.01 46.4697 129.104 45.3019C128.429 44.395 127.898 43.923 127.928 43.8936Z" fill="#263238"/>
<path d="M124.174 67.0214C124.046 67.0785 123.911 67.1181 123.772 67.1393C123.615 67.1809 123.455 67.2117 123.293 67.2315C123.105 67.2573 122.891 67.2979 122.652 67.3089C122.09 67.3605 121.525 67.3605 120.963 67.3089C120.276 67.2383 119.597 67.1025 118.935 66.9034C118.277 66.6918 117.64 66.419 117.033 66.0886C116.54 65.8138 116.073 65.4968 115.636 65.141C115.444 64.9936 115.289 64.8387 115.149 64.7097C115.028 64.6008 114.914 64.4851 114.806 64.3631C114.703 64.2682 114.615 64.1589 114.544 64.0387C114.57 64.0129 114.964 64.4553 115.72 65.0341C116.162 65.3701 116.629 65.6709 117.118 65.9337C117.718 66.2492 118.345 66.512 118.991 66.719C119.641 66.9149 120.307 67.0531 120.982 67.132C121.532 67.1913 122.087 67.2085 122.641 67.1836C123.588 67.132 124.167 66.9919 124.174 67.0214Z" fill="#263238"/>
<path d="M129.848 64.9272C129.935 65.094 129.984 65.2777 129.992 65.4655C130.051 65.915 130.017 66.3717 129.893 66.8076C129.766 67.2534 129.509 67.6513 129.155 67.9505C128.886 68.1754 128.68 68.2454 128.669 68.227C128.658 68.2086 128.831 68.0869 129.063 67.8583C129.361 67.5473 129.578 67.1673 129.694 66.7523C129.989 65.7789 129.778 64.9309 129.848 64.9272Z" fill="#263238"/>
<path d="M128.849 66.2251C128.929 66.6043 128.897 66.9986 128.757 67.3599C128.617 67.7213 128.375 68.0341 128.06 68.2603C128.02 68.2197 128.363 67.8547 128.576 67.2906C128.79 66.7265 128.794 66.2288 128.849 66.2251Z" fill="#263238"/>
<path d="M125.561 54.0952C125.365 54.4255 125.146 54.741 124.904 55.0391C124.714 55.3721 124.498 55.69 124.259 55.9903C124.33 55.6012 124.497 55.2361 124.746 54.9285C124.942 54.5861 125.223 54.2993 125.561 54.0952Z" fill="#263238"/>
<path d="M112.944 45.1654C112.663 45.0005 112.391 44.8208 112.129 44.6272C110.818 43.7657 109.33 43.21 107.775 43.0012C107.45 42.9775 107.126 42.9344 106.805 42.8722C107.132 42.8271 107.463 42.8271 107.79 42.8722C109.387 43.0085 110.917 43.5784 112.214 44.5202C112.486 44.7004 112.732 44.9176 112.944 45.1654Z" fill="#263238"/>
<path d="M132.333 39.3184C131.674 39.8497 131.057 40.4329 130.49 41.0623C129.968 41.734 129.5 42.4466 129.093 43.1933C129.136 42.9422 129.222 42.7003 129.347 42.478C129.614 41.9252 129.948 41.4076 130.343 40.9369C130.738 40.4672 131.191 40.0497 131.692 39.6944C131.882 39.5331 132.1 39.4058 132.333 39.3184Z" fill="#263238"/>
<path d="M124.746 36.2803C124.779 36.3335 124.807 36.3904 124.827 36.4499C124.899 36.6168 124.957 36.7895 125 36.966C125.156 37.6231 125.156 38.3073 125 38.9643C124.771 39.9451 124.246 40.8319 123.496 41.5046C122.55 42.3062 121.344 42.7361 120.104 42.7139C118.863 42.7182 117.654 42.3211 116.657 41.582C115.862 40.9755 115.218 40.1947 114.773 39.2998C114.473 38.7006 114.262 38.061 114.146 37.4011C114.112 37.2233 114.09 37.0435 114.08 36.8628C114.069 36.7993 114.069 36.7346 114.08 36.6711C114.08 36.6711 114.12 36.9292 114.223 37.3863C114.367 38.0277 114.594 38.6474 114.898 39.2298C115.348 40.0977 115.987 40.8537 116.767 41.4419C117.728 42.1533 118.89 42.5407 120.086 42.548C121.281 42.5699 122.444 42.1617 123.363 41.3977C124.087 40.7496 124.601 39.8995 124.838 38.957C125.002 38.3207 125.025 37.6562 124.904 37.0103C124.834 36.5236 124.724 36.2876 124.746 36.2803Z" fill="#263238"/>
<g opacity="0.3">
<path opacity="0.3" d="M126.036 54.7478C126.036 54.5635 126.007 54.346 125.844 54.2538C125.793 54.2279 125.736 54.2144 125.679 54.2144C125.621 54.2144 125.564 54.2279 125.513 54.2538C125.41 54.3095 125.318 54.3846 125.243 54.475C124.81 54.9261 124.475 55.4621 124.259 56.0493L126.066 55.8908C126.055 55.5184 126.047 55.1276 126.036 54.7478Z" fill="black"/>
</g>
<g opacity="0.3">
<path opacity="0.3" d="M132.035 50.9466C131.853 49.9128 131.4 48.9458 130.722 48.1445C131.504 50.6959 131.242 52.1374 130.803 53.885L130.899 53.6417C131.404 52.6204 132.171 51.9789 132.035 50.9466Z" fill="black"/>
</g>
<path d="M128.425 136.652L127.323 153.188L120.134 153.103L119.002 135.911L128.425 136.652Z" fill="#FFBE9D"/>
<path d="M127.526 151.013V151.492C127.526 151.492 135.637 154.751 135.714 156.285L119.606 156.196L119.857 150.839C122.257 151.964 124.768 152.104 127.526 151.013Z" fill="#0957DE"/>
<path d="M121.49 152.557C121.337 152.604 121.207 152.704 121.122 152.84C121.038 152.976 121.006 153.137 121.033 153.295C121.073 153.452 121.171 153.588 121.309 153.674C121.446 153.76 121.612 153.789 121.77 153.756C121.935 153.707 122.074 153.598 122.163 153.452C122.252 153.305 122.283 153.131 122.25 152.963C122.191 152.804 122.073 152.674 121.92 152.6C121.768 152.526 121.592 152.515 121.431 152.568" fill="white"/>
<path d="M119.606 156.196L119.665 154.91L135.091 155.47C135.091 155.47 135.807 155.787 135.722 156.289L119.606 156.196Z" fill="#263238"/>
<path d="M127.585 151.536C127.585 151.614 127.187 151.647 126.799 151.905C126.412 152.163 126.202 152.484 126.132 152.454C126.062 152.425 126.18 151.967 126.656 151.673C127.131 151.378 127.603 151.451 127.585 151.536Z" fill="#263238"/>
<path d="M129.27 152.244C129.288 152.321 128.945 152.45 128.676 152.782C128.407 153.114 128.329 153.464 128.248 153.461C128.167 153.457 128.123 153.011 128.466 152.609C128.809 152.207 129.266 152.189 129.27 152.244Z" fill="#263238"/>
<path d="M130.217 154.272C130.143 154.272 130.036 153.903 130.243 153.464C130.449 153.026 130.814 152.867 130.848 152.93C130.881 152.992 130.652 153.225 130.479 153.582C130.306 153.94 130.298 154.264 130.217 154.272Z" fill="#263238"/>
<path d="M127.113 15.7185C127.529 14.6862 127.024 13.4363 126.128 12.769C125.184 12.1474 124.033 11.9235 122.924 12.1459C121.831 12.3752 120.772 12.747 119.776 13.252C119.312 12.7846 118.728 12.4552 118.089 12.3007C117.449 12.1461 116.779 12.1724 116.153 12.3766C115.527 12.5808 114.971 12.9549 114.545 13.4572C114.12 13.9594 113.843 14.57 113.744 15.2208C113.345 15.1204 112.927 15.1305 112.534 15.25C112.14 15.3694 111.787 15.5937 111.512 15.8988C111.236 16.2039 111.049 16.5782 110.97 16.9816C110.891 17.385 110.923 17.8023 111.064 18.1887L116.048 19.94L121.49 29.5259C122.295 30.212 123.321 30.5821 124.378 30.5672C125.435 30.5522 126.451 30.1531 127.235 29.4445C128.02 28.7358 128.519 27.766 128.641 26.7158C128.763 25.6657 128.499 24.6071 127.898 23.7375C128.203 23.4663 128.462 23.1476 128.665 22.7936C129.1 22.5365 129.479 22.1954 129.781 21.7904C130.083 21.3853 130.301 20.9242 130.424 20.434C130.907 18.2993 129.255 15.9692 127.113 15.7185Z" fill="#263238"/>
<path d="M123.813 35.6828C123.503 34.1232 123.289 33.054 123.293 33.0651C123.297 33.0761 126.243 31.9221 126.029 27.8186C125.926 25.7761 125.148 22.5574 124.425 19.9471C123.776 17.5949 121.582 15.003 119.263 15.7514L112.232 19.1802C111.528 19.4088 111.407 20.0725 111.573 20.7914V21.1601L114.305 32.4641L115.459 37.5152C115.704 38.5523 116.33 39.4598 117.211 40.0589C118.093 40.658 119.167 40.9054 120.222 40.7522C120.798 40.6712 121.352 40.4733 121.848 40.1707C122.345 39.868 122.775 39.467 123.111 38.9923C123.448 38.5176 123.683 37.9791 123.804 37.41C123.925 36.8409 123.928 36.2531 123.813 35.6828Z" fill="#FFBE9D"/>
<path d="M124.399 22.6756C124.429 22.8065 124.407 22.9436 124.338 23.0589C124.27 23.1741 124.16 23.2587 124.031 23.295C123.965 23.3132 123.897 23.3181 123.83 23.3092C123.763 23.3004 123.699 23.2781 123.64 23.2436C123.582 23.2092 123.531 23.1633 123.491 23.1088C123.451 23.0543 123.423 22.9922 123.407 22.9263C123.378 22.796 123.4 22.6593 123.468 22.5447C123.537 22.43 123.647 22.3462 123.776 22.3106C123.841 22.2919 123.909 22.2865 123.976 22.2948C124.043 22.3032 124.108 22.3251 124.166 22.3593C124.224 22.3934 124.275 22.4391 124.315 22.4935C124.355 22.5479 124.384 22.6098 124.399 22.6756Z" fill="#263238"/>
<path d="M124.078 21.8902C124.027 21.9713 123.581 21.7686 123.035 21.8902C122.489 22.0119 122.143 22.3658 122.069 22.3105C121.995 22.2552 122.069 22.152 122.22 21.9898C122.423 21.7754 122.687 21.6287 122.976 21.5695C123.261 21.508 123.559 21.5403 123.824 21.6616C124.031 21.7464 124.101 21.857 124.078 21.8902Z" fill="#263238"/>
<path d="M119.046 23.8851C119.075 24.0154 119.053 24.1521 118.985 24.2668C118.916 24.3814 118.806 24.4652 118.677 24.5008C118.614 24.5193 118.547 24.5251 118.481 24.5176C118.415 24.5102 118.351 24.4898 118.293 24.4576C118.235 24.4253 118.184 24.3819 118.143 24.3299C118.102 24.2778 118.072 24.2181 118.054 24.1542C118.025 24.0234 118.046 23.8862 118.115 23.771C118.183 23.6557 118.294 23.5712 118.423 23.5348C118.487 23.5164 118.554 23.5108 118.62 23.5185C118.686 23.5261 118.75 23.5469 118.808 23.5795C118.866 23.6121 118.917 23.6559 118.957 23.7083C118.998 23.7608 119.028 23.8209 119.046 23.8851Z" fill="#263238"/>
<path d="M118.777 23.1918C118.729 23.2729 118.279 23.0664 117.733 23.1918C117.188 23.3172 116.841 23.6637 116.767 23.6121C116.694 23.5605 116.767 23.4536 116.919 23.2877C117.122 23.0752 117.386 22.9299 117.674 22.871C117.959 22.8105 118.256 22.8414 118.522 22.9595C118.718 23.048 118.803 23.1476 118.777 23.1918Z" fill="#263238"/>
<path d="M121.553 26.6574C121.823 26.5083 122.11 26.3919 122.408 26.3108C122.545 26.2666 122.674 26.2113 122.677 26.1118C122.658 25.9651 122.595 25.8277 122.497 25.7173L121.859 24.7365C120.967 23.3392 120.288 22.1815 120.344 22.1557C120.399 22.1299 121.17 23.2249 122.062 24.6223L122.685 25.6103C122.807 25.7616 122.874 25.9504 122.873 26.1449C122.862 26.198 122.839 26.2479 122.807 26.2913C122.774 26.3346 122.733 26.3702 122.685 26.3956C122.613 26.4338 122.536 26.4623 122.456 26.4804C122.165 26.5803 121.861 26.6398 121.553 26.6574Z" fill="#263238"/>
<path d="M123.293 33.0655C121.428 33.487 119.483 33.3823 117.674 32.7632C117.674 32.7632 119.606 35.285 123.503 34.0794L123.293 33.0655Z" fill="#EB996E"/>
<path d="M118.869 22.4101C118.832 22.5686 118.268 22.5649 117.626 22.7235C116.985 22.882 116.476 23.1217 116.373 22.9963C116.329 22.9373 116.402 22.7825 116.598 22.6276C116.858 22.4089 117.166 22.2559 117.497 22.1815C117.826 22.1036 118.168 22.1036 118.497 22.1815C118.758 22.2294 118.895 22.3363 118.869 22.4101Z" fill="#263238"/>
<path d="M123.868 20.1501C123.78 20.2976 123.308 20.2607 122.762 20.3677C122.217 20.4746 121.785 20.6589 121.656 20.552C121.597 20.4967 121.656 20.3566 121.815 20.1833C122.058 19.9786 122.352 19.8435 122.666 19.7925C122.975 19.7303 123.295 19.7532 123.592 19.8589C123.817 19.9621 123.905 20.0764 123.868 20.1501Z" fill="#263238"/>
<path d="M113.969 16.5407C114.051 16.9401 114.219 17.3166 114.463 17.6435C114.706 17.9704 115.019 18.2397 115.378 18.4322C115.737 18.6247 116.135 18.7358 116.542 18.7574C116.949 18.779 117.356 18.7108 117.733 18.5574C118.316 18.3215 118.92 17.879 119.51 18.0929C120.1 18.3067 120.344 19.1473 120.908 19.4607C121.737 19.9253 122.751 19.1215 123.677 19.2026C124.414 19.2653 124.971 19.8294 125.542 20.3087C126.114 20.788 126.903 21.1493 127.548 20.8027C127.4 20.187 127.181 19.5907 126.895 19.0257C126.607 18.4569 126.13 18.0059 125.546 17.75C125.221 17.621 124.871 17.5767 124.561 17.4182C123.894 17.079 123.595 16.3121 123.112 15.7333C122.795 15.3685 122.396 15.0846 121.947 14.9051C121.498 14.7255 121.013 14.6556 120.532 14.7009C119.735 14.782 118.979 15.1839 118.176 15.1507C117.582 15.1249 117.014 14.8595 116.421 14.8705C115.267 14.8705 114.4 15.9029 113.759 16.8651" fill="#263238"/>
<path d="M117.855 17.3848C117.324 17.3442 116.24 17.2336 115.883 16.8576C115.519 16.4512 115.056 16.1474 114.538 15.9766C114.02 15.8057 113.467 15.7739 112.933 15.8842C112.403 16.0421 111.938 16.3659 111.606 16.808C111.275 17.25 111.093 17.7869 111.09 18.3397C110.444 18.4971 109.854 18.8258 109.38 19.2911C108.906 19.7564 108.567 20.341 108.398 20.9832C108.227 21.6554 108.221 22.3593 108.381 23.0343C108.542 23.7092 108.864 24.3351 109.32 24.8581C109.541 25.135 109.743 25.427 109.925 25.7319C109.675 26.042 109.455 26.3754 109.268 26.7274C108.424 28.5929 110.714 29.3082 110.714 29.3082C110.714 30.5617 111.875 30.5543 112.616 30.5507C113.357 30.547 113.766 32.5268 114.345 32.4494L113.759 26.3402C113.845 26.3736 113.936 26.3911 114.028 26.3918C115.425 26.4177 115.06 23.7705 114.611 23.0736C115.027 22.5554 115.378 21.9883 115.658 21.3851C115.911 20.4628 115.928 19.4918 115.709 18.5609C116.177 18.5019 118.084 17.3995 117.855 17.3848Z" fill="#263238"/>
<path d="M113.943 26.6648C113.896 26.4706 113.8 26.2917 113.664 26.1447C113.529 25.9977 113.358 25.8875 113.169 25.8241C112.979 25.7608 112.777 25.7465 112.58 25.7827C112.383 25.8188 112.199 25.9041 112.044 26.0306C111.676 26.3477 111.48 26.8786 111.702 27.7671C112.299 30.1415 114.559 29.0539 114.544 28.9875C114.529 28.9211 114.201 27.6455 113.943 26.6648Z" fill="#FFBE9D"/>
<path d="M113.593 28.2686C113.593 28.2686 113.56 28.3092 113.497 28.3571C113.41 28.4239 113.3 28.4543 113.191 28.4419C112.918 28.4124 112.605 28.0732 112.487 27.6418C112.431 27.4403 112.419 27.2288 112.454 27.0224C112.457 26.9423 112.481 26.8642 112.521 26.7948C112.561 26.7255 112.618 26.667 112.686 26.6242C112.731 26.6001 112.783 26.5924 112.832 26.6025C112.882 26.6126 112.927 26.6399 112.959 26.6796C113.007 26.7349 113.003 26.7865 113.018 26.7902C113.033 26.7938 113.058 26.7349 113.018 26.6427C112.99 26.588 112.944 26.544 112.889 26.5173C112.811 26.4858 112.723 26.4858 112.645 26.5173C112.553 26.5613 112.473 26.628 112.413 26.7111C112.353 26.7942 112.315 26.8912 112.303 26.9929C112.255 27.2251 112.264 27.4654 112.328 27.6934C112.369 27.9075 112.473 28.1047 112.626 28.2602C112.779 28.4156 112.974 28.5225 113.187 28.5672C113.257 28.5701 113.326 28.5573 113.39 28.5298C113.454 28.5024 113.51 28.461 113.556 28.4087C113.604 28.3276 113.604 28.2723 113.593 28.2686Z" fill="#EB996E"/>
<path d="M126.674 23.3503C126.674 23.3503 126.892 23.1844 127.194 22.8157C127.611 22.2845 127.867 21.6447 127.931 20.9723C127.98 20.5133 127.935 20.0491 127.799 19.6081C127.641 19.1023 127.349 18.6487 126.954 18.2956C126.498 17.8973 125.946 17.6251 125.352 17.5062C124.759 17.3872 124.144 17.4254 123.57 17.6172C123.459 17.6541 123.356 17.7094 123.253 17.7536C123.149 17.7979 123.057 17.8642 122.961 17.9195L122.814 18.0007V17.8384C122.811 17.5528 122.705 17.2779 122.515 17.0642C122.321 16.8567 122.083 16.6955 121.818 16.5923C121.318 16.3836 120.763 16.3422 120.237 16.4743C119.219 16.7066 118.356 17.1711 117.542 17.267C116.903 17.378 116.245 17.2465 115.698 16.8983C115.554 16.7989 115.429 16.674 115.329 16.5296C115.27 16.43 115.241 16.3747 115.248 16.371C115.382 16.5531 115.545 16.7114 115.731 16.8393C116.27 17.15 116.902 17.256 117.512 17.1379C117.937 17.058 118.352 16.9345 118.751 16.7692C119.219 16.5819 119.7 16.4255 120.189 16.301C120.461 16.235 120.742 16.2065 121.022 16.2162C121.318 16.2318 121.609 16.2992 121.881 16.4153C122.163 16.5357 122.415 16.717 122.618 16.9462C122.836 17.1958 122.959 17.5144 122.965 17.8458L122.818 17.7647L123.124 17.5877C123.238 17.5435 123.345 17.4845 123.463 17.4439C124.068 17.2366 124.717 17.1933 125.345 17.3182C125.972 17.4432 126.556 17.7321 127.035 18.1555C127.45 18.5309 127.754 19.013 127.913 19.5491C128.078 20.1174 128.101 20.7178 127.978 21.2967C127.855 21.8757 127.591 22.4153 127.209 22.8673C127.087 23.0059 126.95 23.1297 126.799 23.236C126.762 23.2791 126.72 23.3175 126.674 23.3503Z" fill="#455A64"/>
<path d="M126.195 15.0142C125.953 14.8914 125.695 14.8032 125.428 14.7525C125.123 14.7108 124.813 14.7398 124.521 14.8373C124.143 14.9529 123.815 15.1917 123.588 15.5157L123.496 15.6447L123.441 15.4972C123.248 15.044 122.938 14.6503 122.543 14.3567C122.148 14.0632 121.681 13.8803 121.192 13.8271C120.423 13.7981 119.665 14.018 119.031 14.4538C118.491 14.8059 117.917 15.1024 117.317 15.3387C116.903 15.4951 116.458 15.5483 116.019 15.4935C115.902 15.4719 115.787 15.4399 115.676 15.3977C115.602 15.3645 115.562 15.3461 115.565 15.3387C115.569 15.3313 115.731 15.3866 116.03 15.4161C116.454 15.4426 116.879 15.3733 117.272 15.2133C117.855 14.9591 118.414 14.6531 118.943 14.299C119.269 14.0964 119.615 13.9272 119.975 13.7939C120.371 13.6495 120.794 13.5953 121.214 13.6353C121.737 13.6924 122.234 13.8903 122.654 14.2077C123.073 14.5252 123.399 14.9505 123.595 15.4382H123.452C123.705 15.0918 124.067 14.84 124.48 14.723C124.794 14.632 125.125 14.6156 125.446 14.6751C125.65 14.7137 125.845 14.7886 126.021 14.8963C126.085 14.9271 126.143 14.9669 126.195 15.0142Z" fill="#455A64"/>
<path d="M121.339 27.7489C121.253 27.6769 121.153 27.6239 121.045 27.5934C120.937 27.5629 120.823 27.5556 120.712 27.572C120.582 27.5997 120.46 27.6544 120.353 27.7325C120.245 27.8106 120.156 27.9104 120.089 28.0254C120.089 28.0254 120.071 28.0439 120.067 28.0549C120.016 28.1391 119.993 28.2371 120.001 28.3351C120.017 28.4419 120.059 28.5432 120.123 28.6299C120.187 28.7167 120.272 28.7864 120.369 28.8329C120.525 28.9119 120.702 28.9408 120.875 28.9157C121.047 28.8907 121.208 28.8128 121.335 28.6928C121.456 28.5654 121.523 28.3969 121.524 28.2216C121.525 28.0462 121.459 27.8772 121.339 27.7489Z" fill="#0957DE"/>
<path d="M121.523 28.8957C121.494 28.8957 121.461 28.7851 121.361 28.6339C121.241 28.4312 121.062 28.2703 120.848 28.1727C120.634 28.0751 120.395 28.0456 120.163 28.0882C119.982 28.1141 119.872 28.1657 119.861 28.1399C119.85 28.114 119.934 28.0256 120.133 27.9555C120.394 27.8717 120.676 27.8874 120.926 27.9998C121.178 28.1119 121.377 28.3165 121.483 28.5712C121.56 28.7629 121.549 28.892 121.523 28.8957Z" fill="#263238"/>
<path d="M113.999 29.3528C113.999 29.3528 114.105 29.5371 113.965 29.8173C113.886 29.985 113.747 30.1166 113.575 30.186C113.467 30.2245 113.352 30.2375 113.239 30.224C113.126 30.2106 113.017 30.1711 112.922 30.1086C112.825 30.0496 112.743 29.969 112.682 29.8731C112.621 29.7772 112.584 29.6685 112.572 29.5556C112.561 29.3735 112.614 29.1933 112.723 29.0468C112.915 28.8034 113.128 28.7961 113.128 28.8182C113.128 28.8403 112.966 28.903 112.837 29.1242C112.762 29.2481 112.731 29.3935 112.749 29.5371C112.762 29.6213 112.794 29.7014 112.842 29.7721C112.89 29.8427 112.952 29.9022 113.025 29.9464C113.097 29.9924 113.178 30.0228 113.263 30.0355C113.347 30.0482 113.433 30.0429 113.516 30.0201C113.652 29.9714 113.769 29.8811 113.851 29.762C113.995 29.5334 113.969 29.3528 113.999 29.3528Z" fill="#0957DE"/>
<path d="M112.756 29.2087C112.774 29.2087 112.756 29.334 112.583 29.4152C112.498 29.4505 112.404 29.4608 112.313 29.4448C112.223 29.4287 112.138 29.387 112.07 29.3246C112.003 29.2622 111.954 29.1816 111.93 29.0925C111.907 29.0034 111.909 28.9094 111.938 28.8216C111.974 28.7219 112.043 28.6374 112.133 28.5819C112.284 28.4898 112.398 28.5266 112.395 28.5487C112.391 28.5709 112.306 28.5967 112.214 28.6888C112.169 28.7455 112.141 28.8143 112.135 28.8866C112.128 28.9589 112.143 29.0315 112.178 29.0952C112.213 29.159 112.265 29.2111 112.329 29.2451C112.394 29.2791 112.466 29.2933 112.538 29.2861C112.664 29.2603 112.73 29.1939 112.756 29.2087Z" fill="#0957DE"/>
<path d="M116.808 61.9523C116.808 61.9523 125.937 62.4832 131.334 62.5311C135.512 62.5717 137.377 61.4619 138.21 58.7742C138.911 56.5215 137.407 52.1968 137.407 52.1968C134.579 52.1968 132.835 52.6023 131.017 53.454L131.5 55.4302L116.782 56.6985L116.808 61.9523Z" fill="#FFBE9D"/>
<path d="M134.568 57.539C134.172 57.0243 133.709 56.5643 133.192 56.1712C132.638 55.8319 132.04 55.569 131.415 55.3896C131.612 55.3613 131.813 55.3789 132.002 55.4412C132.465 55.5508 132.905 55.7445 133.299 56.0127C133.694 56.2817 134.035 56.6217 134.306 57.0155C134.512 57.3178 134.59 57.528 134.568 57.539Z" fill="#EB996E"/>
<path d="M113.468 53.439C113.468 53.439 110.643 54.1173 108.568 55.5036L110.78 61.4985C111.517 63.4673 113.77 64.448 115.573 63.4157C118.349 61.8266 119.33 57.1959 119.33 57.1959L122.379 43.9673L117.324 40.8003L113.486 53.439" fill="#FFBE9D"/>
<path d="M117.306 40.8005L117.512 36.45L116.38 32.0257C116.318 31.7824 116.288 31.4764 116.487 31.3289C116.586 31.2532 116.708 31.214 116.832 31.2181C116.957 31.2221 117.076 31.2691 117.169 31.351C117.475 31.6681 118.95 35.5356 118.95 35.5356C118.95 35.5356 121.188 34.1936 121.586 34.1272C121.984 34.0609 122.482 35.2665 122.515 35.3587C122.53 35.6288 122.53 35.8996 122.515 36.1698C122.515 36.1698 123.898 36.2103 124.023 36.3984C124.124 36.7825 124.177 37.1775 124.182 37.5745C124.182 37.5745 124.768 37.7625 124.86 38.2049C124.952 38.6474 125.144 39.3774 124.86 39.5396C124.576 39.7018 124.001 40.0189 124.001 40.0189C124.001 40.0189 123.769 42.2753 123.706 42.4817C123.643 42.6882 122.349 43.9565 122.349 43.9565L117.306 40.8005Z" fill="#FFBE9D"/>
<path d="M112.601 63.5042C112.601 63.5042 112.738 63.5853 113.025 63.6774C113.446 63.8094 113.891 63.8447 114.327 63.7807C115.027 63.6808 115.683 63.3783 116.214 62.9106C116.916 62.2739 117.509 61.5266 117.969 60.6984C118.24 60.2116 118.469 59.7021 118.651 59.1758C118.843 58.5965 119.002 58.0069 119.127 57.4097C119.415 56.1673 119.728 54.8289 120.06 53.4058C120.723 50.5632 121.468 47.3851 122.272 43.96V43.9342H122.29C122.545 43.6834 122.799 43.429 123.054 43.1636C123.179 43.0309 123.304 42.8981 123.422 42.7617C123.481 42.6917 123.544 42.6216 123.592 42.5516C123.629 42.4822 123.651 42.4054 123.654 42.3267C123.754 41.5893 123.831 40.8261 123.913 40.0555V40.0076L123.957 39.9855L124.661 39.591C124.713 39.5578 124.794 39.5209 124.827 39.4915C124.862 39.4596 124.886 39.4167 124.893 39.3698C124.91 39.2475 124.91 39.1234 124.893 39.0011C124.858 38.7307 124.802 38.4633 124.727 38.201C124.602 37.9717 124.391 37.8008 124.141 37.7254L124.078 37.7033V37.6406C124.078 37.4268 124.056 37.2056 124.031 36.988C124.021 36.8791 124.005 36.7708 123.983 36.6636C123.974 36.6164 123.959 36.5705 123.938 36.5272C123.938 36.5014 123.938 36.5272 123.916 36.5051C123.896 36.4946 123.875 36.4859 123.854 36.4793C123.41 36.3826 122.958 36.332 122.504 36.3281H122.408V36.2322C122.408 36.0037 122.408 35.7493 122.408 35.4949C122.393 35.4081 122.363 35.3245 122.32 35.2478C122.283 35.1594 122.239 35.0746 122.194 34.9861C122.108 34.8153 122.007 34.6524 121.892 34.4994C121.84 34.4281 121.776 34.3658 121.704 34.3151C121.677 34.2925 121.645 34.2783 121.61 34.2744C121.575 34.2704 121.54 34.2769 121.509 34.2929C121.33 34.3613 121.157 34.4413 120.989 34.5326C120.303 34.9013 119.632 35.27 118.976 35.6681L118.88 35.7271L118.839 35.6239C118.493 34.7501 118.146 33.8874 117.807 33.0431C117.637 32.6191 117.472 32.1951 117.302 31.7785C117.276 31.6851 117.224 31.6011 117.152 31.5359C117.08 31.4707 116.992 31.427 116.896 31.4098C116.808 31.3805 116.713 31.3821 116.626 31.4143C116.539 31.4464 116.465 31.5073 116.417 31.5868C116.371 31.6659 116.352 31.7576 116.362 31.8485C116.362 31.9296 116.413 32.055 116.436 32.1545C116.495 32.3684 116.55 32.5785 116.605 32.7887C116.716 33.2127 116.823 33.6293 116.933 34.0422C117.15 34.873 117.362 35.6841 117.571 36.4756V36.5014C117.497 38.0155 117.427 39.4656 117.361 40.8519V40.8445L114.002 51.7725L113.055 54.8142C112.944 55.157 112.859 55.4262 112.8 55.6142C112.741 55.8023 112.704 55.8834 112.704 55.8834C112.704 55.8834 112.723 55.7875 112.774 55.6068L113.007 54.7994C113.221 54.0879 113.527 53.0592 113.914 51.7467C114.71 49.1069 115.842 45.3389 117.21 40.7966V40.815C117.274 39.4337 117.339 37.9835 117.405 36.4645V36.4903C117.195 35.6976 116.978 34.8865 116.76 34.0607L116.428 32.8071C116.373 32.597 116.318 32.3831 116.259 32.173C116.227 32.0626 116.201 31.9506 116.181 31.8375C116.168 31.7095 116.195 31.5805 116.259 31.4688C116.327 31.3538 116.432 31.2654 116.557 31.2181C116.681 31.1819 116.812 31.1777 116.938 31.2061C117.063 31.2345 117.18 31.2944 117.276 31.3803C117.369 31.4671 117.437 31.5763 117.475 31.6974L117.98 32.962C118.323 33.8099 118.666 34.6727 119.016 35.5428L118.88 35.4949C119.54 35.1041 120.204 34.7132 120.904 34.3482C121.081 34.2557 121.263 34.1732 121.45 34.1012C121.508 34.077 121.571 34.0681 121.634 34.0754C121.697 34.0845 121.758 34.1072 121.811 34.1418C121.9 34.2055 121.978 34.2826 122.043 34.3704C122.167 34.5317 122.274 34.7045 122.364 34.8865C122.412 34.9787 122.456 35.0672 122.497 35.1594C122.549 35.257 122.584 35.363 122.6 35.4727C122.6 35.7345 122.6 35.9778 122.6 36.2101L122.508 36.1106C122.982 36.1137 123.454 36.1681 123.916 36.2728C123.948 36.2839 123.979 36.2974 124.008 36.3134C124.049 36.3354 124.082 36.3687 124.104 36.4092C124.133 36.469 124.154 36.5322 124.167 36.5972C124.189 36.7152 124.204 36.8258 124.219 36.9401C124.241 37.165 124.255 37.3862 124.267 37.6074L124.2 37.519C124.351 37.5632 124.491 37.6376 124.612 37.7378C124.733 37.8379 124.833 37.9617 124.904 38.1015C124.985 38.3817 125.044 38.6676 125.081 38.9569C125.107 39.1045 125.107 39.2554 125.081 39.403C125.065 39.4924 125.018 39.5733 124.949 39.6316C124.888 39.672 124.825 39.709 124.761 39.7422L124.06 40.1072L124.108 40.0371C124.023 40.8077 123.946 41.5635 123.843 42.3119L123.82 42.4557C123.812 42.5139 123.788 42.5687 123.75 42.6142C123.696 42.695 123.636 42.7714 123.57 42.8428C123.444 42.9829 123.319 43.1193 123.201 43.2521C122.947 43.5175 122.692 43.7719 122.434 44.0226L122.46 43.9784C121.649 47.3998 120.897 50.5779 120.222 53.4205C119.886 54.84 119.566 56.1783 119.271 57.4171C119.145 58.0188 118.982 58.6122 118.784 59.1942C118.594 59.7255 118.36 60.2398 118.084 60.7316C117.613 61.5704 117.006 62.3254 116.288 62.9659C115.741 63.4367 115.068 63.7367 114.352 63.8286C113.907 63.8884 113.454 63.843 113.029 63.6959C112.921 63.6562 112.816 63.6081 112.715 63.5521L112.601 63.5042Z" fill="#EB996E"/>
<path d="M122.519 36.1809C122.519 36.2067 122.394 36.2214 122.198 36.2288C121.95 36.2335 121.703 36.2632 121.461 36.3173C121.227 36.3748 121.011 36.4901 120.834 36.6528C120.701 36.7782 120.642 36.8851 120.613 36.874C120.583 36.863 120.613 36.7302 120.734 36.5606C120.906 36.3459 121.145 36.1953 121.413 36.133C121.671 36.0694 121.939 36.0568 122.202 36.0961C122.401 36.1219 122.519 36.1551 122.519 36.1809Z" fill="#EB996E"/>
<path d="M121.45 36.2213C121.402 36.2029 121.398 36.0886 121.45 35.9669C121.501 35.8453 121.575 35.7605 121.623 35.7789C121.671 35.7973 121.678 35.9116 121.623 36.0333C121.568 36.1549 121.487 36.2398 121.45 36.2213Z" fill="#EB996E"/>
<path d="M124.244 37.5594C123.886 37.6701 123.513 37.7212 123.138 37.7106C123.02 37.7066 122.903 37.731 122.797 37.7817C122.69 37.8324 122.598 37.9079 122.526 38.0018C122.43 38.153 122.464 38.2783 122.434 38.2857C122.405 38.2931 122.316 38.164 122.408 37.9428C122.459 37.8183 122.552 37.7153 122.67 37.6516C122.807 37.5767 122.957 37.5314 123.112 37.5188C123.489 37.4612 123.873 37.475 124.244 37.5594Z" fill="#EB996E"/>
<path d="M124.001 38.8868C124.053 38.8868 124.082 39.1596 124.067 39.4951C124.053 39.8306 123.997 40.0961 123.946 40.0961C123.894 40.0961 123.861 39.8195 123.876 39.484C123.89 39.1485 123.946 38.8831 124.001 38.8868Z" fill="#EB996E"/>
<path d="M125.531 48.8156L125.859 47.6874C125.874 47.6357 125.902 47.5889 125.941 47.5515C125.98 47.514 126.027 47.4873 126.079 47.4739C126.132 47.4605 126.186 47.4609 126.238 47.4751C126.29 47.4892 126.337 47.5167 126.375 47.5546L126.807 47.9934L127.072 46.9279C127.088 46.8663 127.122 46.8111 127.17 46.7696C127.218 46.7281 127.278 46.7024 127.341 46.6959C127.404 46.6895 127.468 46.7026 127.523 46.7336C127.579 46.7645 127.623 46.8117 127.651 46.8689L128.252 48.1298L125.531 48.8156Z" fill="white"/>
<path d="M128.259 48.6128C127.847 48.8121 127.409 48.9536 126.958 49.0331C126.522 49.1756 126.067 49.2551 125.609 49.2691C126.457 48.9281 127.35 48.7072 128.259 48.6128Z" fill="white"/>
<path d="M106.333 42.3193C106.333 42.3193 106.197 42.4594 106.005 42.7581C105.748 43.1834 105.579 43.656 105.508 44.148C105.403 44.8806 105.38 45.6226 105.441 46.3602C105.482 47.1971 105.548 48.1114 105.651 49.07C105.826 50.7071 106.086 52.334 106.429 53.9441C106.558 54.5635 106.676 55.0502 106.757 55.4189C106.794 55.5737 106.828 55.7028 106.853 55.8134C106.879 55.924 106.883 55.9535 106.883 55.9535C106.883 55.9535 106.864 55.9092 106.839 55.8207C106.813 55.7322 106.772 55.5774 106.732 55.4262C106.639 55.0834 106.514 54.5893 106.363 53.9699C106.005 52.3604 105.737 50.7318 105.563 49.0922C105.46 48.1336 105.397 47.2155 105.36 46.3786C105.304 45.6405 105.331 44.8985 105.441 44.1665C105.52 43.668 105.701 43.1912 105.972 42.7655C106.072 42.6012 106.194 42.4511 106.333 42.3193Z" fill="white"/>
<path d="M114.094 37.2981L114.01 37.3423L113.766 37.4603C113.556 37.5598 113.25 37.7073 112.885 37.9101C111.934 38.4407 111.009 39.0191 110.116 39.6429C109.062 40.3803 108.129 41.0513 107.447 41.538L106.639 42.1094L106.415 42.2606C106.389 42.2807 106.362 42.298 106.333 42.3122C106.354 42.2875 106.379 42.2663 106.407 42.2495L106.621 42.0873L107.414 41.4937C108.088 40.996 109.017 40.3029 110.072 39.5802C110.967 38.9537 111.897 38.3801 112.859 37.8621C113.228 37.6667 113.538 37.5266 113.755 37.4345L114.002 37.3312C114.076 37.3054 114.076 37.2944 114.094 37.2981Z" fill="white"/>
<path d="M131.677 39.6981C131.654 39.6853 131.633 39.6692 131.614 39.6502L131.449 39.5064C131.243 39.333 131.028 39.1717 130.803 39.0234C130.055 38.5462 129.261 38.1448 128.433 37.8252C127.607 37.4982 126.764 37.2175 125.907 36.9846C125.575 36.8924 125.31 36.826 125.122 36.7818L124.912 36.7265C124.886 36.7212 124.861 36.7125 124.838 36.7007H124.915L125.129 36.7412C125.317 36.7781 125.586 36.8371 125.918 36.9219C126.783 37.1403 127.633 37.4149 128.462 37.7441C129.295 38.0636 130.09 38.4741 130.833 38.9681C131.142 39.1774 131.425 39.4225 131.677 39.6981Z" fill="white"/>
<path d="M114.198 67.8401C114.148 67.8312 114.099 67.8151 114.054 67.7922C113.926 67.7359 113.802 67.6693 113.685 67.5931C113.487 67.4741 113.313 67.3171 113.175 67.1311C113.037 66.9451 112.938 66.7337 112.881 66.5091C112.78 66.0557 112.831 65.5816 113.025 65.1597C113.081 65.0287 113.153 64.9049 113.239 64.791C113.298 64.7136 113.339 64.6767 113.342 64.6804C113.242 64.8377 113.152 65.0015 113.073 65.1708C112.902 65.585 112.862 66.0419 112.959 66.4796C113.064 66.9118 113.327 67.2891 113.696 67.5378C114.002 67.759 114.205 67.8253 114.198 67.8401Z" fill="white"/>
<path d="M113.025 63.8472C113.104 63.9935 113.162 64.1498 113.198 64.3117C113.256 64.4668 113.291 64.6295 113.302 64.7947C113.218 64.6518 113.158 64.4961 113.125 64.3338C113.064 64.1784 113.031 64.0139 113.025 63.8472Z" fill="white"/>
<path d="M118.01 146.511L129.255 146.455L129.052 107.577L128.945 68.0279L113.707 67.8325L110.968 72.9942C109.847 75.0693 109.133 77.3392 108.863 79.6822C108.678 81.474 110.02 87.2993 110.485 88.7741L114.677 102.069L118.01 146.511Z" fill="#263238"/>
<path d="M132.245 68.0759L144.603 101.763C145.336 103.934 145.579 106.239 145.316 108.515C145.052 110.79 144.289 112.979 143.081 114.925L128.731 142.946L120.664 132.851L132.669 107.78L122.088 90.6175L123.868 68.1275L128.853 68.0464L132.245 68.0759Z" fill="#263238"/>
<path d="M127.92 79.3618C127.92 79.3618 127.92 79.4208 127.92 79.5351C127.92 79.6494 127.939 79.8264 127.953 80.0439C127.979 80.4974 128.012 81.15 128.057 81.9943C128.141 83.7013 128.259 86.1531 128.425 89.18C128.591 92.2069 128.731 95.8164 128.916 99.8351C129.004 101.841 129.1 103.946 129.196 106.129C129.266 107.235 129.236 108.341 129.248 109.447C129.259 110.553 129.248 111.718 129.248 112.876C129.248 122.141 129.277 130.528 129.288 136.608C129.288 139.639 129.288 142.094 129.288 143.801C129.288 144.646 129.288 145.302 129.288 145.759C129.288 145.973 129.288 146.128 129.288 146.268C129.288 146.408 129.288 146.441 129.288 146.441C129.288 146.441 129.288 146.382 129.288 146.268V145.759C129.288 145.302 129.288 144.653 129.266 143.801C129.266 142.094 129.236 139.642 129.214 136.612C129.189 130.532 129.155 122.144 129.118 112.879C129.118 111.722 129.118 110.579 129.118 109.451C129.118 108.322 129.141 107.209 129.071 106.132C128.978 103.953 128.886 101.848 128.801 99.8425C128.632 95.8312 128.477 92.2217 128.352 89.1837C128.226 86.1457 128.134 83.705 128.064 81.9979C128.035 81.1573 128.012 80.5011 127.998 80.0439C127.998 79.8264 127.998 79.6752 127.998 79.5351C127.998 79.395 127.92 79.3618 127.92 79.3618Z" fill="#455A64"/>
<path d="M127.636 68.7397C127.679 68.8584 127.705 68.9825 127.714 69.1084C127.754 69.3444 127.799 69.6873 127.85 70.115C127.946 70.9666 128.049 72.1501 128.108 73.459C128.167 74.7678 128.171 75.955 128.152 76.814C128.152 77.2417 128.127 77.592 128.108 77.8316C128.112 77.956 128.097 78.0803 128.064 78.2003C128.018 77.7398 128.002 77.2767 128.016 76.814C128.016 75.955 127.976 74.7752 127.917 73.4663C127.858 72.1575 127.776 70.9814 127.714 70.1481C127.661 69.6805 127.635 69.2103 127.636 68.7397Z" fill="#455A64"/>
<path d="M125.159 69.4991C125.177 69.5249 124.967 69.6208 124.908 69.9194C124.891 70.0004 124.896 70.0843 124.921 70.1631C124.946 70.2419 124.991 70.3128 125.052 70.3692C125.125 70.4371 125.216 70.4825 125.314 70.5002C125.412 70.5178 125.513 70.5069 125.605 70.4688C125.693 70.4232 125.767 70.3538 125.818 70.2685C125.869 70.1831 125.894 70.0851 125.892 69.9858C125.889 69.9033 125.865 69.823 125.821 69.7526C125.778 69.6823 125.717 69.6242 125.645 69.5839C125.495 69.5113 125.328 69.4819 125.162 69.4991C125.162 69.4991 125.199 69.4512 125.295 69.4217C125.433 69.3879 125.579 69.4022 125.708 69.4622C125.811 69.5051 125.9 69.5757 125.965 69.6662C126.03 69.7567 126.069 69.8635 126.077 69.9747C126.091 70.112 126.063 70.2504 125.994 70.3704C125.926 70.4905 125.822 70.5862 125.697 70.6439C125.571 70.7017 125.431 70.7188 125.296 70.6926C125.16 70.6665 125.036 70.5985 124.941 70.4983C124.863 70.4204 124.807 70.3225 124.781 70.2152C124.754 70.108 124.757 69.9955 124.79 69.8899C124.827 69.752 124.91 69.6309 125.026 69.5471C125.1 69.4954 125.155 69.4881 125.159 69.4991Z" fill="#455A64"/>
<path d="M119.26 68.832C119.314 68.9482 119.348 69.073 119.359 69.2007C119.419 69.5317 119.43 69.8694 119.392 70.2036C119.339 70.7011 119.196 71.1847 118.968 71.6304C118.694 72.1848 118.287 72.6633 117.785 73.024C117.282 73.3846 116.698 73.6163 116.085 73.6987C115.595 73.772 115.094 73.7532 114.611 73.6434C114.283 73.5724 113.968 73.4544 113.674 73.2932C113.563 73.2407 113.461 73.171 113.372 73.0867C113.779 73.27 114.204 73.4121 114.64 73.5107C115.164 73.6197 115.706 73.6189 116.23 73.5082C116.754 73.3975 117.249 73.1793 117.685 72.8675C118.12 72.5557 118.486 72.157 118.76 71.6966C119.034 71.2362 119.209 70.724 119.274 70.1925C119.318 69.7398 119.313 69.2837 119.26 68.832Z" fill="#455A64"/>
<path d="M133.727 72.0615C133.486 72.0892 133.243 72.0602 133.015 71.9767C132.459 71.8012 131.958 71.4805 131.567 71.0476C131.171 70.6165 130.9 70.0866 130.781 69.5138C130.723 69.2802 130.723 69.0359 130.781 68.8022C130.814 68.8022 130.818 69.0714 130.929 69.4843C131.078 70.0179 131.35 70.5093 131.722 70.9195C132.095 71.3298 132.558 71.6475 133.074 71.8476C133.458 71.9988 133.731 72.0246 133.727 72.0615Z" fill="#455A64"/>
<path d="M138.118 108.377C137.933 108.588 137.712 108.764 137.466 108.897C137.207 109.061 136.925 109.186 136.629 109.266C136.256 109.364 135.863 109.354 135.497 109.236C134.853 108.993 134.301 108.555 133.919 107.983C133.743 107.768 133.598 107.53 133.487 107.275C133.686 107.465 133.867 107.673 134.026 107.898C134.417 108.417 134.946 108.817 135.552 109.052C135.862 109.135 136.185 109.153 136.501 109.107C136.818 109.061 137.123 108.95 137.396 108.783C137.628 108.634 137.87 108.499 138.118 108.377Z" fill="#455A64"/>
<path d="M135.301 110.527C134.866 110.075 134.477 109.581 134.14 109.052C133.752 108.559 133.414 108.029 133.13 107.47C133.568 107.92 133.959 108.414 134.295 108.945C134.686 109.435 135.023 109.965 135.301 110.527Z" fill="#455A64"/>
<path d="M116.41 80.663C116.358 80.6814 116.229 80.4713 116.115 80.1874C116.001 79.9035 115.953 79.6638 116.001 79.6417C116.048 79.6196 116.181 79.8334 116.292 80.1173C116.402 80.4012 116.458 80.663 116.41 80.663Z" fill="#FAFAFA"/>
<path d="M123.548 81.6878C123.492 81.6878 123.452 81.5072 123.452 81.2823C123.452 81.0574 123.492 80.873 123.548 80.873C123.603 80.873 123.643 81.0574 123.643 81.2823C123.643 81.5072 123.599 81.6878 123.548 81.6878Z" fill="#FAFAFA"/>
<path d="M120.613 85.5667C120.561 85.5667 120.502 85.3455 120.484 85.0616C120.465 84.7777 120.484 84.5491 120.543 84.5455C120.602 84.5418 120.657 84.7667 120.675 85.0506C120.694 85.3344 120.664 85.563 120.613 85.5667Z" fill="#FAFAFA"/>
<path d="M115.252 88.4055C115.208 88.4387 115.057 88.3023 114.858 88.1622C114.658 88.0221 114.489 87.9151 114.489 87.8635C114.489 87.8119 114.732 87.8414 114.957 88.0036C115.182 88.1658 115.296 88.4055 115.252 88.4055Z" fill="#FAFAFA"/>
<path d="M124.702 92.0226C124.657 91.9931 124.702 91.8346 124.827 91.6539C124.952 91.4733 125.067 91.37 125.111 91.3995C125.155 91.429 125.111 91.5912 124.985 91.7682C124.86 91.9452 124.746 92.0521 124.702 92.0226Z" fill="#FAFAFA"/>
<path d="M118.869 93.0436C118.817 93.0436 118.773 92.7375 118.773 92.3652C118.773 91.9928 118.817 91.6831 118.869 91.6831C118.92 91.6831 118.965 91.9891 118.965 92.3652C118.965 92.7412 118.909 93.0436 118.869 93.0436Z" fill="#FAFAFA"/>
<path d="M116.959 97.1801C116.93 97.2207 116.738 97.1359 116.531 96.9847C116.325 96.8335 116.163 96.6787 116.211 96.6345C116.259 96.5902 116.436 96.6787 116.642 96.8299C116.848 96.981 116.992 97.1359 116.959 97.1801Z" fill="#FAFAFA"/>
<path d="M122.865 98.6181C122.888 98.666 122.77 98.7656 122.6 98.843C122.43 98.9204 122.276 98.9389 122.253 98.8909C122.231 98.843 122.353 98.7435 122.523 98.666C122.692 98.5886 122.847 98.5702 122.865 98.6181Z" fill="#FAFAFA"/>
<path d="M118.869 105.365C118.825 105.387 118.633 105.103 118.445 104.727C118.257 104.351 118.143 104.027 118.19 103.99C118.238 103.953 118.43 104.252 118.614 104.628C118.799 105.004 118.902 105.325 118.869 105.365Z" fill="#FAFAFA"/>
<path d="M125.384 104.738C125.336 104.712 125.421 104.465 125.568 104.182C125.715 103.898 125.881 103.691 125.937 103.717C125.992 103.743 125.9 103.99 125.749 104.274C125.598 104.558 125.428 104.764 125.384 104.738Z" fill="#FAFAFA"/>
<path d="M122.526 110.449C122.471 110.449 122.478 110.151 122.419 109.804C122.36 109.457 122.272 109.181 122.324 109.155C122.375 109.129 122.552 109.391 122.611 109.774C122.67 110.158 122.578 110.46 122.526 110.449Z" fill="#FAFAFA"/>
<path d="M119.466 113.712C119.429 113.749 119.245 113.609 119.057 113.403C118.869 113.196 118.747 113.001 118.788 112.964C118.828 112.927 119.009 113.067 119.197 113.274C119.385 113.48 119.507 113.675 119.466 113.712Z" fill="#FAFAFA"/>
<path d="M126.892 114.951C126.855 114.914 126.991 114.715 127.198 114.505C127.404 114.295 127.596 114.159 127.636 114.195C127.677 114.232 127.537 114.435 127.334 114.642C127.131 114.848 126.932 114.988 126.892 114.951Z" fill="#FAFAFA"/>
<path d="M122.622 119.836C122.571 119.836 122.571 119.545 122.622 119.206C122.674 118.867 122.755 118.601 122.81 118.609C122.865 118.616 122.862 118.896 122.81 119.235C122.759 119.575 122.674 119.844 122.622 119.836Z" fill="#FAFAFA"/>
<path d="M119.75 122.207C119.702 122.233 119.54 122.041 119.381 121.779C119.223 121.517 119.142 121.285 119.186 121.259C119.23 121.233 119.392 121.421 119.555 121.683C119.717 121.945 119.794 122.177 119.75 122.207Z" fill="#FAFAFA"/>
<path d="M126.67 125.197C126.704 125.241 126.515 125.429 126.25 125.617C125.985 125.805 125.752 125.923 125.719 125.879C125.686 125.835 125.878 125.647 126.139 125.459C126.401 125.271 126.641 125.157 126.67 125.197Z" fill="#FAFAFA"/>
<path d="M120.904 129.079C120.852 129.061 120.904 128.766 120.952 128.397C121 128.029 120.97 127.726 121.026 127.719C121.081 127.712 121.177 128.021 121.14 128.416C121.103 128.81 120.952 129.101 120.904 129.079Z" fill="#FAFAFA"/>
<path d="M123.208 134.654C123.164 134.687 123.009 134.562 122.858 134.374C122.707 134.185 122.622 134.005 122.663 133.972C122.703 133.938 122.858 134.064 123.009 134.252C123.16 134.44 123.249 134.621 123.208 134.654Z" fill="#FAFAFA"/>
<path d="M120.69 138.393C120.646 138.422 120.443 138.205 120.237 137.902C120.03 137.6 119.901 137.334 119.942 137.305C119.982 137.275 120.189 137.493 120.395 137.795C120.602 138.098 120.735 138.363 120.69 138.393Z" fill="#FAFAFA"/>
<path d="M127.625 133.699C127.577 133.68 127.581 133.544 127.625 133.396C127.67 133.249 127.769 133.138 127.821 133.157C127.872 133.175 127.865 133.312 127.821 133.463C127.776 133.614 127.677 133.721 127.625 133.699Z" fill="#FAFAFA"/>
<path d="M124.565 142.603C124.517 142.577 124.609 142.315 124.683 141.987C124.757 141.659 124.783 141.383 124.838 141.379C124.893 141.375 124.949 141.674 124.871 142.028C124.794 142.382 124.609 142.632 124.565 142.603Z" fill="#FAFAFA"/>
<path d="M126.556 85.6258C126.508 85.648 126.39 85.5005 126.294 85.294C126.198 85.0876 126.158 84.9032 126.206 84.8811C126.254 84.859 126.372 85.0065 126.468 85.2129C126.563 85.4194 126.611 85.6037 126.556 85.6258Z" fill="#FAFAFA"/>
<path d="M121.45 74.1445C121.479 74.1888 121.221 74.3952 120.945 74.6902C120.668 74.9851 120.48 75.258 120.432 75.2322C120.384 75.2064 120.51 74.8635 120.801 74.5612C121.092 74.2588 121.413 74.0966 121.45 74.1445Z" fill="#FAFAFA"/>
<path d="M125.996 74.0265C125.94 74.0265 125.856 73.8163 125.726 73.5656C125.597 73.3149 125.479 73.1085 125.52 73.0716C125.561 73.0347 125.76 73.1969 125.889 73.4771C126.018 73.7574 126.044 73.997 125.996 74.0265Z" fill="#FAFAFA"/>
<path d="M111.801 77.7543C111.753 77.7321 111.801 77.4888 111.915 77.2086C112.03 76.9284 112.155 76.7109 112.207 76.733C112.258 76.7551 112.207 76.9948 112.092 77.2787C111.978 77.5625 111.864 77.7727 111.801 77.7543Z" fill="#FAFAFA"/>
<path d="M112.262 83.3213C112.225 83.3618 112.015 83.2439 111.79 83.0558C111.565 82.8678 111.421 82.6871 111.444 82.6429C111.466 82.5986 111.691 82.7203 111.915 82.9083C112.14 83.0964 112.295 83.2807 112.262 83.3213Z" fill="#FAFAFA"/>
<path d="M121.575 69.724C121.527 69.724 121.424 69.606 121.35 69.418C121.276 69.23 121.254 69.0493 121.302 69.0493C121.35 69.0493 121.453 69.1673 121.527 69.3553C121.601 69.5434 121.623 69.7056 121.575 69.724Z" fill="#FAFAFA"/>
<path d="M130.494 72.4448C130.442 72.4448 130.446 72.2125 130.494 71.9508C130.542 71.689 130.637 71.4825 130.689 71.4936C130.741 71.5046 130.737 71.7295 130.689 71.9913C130.641 72.2531 130.545 72.4559 130.494 72.4448Z" fill="#FAFAFA"/>
<path d="M132.588 76.6592C132.54 76.637 132.606 76.3642 132.739 76.0435C132.872 75.7227 133.015 75.483 133.063 75.5015C133.111 75.5199 133.063 75.7964 132.916 76.1172C132.768 76.438 132.639 76.6776 132.588 76.6592Z" fill="#FAFAFA"/>
<path d="M131.095 80.0584C131.047 80.0805 130.87 79.8261 130.7 79.4906C130.531 79.1551 130.435 78.8565 130.483 78.8343C130.531 78.8122 130.704 79.0666 130.873 79.4021C131.043 79.7376 131.143 80.0326 131.095 80.0584Z" fill="#FAFAFA"/>
<path d="M134.287 83.4579C134.24 83.4395 134.287 83.2256 134.369 82.9823C134.45 82.739 134.579 82.5546 134.63 82.573C134.682 82.5915 134.63 82.8053 134.549 83.0487C134.468 83.292 134.354 83.4763 134.287 83.4579Z" fill="#FAFAFA"/>
<path d="M131.434 86.7869C131.39 86.8164 131.275 86.7168 131.183 86.5694C131.091 86.4219 131.047 86.2744 131.095 86.2449C131.143 86.2154 131.249 86.315 131.345 86.4661C131.441 86.6173 131.478 86.7611 131.434 86.7869Z" fill="#FAFAFA"/>
<path d="M132.042 93.6593C132.005 93.6925 131.773 93.5118 131.53 93.2464C131.286 92.9809 131.12 92.7413 131.161 92.7044C131.202 92.6675 131.43 92.8519 131.673 93.1173C131.917 93.3828 132.083 93.6224 132.042 93.6593Z" fill="#FAFAFA"/>
<path d="M135.784 89.7109C135.744 89.7441 135.541 89.5597 135.335 89.2943C135.128 89.0288 134.995 88.7928 135.036 88.7597C135.076 88.7265 135.279 88.9145 135.486 89.1763C135.692 89.438 135.829 89.6814 135.784 89.7109Z" fill="#FAFAFA"/>
<path d="M137.838 95.1564C137.79 95.1343 137.875 94.8577 138.026 94.5407C138.177 94.2236 138.336 93.9803 138.395 94.0024C138.454 94.0245 138.362 94.3047 138.21 94.6218C138.059 94.9388 137.886 95.1822 137.838 95.1564Z" fill="#FAFAFA"/>
<path d="M133.473 99.6395C133.425 99.6653 133.255 99.4626 133.019 99.245C132.783 99.0275 132.566 98.8764 132.588 98.8211C132.61 98.7657 132.89 98.8653 133.148 99.1049C133.406 99.3446 133.517 99.6137 133.473 99.6395Z" fill="#FAFAFA"/>
<path d="M133.746 104.259C133.746 104.311 133.561 104.355 133.336 104.355C133.111 104.355 132.931 104.311 132.931 104.259C132.931 104.207 133.111 104.163 133.336 104.163C133.561 104.163 133.746 104.207 133.746 104.259Z" fill="#FAFAFA"/>
<path d="M138.232 102.969C138.185 102.943 138.28 102.71 138.35 102.423C138.42 102.135 138.45 101.885 138.505 101.881C138.561 101.877 138.62 102.146 138.538 102.467C138.457 102.788 138.273 102.998 138.232 102.969Z" fill="#FAFAFA"/>
<path d="M142.69 104.521C142.642 104.539 142.506 104.278 142.388 103.942C142.27 103.607 142.214 103.319 142.262 103.304C142.31 103.29 142.45 103.544 142.568 103.879C142.686 104.215 142.742 104.503 142.69 104.521Z" fill="#FAFAFA"/>
<path d="M141.978 110.862C141.934 110.836 142.048 110.527 142.233 110.169C142.417 109.811 142.601 109.542 142.657 109.568C142.712 109.594 142.59 109.904 142.402 110.258C142.214 110.612 142.026 110.895 141.978 110.862Z" fill="#FAFAFA"/>
<path d="M137.912 114.582C137.864 114.601 137.713 114.346 137.572 114.011C137.432 113.675 137.362 113.388 137.414 113.366C137.466 113.343 137.613 113.602 137.749 113.937C137.886 114.273 137.96 114.582 137.912 114.582Z" fill="#FAFAFA"/>
<path d="M133.406 116.024C133.406 116.076 133.251 116.12 133.063 116.12C132.875 116.12 132.724 116.076 132.724 116.024C132.724 115.972 132.879 115.928 133.063 115.928C133.248 115.928 133.406 115.972 133.406 116.024Z" fill="#FAFAFA"/>
<path d="M135.987 121.956C135.939 121.956 135.836 121.754 135.759 121.473C135.681 121.193 135.666 120.95 135.718 120.939C135.77 120.928 135.869 121.142 135.947 121.422C136.024 121.702 136.039 121.927 135.987 121.956Z" fill="#FAFAFA"/>
<path d="M132.724 119.965C132.68 119.94 132.724 119.766 132.846 119.578C132.968 119.39 133.089 119.261 133.133 119.287C133.178 119.313 133.133 119.49 133.012 119.678C132.89 119.866 132.772 119.995 132.724 119.965Z" fill="#FAFAFA"/>
<path d="M132.658 126.495C132.606 126.495 132.533 126.248 132.496 125.927C132.459 125.606 132.47 125.344 132.521 125.337C132.573 125.33 132.647 125.584 132.684 125.905C132.721 126.226 132.709 126.487 132.658 126.495Z" fill="#FAFAFA"/>
</svg>
