<svg width="152" height="153" viewBox="0 0 152 153" fill="none" xmlns="http://www.w3.org/2000/svg">
<path d="M126.934 126.096H139.539V122.084H126.934V126.096Z" fill="#EBEBEB"/>
<path d="M31.1897 74.0361H43.7949V70.0244H31.1897V74.0361Z" fill="#EBEBEB"/>
<path d="M133.964 131.151C136.058 131.119 141.425 131.029 143.447 131.004H146.57L146.405 131.165V127.154L146.584 127.333C144.49 127.333 139.152 127.308 137.13 127.279L133.979 127.24L134.065 127.154L133.979 131.165L133.964 131.151ZM133.964 131.151L133.882 127.139V127.057H133.968C135.542 127.035 138.7 126.999 140.27 126.985L146.573 126.96H146.752V127.139V131.151V131.316H146.591H143.411C141.403 131.294 136.062 131.201 133.986 131.165L133.964 131.151Z" fill="#EBEBEB"/>
<path d="M90.2079 40.9815C92.3016 40.9492 97.6685 40.8596 99.6905 40.8345H102.813L102.648 40.9959V36.9841L102.827 37.1634C100.734 37.1634 95.3955 37.1383 93.3735 37.1096L90.2222 37.0702L90.3082 36.9841L90.2222 40.9959L90.2079 40.9815ZM90.2079 40.9815L90.1218 36.9805V36.8981H90.2079C91.7817 36.8766 94.9402 36.8407 96.5105 36.8264L102.813 36.8013H102.992V36.9805L102.974 40.9923V41.1572H102.813H99.6331C97.6255 41.1357 92.2836 41.0425 90.2079 41.0066V40.9815Z" fill="#EBEBEB"/>
<path d="M97.2381 46.0401C99.3318 46.0079 104.699 45.9182 106.721 45.8931H109.843L109.682 46.0545L109.664 42.0427L109.843 42.222C107.75 42.222 102.411 42.1969 100.389 42.1682L97.2381 42.1288L97.3242 42.0427L97.2381 46.0545V46.0401ZM97.2381 46.0401L97.1521 42.0284V41.9459H97.2381C98.812 41.9244 101.97 41.8886 103.541 41.8742L109.843 41.8491H110.023V42.0284V46.0401V46.205H109.861H106.681C104.674 46.1835 99.3319 46.0903 97.2561 46.0545L97.2381 46.0401Z" fill="#EBEBEB"/>
<path d="M104.24 40.9849H116.845V36.9731H104.24V40.9849Z" fill="#EBEBEB"/>
<path d="M5.43088 131.154H18.0361V127.143H5.43088V131.154Z" fill="#EBEBEB"/>
<path d="M12.4609 7.27051L25.0662 7.27051V3.25877L12.4609 3.25877V7.27051Z" fill="#EBEBEB"/>
<path d="M5.43053 12.3259C7.52423 12.2901 12.8911 12.2005 14.9132 12.179H18.0358L17.8709 12.3403V8.32854L18.0501 8.5078C15.9564 8.5078 10.6182 8.4827 8.59618 8.45402L5.44487 8.41458L5.51657 8.29986L5.43053 12.3116V12.3259ZM5.43053 12.3259L5.34448 8.29986V8.2174H5.43053C7.00439 8.19589 10.1593 8.16004 11.7332 8.1457L18.0358 8.12061H18.215V8.29986V12.3116V12.4765H18.0537H14.8737C12.8661 12.4514 7.52065 12.3618 5.44845 12.3259H5.43053Z" fill="#EBEBEB"/>
<path d="M126.934 7.26717C129.027 7.23132 134.394 7.14528 136.416 7.12018H139.539L139.374 7.28151V3.26977L139.553 3.44902C137.46 3.44902 132.121 3.42393 130.099 3.39525L126.948 3.35581L127.034 3.26977L126.948 7.28151L126.934 7.26717ZM126.934 7.26717L126.848 3.25543V3.17297H126.934C128.508 3.15146 131.666 3.11561 133.236 3.10127L139.539 3.07617H139.718V3.25543L139.7 7.26717V7.43209H139.539H136.359C134.351 7.40699 129.009 7.31736 126.934 7.28151V7.26717Z" fill="#EBEBEB"/>
<path d="M125.417 50.6866L124.266 56.6451C124.168 57.2429 123.95 57.8145 123.624 58.3252C123.298 58.8358 122.871 59.2747 122.37 59.6151C121.869 59.9556 121.304 60.1904 120.709 60.3054C120.114 60.4204 119.502 60.4131 118.91 60.284C118.319 60.1693 117.756 59.9392 117.253 59.6068C116.751 59.2744 116.319 58.8462 115.983 58.3467C115.646 57.8472 115.411 57.2863 115.292 56.6959C115.172 56.1056 115.17 55.4974 115.286 54.9063L117.125 45.3735C117.143 45.2839 117.236 45.3018 117.254 45.2086C117.178 45.101 117.178 45.101 117.196 45.0078C117.457 43.8338 118.157 42.8041 119.153 42.1301C120.149 41.4561 121.366 41.1888 122.553 41.3832C128.325 42.4946 133.885 38.8163 134.982 33.1375C136.094 27.3655 132.286 21.9734 126.511 20.8585C124.732 20.5094 122.893 20.6348 121.178 21.2219C119.463 21.8091 117.933 22.8374 116.741 24.2034C116.343 24.6674 115.857 25.0476 115.311 25.3218C114.765 25.596 114.17 25.7587 113.56 25.8004C112.95 25.8421 112.338 25.762 111.76 25.5648C111.182 25.3675 110.648 25.0571 110.191 24.6515C109.741 24.2531 109.374 23.7694 109.112 23.2284C108.851 22.6874 108.699 22.0999 108.665 21.4997C108.632 20.8996 108.718 20.2988 108.918 19.7321C109.119 19.1654 109.429 18.6441 109.833 18.1983C111.965 15.7465 114.674 13.8629 117.714 12.7168C120.755 11.5708 124.033 11.1982 127.253 11.6325C130.474 12.0669 133.536 13.2945 136.164 15.2052C138.793 17.1158 140.905 19.6496 142.312 22.5789C143.719 25.5081 144.376 28.741 144.225 31.987C144.073 35.233 143.117 38.3905 141.443 41.1756C139.769 43.9607 137.429 46.2863 134.633 47.9433C131.838 49.6003 128.675 50.5368 125.428 50.6687L125.417 50.6866ZM121.545 70.7632L121.226 72.4124C121.126 73.009 120.906 73.579 120.58 74.088C120.253 74.597 119.826 75.0342 119.325 75.3732C118.824 75.7122 118.26 75.9458 117.666 76.0599C117.072 76.174 116.461 76.1662 115.87 76.0369C114.68 75.8053 113.631 75.1113 112.952 74.1073C112.274 73.1032 112.021 71.871 112.249 70.6808L112.564 69.0316C112.815 67.8519 113.513 66.8151 114.512 66.1392C115.51 65.4633 116.732 65.2008 117.921 65.4071C118.511 65.516 119.075 65.7416 119.577 66.0707C120.08 66.3999 120.512 66.8259 120.848 67.3239C121.184 67.8219 121.418 68.382 121.535 68.9713C121.652 69.5606 121.651 70.1673 121.531 70.7561L121.545 70.7632Z" fill="#EBEBEB"/>
<path d="M18.5269 71.4838L17.0929 65.5863C16.9364 65.0023 16.9002 64.3927 16.9863 63.7942C17.0724 63.1958 17.2791 62.6211 17.5938 62.1049C17.9085 61.5887 18.3248 61.1418 18.8173 60.7912C19.3099 60.4406 19.8685 60.1936 20.4593 60.0653C21.6372 59.781 22.8799 59.9753 23.9148 60.6057C24.9497 61.2361 25.6925 62.251 25.9804 63.4281L28.2748 72.8605C28.2963 72.9501 28.2031 72.9717 28.2246 73.0649C28.3394 73.1294 28.3394 73.1294 28.3609 73.2226C28.6124 74.3983 28.4045 75.6257 27.7799 76.653C27.1552 77.6802 26.1612 78.4296 25.0016 78.7473C23.6507 79.0593 22.3747 79.6349 21.2467 80.4411C20.1188 81.2472 19.1609 82.2681 18.4282 83.4451C17.6955 84.6221 17.2023 85.9321 16.9768 87.3001C16.7514 88.6681 16.7981 90.0672 17.1144 91.4171C18.5054 97.1281 24.2093 100.448 29.9276 99.0605C31.6908 98.6391 33.3118 97.7604 34.6273 96.5129C35.9427 95.2654 36.9061 93.6932 37.4205 91.9548C37.5889 91.3675 37.8727 90.8197 38.2552 90.3433C38.6377 89.8669 39.1113 89.4715 39.6483 89.1801C40.1853 88.8888 40.7749 88.7073 41.3829 88.6463C41.9908 88.5854 42.6047 88.6461 43.1889 88.825C43.7625 88.9993 44.2958 89.2854 44.7583 89.6668C45.2208 90.0483 45.6032 90.5174 45.8835 91.0473C46.1637 91.5772 46.3364 92.1574 46.3914 92.7543C46.4464 93.3512 46.3827 93.9532 46.204 94.5254C45.2844 97.6421 43.6049 100.482 41.3164 102.789C39.0278 105.096 36.2019 106.798 33.0926 107.742C29.9833 108.687 26.6881 108.844 23.503 108.2C20.3179 107.556 17.3428 106.13 14.845 104.052C12.3472 101.973 10.405 99.3062 9.19289 96.2912C7.98079 93.2761 7.53679 90.0071 7.90079 86.778C8.26479 83.5489 9.42538 80.4608 11.2783 77.7912C13.1312 75.1216 15.6183 72.9543 18.5162 71.4838H18.5269ZM13.7013 51.6223L13.3034 49.9911C13.1464 49.4069 13.1097 48.7968 13.1955 48.198C13.2814 47.5991 13.488 47.024 13.8028 46.5074C14.1175 45.9908 14.534 45.5435 15.0268 45.1927C15.5197 44.8418 16.0786 44.5948 16.6698 44.4664C17.8483 44.1823 19.0913 44.3771 20.1263 45.0082C21.1613 45.6393 21.9038 46.6551 22.1909 47.8328L22.5888 49.4641C22.8511 50.6406 22.6473 51.873 22.0202 52.9024C21.3932 53.9319 20.3917 54.6784 19.226 54.9851C18.6422 55.1344 18.0345 55.1654 17.4385 55.0764C16.8425 54.9874 16.2704 54.7802 15.7557 54.4669C15.241 54.1536 14.7941 53.7405 14.4413 53.252C14.0885 52.7635 13.8369 52.2094 13.7013 51.6223Z" fill="#EBEBEB"/>
<path d="M103.035 152.647H63.9827C63.6601 151.389 63.3481 150.137 63.0362 148.936C62.6777 147.535 62.3192 146.169 61.993 144.839C61.9213 144.541 61.8388 144.244 61.7671 143.953C61.509 142.93 61.2568 141.937 61.0107 140.974C60.8601 140.382 60.7131 139.805 60.5697 139.232C60.4263 138.658 60.2721 138.074 60.1287 137.514C60.0893 137.364 60.0534 137.217 60.014 137.073C59.9746 136.93 59.9351 136.751 59.8957 136.593C59.8562 136.435 59.7953 136.206 59.7487 136.016C59.6913 135.815 59.6447 135.614 59.5945 135.417C59.4942 135.041 59.4009 134.671 59.3113 134.309C59.1715 133.775 59.0388 133.252 58.9098 132.739C58.856 132.517 58.7951 132.294 58.7413 132.076C58.6481 131.717 58.5584 131.359 58.476 131.032C58.415 130.807 58.3613 130.584 58.3075 130.366C58.0744 129.469 57.8629 128.627 57.6622 127.856C57.6084 127.648 57.5582 127.444 57.5044 127.247C57.422 126.888 57.3359 126.58 57.257 126.261C57.2033 126.063 57.1531 125.87 57.11 125.683C56.9344 125.009 56.7766 124.396 56.644 123.855C56.6045 123.712 56.5687 123.575 56.5364 123.439C56.4468 123.081 56.3608 122.769 56.2926 122.485C56.264 122.371 56.2389 122.263 56.2102 122.163C56.1815 122.062 56.1528 121.948 56.1277 121.851C56.1026 121.754 56.0955 121.715 56.0811 121.654C56.0668 121.593 56.0309 121.467 56.0094 121.388C56.0032 121.348 55.9936 121.309 55.9807 121.27C55.9198 121.037 55.8911 120.912 55.8911 120.912H93.8933C93.8933 120.912 95.1445 125.214 97.1486 132.183C97.5537 133.599 97.9947 135.127 98.4643 136.751C99.8087 141.372 101.361 146.789 103.035 152.647Z" fill="#37474F"/>
<path d="M70.3787 152.647H69.4036C67.9695 146.672 66.5689 140.679 65.2018 134.668C64.8744 133.208 64.5505 131.746 64.2303 130.283C64.2016 130.143 64.1729 130.011 64.1406 129.871C64.1406 129.857 64.1452 129.844 64.1535 129.833C64.1619 129.823 64.1736 129.815 64.1868 129.812C64.2 129.809 64.2139 129.81 64.2263 129.815C64.2387 129.821 64.249 129.83 64.2554 129.842C64.2554 129.889 64.2804 129.932 64.2948 129.975C64.7358 131.545 65.1767 133.119 65.6069 134.693C67.2561 140.662 68.83 146.649 70.3787 152.647Z" fill="#263238"/>
<path d="M92.6708 120.897L90.993 129.294L89.6234 136.181L87.286 147.922L87.0422 149.123L86.6406 151.127L86.3395 152.647H63.9791C63.6612 151.385 63.347 150.148 63.0362 148.937C62.6777 147.535 62.3192 146.169 61.993 144.839C61.9213 144.541 61.8388 144.244 61.7671 143.953C61.509 142.93 61.2568 141.937 61.0107 140.974C60.8601 140.383 60.7131 139.805 60.5697 139.232C60.4263 138.658 60.2721 138.074 60.1287 137.514C60.0893 137.364 60.0534 137.217 60.014 137.073C59.9746 136.93 59.9351 136.751 59.8957 136.593C59.8562 136.435 59.7953 136.206 59.7487 136.016C59.6913 135.815 59.6447 135.614 59.5945 135.417C59.4942 135.041 59.4009 134.671 59.3113 134.309C59.1715 133.775 59.0388 133.252 58.9098 132.739C58.8524 132.513 58.7951 132.295 58.7413 132.076C58.6481 131.717 58.5584 131.359 58.476 131.033C58.415 130.807 58.3613 130.584 58.3075 130.366C58.0744 129.469 57.8629 128.627 57.6622 127.856C57.6084 127.648 57.5582 127.444 57.5044 127.247C57.422 126.888 57.3359 126.58 57.257 126.261C57.2033 126.064 57.1531 125.87 57.11 125.684C56.9344 125.01 56.7766 124.397 56.644 123.855C56.6045 123.712 56.5687 123.576 56.5364 123.439C56.4468 123.081 56.3608 122.769 56.2926 122.486C56.264 122.371 56.2389 122.263 56.2102 122.163C56.1815 122.063 56.1528 121.948 56.1277 121.851C56.1026 121.754 56.0955 121.715 56.0811 121.654C56.0668 121.593 56.0309 121.467 56.0094 121.389C56.0032 121.348 55.9936 121.309 55.9807 121.27C55.9198 121.037 55.8911 120.912 55.8911 120.912L92.6708 120.897Z" fill="#263238"/>
<path d="M92.6782 120.872V120.89C92.6782 121.094 92.5169 123.364 92.1512 126.823C92.0472 127.831 91.9253 128.939 91.7927 130.129C91.5704 132.004 91.2908 134.072 90.9502 136.259C90.3658 140.074 89.6058 144.236 88.6127 148.305C88.2542 149.768 87.8957 151.22 87.4655 152.64L38.3996 152.658C38.3996 152.658 36.9656 149.955 37.091 148.524C37.5392 142.788 40.8948 120.89 40.8948 120.89L85.3933 120.872H92.6782Z" fill="#37474F"/>
<path d="M88.1895 125.389C88.1358 127.146 88.0605 128.899 87.9458 130.645C87.8274 132.542 87.6554 134.431 87.408 136.32C87.4032 136.39 87.3948 136.459 87.3829 136.528C87.1499 138.299 86.8881 140.067 86.587 141.827C86.3038 143.473 86.0958 145.244 85.3681 146.764C85.0929 147.351 84.7028 147.878 84.2208 148.313C83.7779 148.716 83.2362 148.996 82.6505 149.123C82.5552 149.147 82.4581 149.164 82.3601 149.173H82.2777C82.2949 149.184 82.3089 149.2 82.3183 149.218C82.3278 149.236 82.3323 149.256 82.3315 149.277C82.31 149.868 82.3315 150.467 82.2598 151.048C82.2598 151.073 82.2598 151.098 82.2598 151.123C82.1988 151.632 82.1056 152.138 82.0124 152.643H81.1699C81.1699 152.643 81.1699 152.622 81.1699 152.615C81.3169 152.059 81.4424 151.5 81.5786 150.94C81.7148 150.381 81.9156 149.811 82.0482 149.234C82.0596 149.217 82.0758 149.203 82.0949 149.194C81.5607 149.22 81.0314 149.082 80.5783 148.798C80.1251 148.514 79.7698 148.098 79.5602 147.606C79.2769 146.853 79.406 146.072 79.5207 145.297C79.6749 144.294 79.8219 143.29 79.976 142.286C80.2629 140.44 80.6321 138.611 80.9584 136.776L81.1089 135.94C81.765 132.205 82.4534 128.469 83.2815 124.765C83.3102 124.611 83.3461 124.461 83.3783 124.307C83.3861 124.287 83.4001 124.271 83.4181 124.261C83.4361 124.25 83.4571 124.246 83.4778 124.249C83.4984 124.252 83.5175 124.262 83.532 124.277C83.5464 124.292 83.5554 124.311 83.5576 124.332C83.5325 124.579 83.5074 124.83 83.4787 125.077C83.3353 126.497 83.1656 127.913 82.9696 129.326C82.733 130.982 82.5681 132.649 82.3351 134.309C82.2562 134.872 82.1773 135.435 82.0949 136.001C81.7112 138.726 81.3169 141.454 80.8508 144.172C80.6321 145.434 79.847 147.692 81.6611 148.087C82.0777 148.176 82.5126 148.122 82.8943 147.933C83.701 147.531 84.2889 146.61 84.5829 145.799C85.0956 144.365 85.2784 142.759 85.5473 141.257C85.8461 139.584 86.1102 137.919 86.3396 136.263C86.6372 134.18 86.9419 132.104 87.2682 130.025C87.4331 128.964 87.6004 127.905 87.7701 126.848L88.0067 125.379C88.0103 125.257 88.1895 125.285 88.1895 125.389Z" fill="#263238"/>
<path d="M49.151 138.439C51.1956 138.417 53.2296 138.141 55.2062 137.618C56.1168 137.385 57.0167 137.091 57.913 136.801C58.7983 136.553 59.6274 136.137 60.3544 135.575C61.7311 134.388 62.3729 132.516 62.968 130.86C63.6242 128.985 64.1548 127.069 64.5562 125.124C64.5777 125.027 64.7175 125.059 64.7175 125.149C64.7679 127.344 64.4912 129.535 63.8965 131.649C63.4018 133.441 62.7385 135.445 61.2902 136.704C59.7629 138.027 57.705 138.496 55.7404 138.729C53.5481 138.985 51.3319 138.955 49.1474 138.64C49.1286 138.63 49.1128 138.616 49.1018 138.598C49.0909 138.58 49.0853 138.559 49.0857 138.538C49.0861 138.517 49.0924 138.497 49.104 138.479C49.1155 138.462 49.1318 138.448 49.151 138.439Z" fill="#263238"/>
<path d="M45.7523 125.192C45.6412 127.938 42.8842 143.892 42.6082 149.324C42.5616 150.295 44.5298 151.675 44.4796 152.647H43.5582C43.6228 151.697 41.6653 150.338 41.7262 149.388C42.0848 143.921 45.3114 127.928 45.5157 125.185C45.5167 125.154 45.53 125.124 45.5529 125.102C45.5758 125.081 45.6062 125.069 45.6376 125.07C45.669 125.071 45.6987 125.085 45.7202 125.108C45.7417 125.13 45.7533 125.161 45.7523 125.192Z" fill="#263238"/>
<path d="M84.4753 60.2405C92.8752 66.6615 122.374 90.3555 123.105 101.588C123.704 110.708 114.436 112.852 108.621 108.554C100.734 102.713 85.8448 83.2928 79.8397 69.1962C76.5235 61.4057 76.2188 53.9272 84.4753 60.2405Z" fill="#F7A9A0"/>
<path d="M89.2184 89.2694L112.464 78.7758C112.464 78.7758 90.38 61.4812 82.4461 58.2295C73.5228 54.5691 73.6016 59.9324 77.0684 68.422C80.5352 76.9115 89.2184 89.2694 89.2184 89.2694Z" fill="#0957DE"/>
<path d="M112.464 78.7758L89.2148 89.2694C89.2148 89.2694 80.5352 76.9115 77.0756 68.422C73.6159 59.9324 73.5299 54.5691 82.4532 58.2295C82.9014 58.4159 83.3997 58.6454 83.9411 58.9143L84.6007 59.2728C87.5728 60.8466 91.5415 63.4566 95.5532 66.253L95.7719 66.4072C98.934 68.6228 102.118 70.9495 104.842 72.9787L105.986 73.8391C109.8 76.6893 112.464 78.7758 112.464 78.7758Z" fill="#0957DE"/>
<path d="M112.464 78.7758L89.2148 89.2694C89.2148 89.2694 80.5352 76.9115 77.0756 68.422C73.6159 59.9324 73.5299 54.5691 82.4532 58.2295C82.9014 58.4159 83.3997 58.6454 83.9411 58.9143L84.6007 59.2728C87.5728 60.8466 91.5415 63.4566 95.5532 66.253L95.7719 66.4072C98.934 68.6228 102.118 70.9495 104.842 72.9787L105.986 73.8391C109.8 76.6893 112.464 78.7758 112.464 78.7758Z" fill="#0957DE"/>
<path d="M108.08 75.4058C107.829 75.3434 107.576 75.2944 107.32 75.2588C107.989 75.828 108.738 76.2966 109.543 76.6499L109.937 76.8184L108.08 75.4058ZM76.5918 57.2544C76.3299 57.3409 76.0867 57.4759 75.8748 57.6523C76.0217 57.7312 76.1687 57.8029 76.3193 57.8746C77.1143 58.2526 77.9595 58.5146 78.8289 58.6526C78.1533 58.0828 77.4 57.612 76.5918 57.2544ZM92.5742 80.2816C92.2777 79.4548 91.8661 78.6739 91.3517 77.962C91.514 79.7157 92.132 81.3965 93.1443 82.8378C93.0786 81.9627 92.8866 81.1017 92.5742 80.2816ZM85.7912 67.2389C84.9636 67.532 84.1824 67.9425 83.4716 68.4579C84.3472 68.3858 85.2079 68.1891 86.0278 67.8735C86.8559 67.5799 87.6371 67.1681 88.3474 66.651C87.4716 66.7238 86.6108 66.9218 85.7912 67.2389Z" fill="white"/>
<path d="M107.33 76.1228C106.47 76.363 99.1743 79.5179 97.604 80.2385C96.0338 80.9591 89.5841 83.8236 88.021 84.7235C88.0058 84.7297 87.9937 84.7417 87.9873 84.7568C87.9809 84.7719 87.9808 84.789 87.987 84.8042C87.9932 84.8194 88.0051 84.8315 88.0203 84.8379C88.0354 84.8443 88.0524 84.8444 88.0676 84.8382C89.7598 84.2718 96.274 81.3822 97.8873 80.6831C99.5006 79.984 106.653 76.6964 107.391 76.2268C107.452 76.1873 107.391 76.1085 107.33 76.1228Z" fill="#263238"/>
<path opacity="0.1" d="M95.5067 86.4302L89.2148 89.2696C89.2148 89.2696 80.5352 76.9118 77.0756 68.4222C74.5194 62.159 73.806 57.5952 77.1903 57.104L95.5067 86.4302Z" fill="black"/>
<path d="M94.9294 123.521L40.2708 124.955C40.2708 124.955 37.5784 122.17 37.9871 118.886C39.4964 106.757 58.7807 64.2487 66.2808 59.14C69.64 56.8527 76.8353 55.0637 80.8363 58.0644C87.0529 62.7251 93.2265 96.0272 96.7506 114.824C97.7581 120.205 94.9653 123.468 94.9294 123.521Z" fill="#EBEBEB"/>
<path d="M66.6109 61.8795C68.511 65.0021 71.1245 67.6802 74.0966 69.358C75.5988 70.2077 77.2192 70.8422 78.8648 70.8386C79.7321 70.8881 80.5912 70.6472 81.3062 70.1539C81.9734 69.5682 82.4752 68.8179 82.7618 67.9777C83.1269 67.0023 83.3514 65.9798 83.4286 64.9411C83.5309 63.7562 83.5561 62.5658 83.5039 61.3775C83.5039 61.3309 83.5649 61.3381 83.5649 61.3775C83.6187 62.5068 83.7513 63.6326 83.7262 64.7619C83.7214 65.7512 83.595 66.7361 83.3498 67.6945C83.1207 68.5858 82.7066 69.4188 82.1344 70.1396C81.5448 70.8315 80.7144 71.2736 79.8113 71.3764C78.0904 71.631 76.305 71.129 74.6774 70.3009C73.0578 69.4568 71.5777 68.3686 70.2892 67.0743C68.7744 65.5581 67.5034 63.8166 66.5212 61.9117C66.4854 61.8615 66.5714 61.8185 66.6109 61.8795Z" fill="#263238"/>
<path d="M67.826 57.0571C67.826 57.0571 70.1205 76.8398 70.3786 86.0213C70.6368 95.2027 67.826 147.251 67.826 147.251C67.826 147.251 45.4513 142.996 42.6585 142.257C39.8657 141.519 32.2832 134.176 32.2832 134.176C32.2832 134.176 49.8001 70.9387 67.826 57.0571Z" fill="#0957DE"/>
<path d="M65.5064 65.052C65.1296 65.8472 64.8688 66.6924 64.732 67.5616C65.8512 66.2004 66.5985 64.5725 66.901 62.8364C66.3338 63.5054 65.8643 64.2513 65.5064 65.052ZM55.1096 97.5045C54.7314 98.2994 54.4694 99.1446 54.3316 100.014C54.9011 99.3441 55.3708 98.5955 55.7262 97.7913C56.1015 96.9955 56.3622 96.1506 56.5006 95.2817C55.932 95.9529 55.4613 96.7013 55.1024 97.5045H55.1096ZM47.6167 132.151C47.2387 132.946 46.9767 133.791 46.8387 134.661C47.4097 133.992 47.8796 133.243 48.2334 132.438C48.6102 131.643 48.871 130.797 49.0077 129.928C48.4385 130.599 47.9677 131.347 47.6095 132.151H47.6167ZM67.6754 129.785C67.2989 130.58 67.0381 131.425 66.901 132.294C67.4689 131.624 67.9374 130.875 68.2921 130.072C68.4789 129.66 68.6429 129.239 68.7832 128.81C68.7832 128.498 68.8119 128.182 68.8298 127.863C68.3718 128.458 67.9822 129.103 67.6682 129.785H67.6754ZM47.9322 111.056C47.1377 110.678 46.2923 110.417 45.4226 110.282C46.7852 111.397 48.415 112.139 50.1514 112.433C49.4777 111.872 48.7282 111.408 47.925 111.056H47.9322ZM56.8197 80.2816C56.5232 79.4548 56.1116 78.6739 55.5972 77.962C55.6704 78.8377 55.8684 79.6985 56.1851 80.5182C56.4787 81.3463 56.8905 82.1275 57.4077 82.8378C57.3321 81.9617 57.1317 81.1009 56.8125 80.2816H56.8197ZM67.575 108.808C67.2785 107.982 66.8669 107.201 66.3525 106.489C66.4243 107.362 66.6186 108.222 66.9297 109.041C67.2233 109.869 67.6351 110.651 68.1522 111.361C68.0799 110.487 67.8831 109.627 67.5679 108.808H67.575ZM40.3282 140.053C40.3508 140.405 40.3999 140.755 40.4752 141.099C40.7333 141.272 40.9771 141.429 41.2137 141.573C40.9734 141.034 40.674 140.525 40.321 140.053H40.3282ZM37.184 122.037C36.9847 121.5 36.745 120.979 36.467 120.478C36.3881 120.732 36.3057 120.987 36.2268 121.234C36.32 121.593 36.4312 121.93 36.5531 122.274C36.8496 123.101 37.2611 123.882 37.7756 124.594C37.7011 123.717 37.4994 122.856 37.1769 122.037H37.184ZM57.906 141.272C57.0792 141.568 56.2983 141.98 55.5864 142.494C56.4621 142.421 57.3229 142.223 58.1426 141.906C58.9707 141.612 59.7519 141.201 60.4622 140.684C59.584 140.756 58.7207 140.954 57.8988 141.272H57.906ZM57.2893 121.195C56.461 121.488 55.6796 121.9 54.9698 122.417C55.8441 122.343 56.7034 122.145 57.5224 121.829C58.3519 121.537 59.1344 121.125 59.8455 120.607C58.9666 120.684 58.1033 120.887 57.2822 121.209L57.2893 121.195ZM68.1415 88.0971C67.3147 88.3937 66.5338 88.8052 65.8219 89.3197C66.6973 89.2463 67.5578 89.0495 68.3781 88.7353C69.0897 88.4769 69.7694 88.1376 70.4037 87.7243V87.5379C69.6266 87.6356 68.8645 87.8283 68.1343 88.1115L68.1415 88.0971Z" fill="white"/>
<path d="M80.8362 58.0576C83.5035 61.3774 87.4758 80.7657 87.7483 82.7447C88.0207 84.7237 96.0765 144.936 96.0765 144.936C96.0765 144.936 101.002 140.042 101.382 138.439C101.762 136.837 96.5712 107.83 94.1692 97.035C91.4589 84.8456 87.2607 67.11 84.4249 62.9083C82.4531 59.9613 80.8362 58.0576 80.8362 58.0576Z" fill="#0957DE"/>
<path d="M86.3251 67.0562C86.1458 67.1171 85.9666 67.1745 85.7909 67.239C85.3175 67.4146 84.8563 67.6218 84.4106 67.8592L84.529 68.3109C85.0376 68.1984 85.5382 68.0523 86.0275 67.8736L86.5438 67.6656L86.3251 67.0562ZM93.04 121.209L92.9002 121.263C92.9325 121.489 92.9647 121.715 92.9934 121.941L93.2766 121.844C94.105 121.551 94.8864 121.139 95.5962 120.621C94.7205 120.695 93.8597 120.893 93.04 121.209ZM95.5066 140.766C95.5066 140.892 95.5424 141.01 95.5568 141.125C95.7856 140.99 96.0059 140.842 96.2164 140.68C95.9784 140.696 95.7415 140.725 95.5066 140.766ZM90.8459 97.5045C90.4689 98.2996 90.2081 99.1448 90.0715 100.014C91.1851 98.6502 91.9262 97.021 92.2226 95.2853C91.6672 95.9579 91.2087 96.7049 90.8603 97.5045H90.8459Z" fill="white"/>
<path d="M55.6618 67.0956C40.3426 85.5912 23.2058 111.759 27.7696 118.685C32.8569 126.401 54.9627 108.737 55.5614 107.468C56.2318 106.034 62.4664 89.3162 66.1518 72.631C70.1959 54.3255 59.4477 62.5139 55.6618 67.0956Z" fill="#F7A9A0"/>
<path d="M29.0887 119.542C34.5775 123.249 49.721 124.82 75.5732 120.292C79.1584 119.664 71.9451 94.7298 68.0911 95.1959C63.2369 95.791 44.5262 99.1395 43.1889 99.5733C31.903 103.115 25.3673 117.026 29.0887 119.542Z" fill="#F7A9A0"/>
<path d="M61.4412 97.2681C61.4412 97.2681 63.0079 96.7769 70.8557 92.8405C76.2799 90.1194 91.2406 86.9573 103.921 98.3687C108.783 102.743 107.836 108.049 101.982 104.417C97.8695 101.846 95.2201 99.7203 93.6391 99.2507C93.6391 99.2507 96.1307 106.26 93.6391 109.787C92.5349 111.365 89.4158 115.595 86.5154 118.546C85.9055 118.188 85.3188 117.791 84.7587 117.359C83.6576 118.665 82.2097 119.634 80.5821 120.152C78.9544 120.671 77.2133 120.72 75.5593 120.292L61.4412 97.2681Z" fill="#F7A9A0"/>
<path d="M76.4482 91.0693C79.5279 91.8652 86.0313 93.6614 90.8389 96.9812C96.1771 100.667 105.473 109.206 102.709 113.114C100.684 115.982 96.8511 113.035 96.8511 113.035C96.8511 113.035 99.9487 117.373 97.5502 119.567C95.3669 121.564 92.5311 119.105 92.5311 119.105C92.5311 119.105 93.9651 122.059 91.4806 123.579C88.505 125.408 86.0062 118.918 81.3921 118.158C80.3632 118.004 76.4482 91.0693 76.4482 91.0693Z" fill="#F7A9A0"/>
<path d="M86.0025 101.972C88.7774 103.194 94.3666 107.589 96.8654 112.906C96.9192 113.028 96.8654 113.136 96.7865 113.035C93.6401 108.939 90.0068 105.24 85.9667 102.022C85.938 102 85.9703 101.957 86.0025 101.972Z" fill="#263238"/>
<path d="M82.4532 107.471C84.7369 108.772 90.2974 113.566 92.6421 119.033C92.6958 119.155 92.6421 119.259 92.556 119.159C89.6255 114.908 86.2231 111.003 82.4137 107.518C82.3743 107.496 82.4101 107.453 82.4532 107.471Z" fill="#263238"/>
<path d="M92.5419 119.158C94.1552 120.399 96.844 120.922 98.0415 118.875C98.9736 116.968 97.7869 114.698 96.7006 113.099L96.3134 112.569C97.2563 113.286 98.3067 113.946 99.4683 114.189C101.523 114.763 103.258 113.053 102.996 110.995C102.609 108.023 100.264 105.836 98.3175 103.735C96.6038 101.89 94.7521 100.179 92.7785 98.6156C94.7233 99.5395 96.6048 100.591 98.4107 101.763C99.7551 102.617 100.899 103.764 102.304 104.524C106.377 106.869 108.399 104.542 105.792 100.706C102.519 96.1706 95.2236 92.0692 89.7634 90.9829C95.3705 92.0047 102.598 95.9268 106.022 100.548C106.696 101.545 107.334 102.699 107.255 103.961C107.155 105.485 105.749 106.033 104.412 105.703C101.974 105.198 100.218 103.377 98.2171 102.05C96.8852 101.181 95.5065 100.387 94.0871 99.6696L94.2843 99.3613C95.7866 100.659 97.2157 102.039 98.5649 103.495C100.716 105.861 104.05 108.948 103.139 112.483C102.318 114.795 99.9129 114.939 98.0092 113.895C97.5587 113.671 97.1292 113.407 96.7257 113.107L96.8763 112.96C97.9948 114.641 99.1564 116.946 98.1526 118.922C96.8978 120.994 94.1659 120.442 92.5491 119.148L92.5419 119.158Z" fill="#263238"/>
<path d="M34.8356 105.754C35.7463 104.814 38.4423 101.832 42.5759 100.018C46.1825 98.4366 56.8554 96.7265 59.4833 96.54C59.5514 96.54 59.5729 96.6117 59.5084 96.6297C57.2175 97.2822 46.9605 99.0532 43.0993 100.688C40.1301 101.984 37.3685 103.712 34.9038 105.815C34.8536 105.854 34.7926 105.815 34.8356 105.754Z" fill="#263238"/>
<path d="M61.6595 93.6253L36.5637 89.1833C36.5637 89.1833 53.697 66.9879 60.584 61.8827C68.335 56.1465 69.5754 61.3593 68.3063 70.4404C67.0372 79.5215 61.6595 93.6253 61.6595 93.6253Z" fill="#0957DE"/>
<path d="M56.8125 80.2816C56.516 79.4548 56.1044 78.6739 55.59 77.962C55.6632 78.8377 55.8612 79.6985 56.1779 80.5182C56.4716 81.3463 56.8833 82.1275 57.4005 82.8378C57.3272 81.9621 57.1293 81.1013 56.8125 80.2816ZM41.8554 82.4864C41.5906 82.9055 41.3511 83.3401 41.1384 83.7878C40.7614 84.5829 40.5006 85.4281 40.364 86.2974C40.9312 85.6265 41.3996 84.878 41.755 84.0746C42.118 83.3075 42.3749 82.4946 42.5187 81.6583L41.8554 82.4864ZM65.5172 65.052C65.1403 65.8472 64.8796 66.6924 64.7428 67.5616C65.862 66.2004 66.6093 64.5725 66.9118 62.8364C66.3408 63.5047 65.8676 64.2507 65.5064 65.052H65.5172Z" fill="white"/>
<path d="M40.8658 85.168C41.7585 85.168 49.6063 86.4514 51.3056 86.7633C53.005 87.0752 59.9672 88.2798 61.7024 88.7495C61.7165 88.7529 61.7291 88.7609 61.738 88.7723C61.747 88.7837 61.7519 88.7978 61.7519 88.8122C61.7519 88.8267 61.747 88.8408 61.738 88.8522C61.7291 88.8636 61.7165 88.8716 61.7024 88.875C59.9099 88.7387 52.901 87.5413 51.1622 87.2617C49.4234 86.982 41.6868 85.5552 40.8586 85.2827C40.7726 85.2576 40.812 85.168 40.8658 85.168Z" fill="#263238"/>
<path d="M60.5159 93.3674C61.2831 93.4462 61.7564 93.4749 61.7564 93.4749C62.6204 90.0189 63.7282 86.4804 64.7392 83.0781C65.7681 79.6005 66.8903 76.1624 67.9658 72.6813C67.9658 72.6275 68.0626 72.6526 68.0483 72.7064C67.5643 74.7069 67.0767 76.7002 66.5712 78.6863C66.6787 78.4497 66.7863 78.2131 66.8903 77.9693C67.2703 77.1268 67.6682 76.2951 68.0196 75.4382C68.0483 75.3665 68.1594 75.3988 68.1343 75.4741C67.8713 76.3681 67.5491 77.2436 67.1699 78.0948C66.8938 78.6935 66.5819 79.2635 66.2593 79.8336C65.9617 80.9736 65.6749 82.1101 65.3451 83.2466C64.3412 86.7206 63.4952 90.6499 62.2225 94.0378C61.6217 93.9114 61.0309 93.7413 60.455 93.5287C60.4393 93.5171 60.4278 93.5007 60.4223 93.482C60.4168 93.4633 60.4176 93.4433 60.4245 93.425C60.4314 93.4068 60.444 93.3913 60.4605 93.3809C60.477 93.3705 60.4965 93.3657 60.5159 93.3674Z" fill="#263238"/>
<path d="M80.4385 68.3823C77.0255 69.5439 70.5221 64.7972 67.74 60.6851C67.55 60.4018 67.7042 57.2326 67.7113 53.375C67.7113 51.0304 67.6432 48.424 67.4174 46.047C67.3672 45.5595 82.6648 48.2411 82.6648 48.2411C82.6648 48.2411 81.6754 53.3607 82.0984 57.4979C82.1336 57.826 82.1996 58.1501 82.2956 58.4659C82.2956 58.5089 82.3207 58.5627 82.3314 58.6236C82.8118 60.4484 83.7368 67.2602 80.4385 68.3823Z" fill="#F7A9A0"/>
<path d="M82.6647 48.2413C82.231 50.642 82.0067 53.0759 81.9943 55.5155C74.756 58.0035 69.0377 54.146 67.7112 53.1314C67.7112 50.8512 67.6395 48.3417 67.4172 46.0508L82.6647 48.2413Z" fill="#263238"/>
<path d="M89.2008 41.5337C89.2008 41.5337 88.6379 45.065 88.8136 46.3306C88.9892 47.5961 91.61 49.1987 91.61 49.1987C91.61 49.1987 88.3296 49.9551 87.4548 49.636C86.5801 49.317 85.4006 46.8576 85.4006 46.8576C85.4006 46.8576 86.3112 50.6865 87.5516 51.0271C88.3332 51.2386 85.5834 50.9518 85.5834 50.9518C84.6804 50.7858 83.8708 50.2916 83.3104 49.5643C82.5145 48.4064 89.2008 41.5337 89.2008 41.5337Z" fill="#263238"/>
<path d="M89.9355 28.3765C90.6919 33.8725 85.4864 48.5642 81.2165 51.3391C75.025 55.3616 66.1052 54.4044 62.9969 47.2413C59.9783 40.297 67.1019 21.2708 71.759 18.8759C78.6173 15.3482 88.8205 20.2598 89.9355 28.3765Z" fill="#F7A9A0"/>
<path d="M74.9247 35.4103C74.9426 35.3745 74.9856 35.4856 74.9677 35.5251C74.5913 36.5002 74.326 37.6761 75.104 38.3215C75.129 38.343 75.104 38.3896 75.0753 38.3752C74.0392 37.841 74.412 36.2636 74.9247 35.4103Z" fill="#263238"/>
<path d="M76.165 34.686C77.7962 35.1234 76.8067 38.35 75.2974 37.9485C73.788 37.5469 74.799 34.3239 76.165 34.686Z" fill="#263238"/>
<path d="M68.9265 33.2701C68.9265 33.2306 68.8333 33.2952 68.8226 33.3382C68.5537 34.3492 68.0769 35.4606 67.073 35.5215C67.0408 35.5215 67.0264 35.5753 67.073 35.5825C68.2167 35.7582 68.8297 34.2739 68.9265 33.2701Z" fill="#263238"/>
<path d="M68.3458 31.9613C66.7719 31.3555 65.6784 34.5498 67.134 35.1091C68.5896 35.6684 69.6651 32.4633 68.3458 31.9613Z" fill="#263238"/>
<path d="M78.3126 32.2983C77.8675 32.1762 77.4163 32.0768 76.961 32.0007C76.4376 31.8931 76.0361 31.7533 75.527 31.9613C75.388 32.036 75.2775 32.1545 75.2127 32.2984C75.1479 32.4423 75.1323 32.6035 75.1685 32.7572C75.3621 33.4061 75.9644 33.6965 76.6025 33.8506C77.2227 34.0308 77.8879 33.9719 78.4668 33.6857C78.5958 33.6122 78.7005 33.5026 78.7679 33.3703C78.8354 33.238 78.8626 33.0888 78.8462 32.9413C78.8298 32.7937 78.7705 32.6542 78.6757 32.5399C78.5809 32.4256 78.4547 32.3416 78.3126 32.2983Z" fill="#263238"/>
<path d="M68.3815 28.326C68.8414 28.3714 69.3033 28.3917 69.7654 28.387C70.296 28.387 70.719 28.473 71.1994 28.179C71.3232 28.082 71.4117 27.947 71.4512 27.7947C71.4907 27.6425 71.4791 27.4815 71.4181 27.3365C71.1134 26.7306 70.4681 26.5478 69.8299 26.5012C69.1931 26.4349 68.5543 26.6074 68.0373 26.9852C67.4566 27.3688 67.7541 28.2436 68.3815 28.326Z" fill="#263238"/>
<path d="M72.1856 43.3049C71.0778 42.405 69.4035 42.0573 68.3316 41.8708C68.224 41.8171 68.1882 41.5589 68.2061 41.4442C68.2061 41.4083 68.9231 39.3541 68.9231 39.3541C68.6005 39.4079 66.9872 39.5979 67.1306 39.2107C68.3567 35.9841 69.7226 32.399 71.6227 29.4628C71.636 29.445 71.6549 29.4323 71.6764 29.4268C71.6978 29.4214 71.7205 29.4234 71.7407 29.4326C71.7608 29.4419 71.7772 29.4577 71.787 29.4776C71.7969 29.4974 71.7996 29.52 71.7948 29.5416C70.7372 32.6858 69.1347 35.6363 68.0269 38.759C68.5288 38.7303 69.3641 38.6442 69.7585 38.7769C69.8589 38.8414 68.8801 40.9459 68.8084 41.2865C68.8084 41.2865 71.0097 41.3151 72.3254 42.8782C72.6803 43.2798 72.7162 43.7315 72.1856 43.3049Z" fill="#263238"/>
<path d="M73.383 45.4273C73.0747 45.5814 72.7341 45.8252 72.3684 45.7428C72.0038 45.617 71.6693 45.4168 71.3861 45.1548C71.3803 45.1502 71.3732 45.1475 71.3658 45.147C71.3584 45.1466 71.351 45.1485 71.3447 45.1524C71.3384 45.1564 71.3335 45.1622 71.3307 45.169C71.3278 45.1759 71.3271 45.1834 71.3287 45.1907C71.4069 45.4292 71.5482 45.642 71.7375 45.8068C71.9269 45.9715 72.1573 46.0819 72.4043 46.1264C72.6254 46.1419 72.8461 46.0908 73.0378 45.9796C73.2296 45.8684 73.3835 45.7022 73.4798 45.5026C73.4906 45.4488 73.4296 45.4058 73.383 45.4273Z" fill="#263238"/>
<path d="M87.0422 41.4798C84.7154 39.8808 86.3251 30.8212 86.3251 30.8212L84.2458 35.3922C84.2458 35.3922 82.8117 33.13 82.5894 30.6922C82.4353 28.9534 83.3567 26.8991 83.9554 25.9383C83.9554 25.9383 80.105 27.9675 76.527 27.7309C75.2113 27.6448 66.3238 24.6082 66.5102 24.0525C67.0372 22.4034 72.5368 17.6961 75.283 16.9253C78.4486 16.0362 82.7042 15.5773 87.3361 19.4026C91.9681 23.228 92.2119 27.1178 92.1079 30.0325C92.004 32.9472 87.8954 42.0677 87.0422 41.4798Z" fill="#263238"/>
<path d="M84.4789 40.8059C84.4789 40.8059 89.1395 36.9519 90.9787 38.7408C92.8179 40.5298 88.3902 46.7643 85.601 47.0117C85.2431 47.0677 84.8775 47.0506 84.5263 46.9616C84.1751 46.8726 83.8456 46.7134 83.5576 46.4937C83.2695 46.274 83.0289 45.9982 82.8502 45.6831C82.6715 45.3679 82.5585 45.0199 82.5178 44.6599L84.4789 40.8059Z" fill="#F7A9A0"/>
<path d="M89.6664 40.4975C89.7058 40.4975 89.6986 40.5656 89.6664 40.5692C87.6838 40.7986 86.2856 42.1932 85.1527 43.7277C85.8697 43.215 86.6907 43.0536 87.4006 43.9284C87.4364 43.975 87.3719 44.036 87.3253 44.0109C87.0388 43.8246 86.7017 43.7315 86.3603 43.7444C86.0188 43.7572 85.6897 43.8753 85.418 44.0826C84.9678 44.4341 84.5557 44.8319 84.1883 45.2692C84.0593 45.4055 83.7975 45.2406 83.9087 45.0721C83.9158 45.0593 83.9242 45.0473 83.9338 45.0362C84.511 42.7489 87.1568 40.0493 89.6664 40.4975Z" fill="#263238"/>
<path d="M80.9548 16.2872C83.0788 16.0561 85.2251 16.137 87.3256 16.5274C89.6595 17.0078 96.5393 19.9547 97.7511 21.9445C98.9629 23.9342 97.1488 30.7423 96.862 31.7318C96.5752 32.7213 94.1409 38.4575 91.5273 39.1566C88.9138 39.8557 92.1081 29.7851 89.871 25.3252C87.6339 20.8653 80.9548 16.2872 80.9548 16.2872Z" fill="#0957DE"/>
<path opacity="0.1" d="M80.9512 16.2871C80.9512 16.2871 87.6338 20.8653 89.8673 25.3252C92.1009 29.7851 88.9065 39.8485 91.5308 39.1566C92.6817 38.8518 93.4525 38.081 94.3702 36.647C94.9188 33.5746 95.2773 28.6414 93.9078 24.6727C92.6279 20.955 89.2077 18.1371 85.1673 16.2334C83.7629 16.1329 82.3525 16.1509 80.9512 16.2871Z" fill="black"/>
<path d="M88.9278 44.8929C89.6449 42.1646 89.3581 34.1125 87.9061 29.0575C86.4541 24.0024 78.911 18.7753 77.7208 18.4455C74.8276 17.646 73.5764 18.1766 73.2107 17.7715C72.845 17.3664 76.4947 16.2263 77.4555 16.0184C78.4163 15.8105 80.9438 15.4125 82.1663 15.8642C83.3888 16.316 90.7347 19.6501 92.3947 23.8304C94.0546 28.0106 94.8791 38.4254 93.3698 40.5047C93.0113 41.0066 92.1437 41.1142 91.6382 41.824C90.9749 42.7562 90.3475 43.8855 89.7883 44.5057C89.3365 45.004 88.8669 45.1295 88.9278 44.8929Z" fill="#0957DE"/>
<path d="M87.8773 26.9997C88.6631 26.8249 89.4329 26.5851 90.1789 26.2827C90.9378 25.9846 91.6597 25.5996 92.33 25.1355C92.3766 25.0996 92.4376 25.1642 92.3946 25.2036C91.7803 25.7784 91.0784 26.2516 90.3152 26.6054C89.5503 26.9406 88.7296 27.1302 87.8952 27.1646C87.7984 27.1611 87.7913 27.0177 87.8773 26.9997Z" fill="#263238"/>
<path d="M89.8603 42.2401C90.0001 42.0752 90.1829 41.9462 90.3371 41.792C90.5141 41.6175 90.6726 41.4253 90.8103 41.2184C91.0131 40.7955 91.262 40.3963 91.5525 40.0281C91.8333 39.768 92.1438 39.5418 92.4774 39.3541C92.8707 39.1655 93.1862 38.8462 93.3701 38.4507C93.372 38.4448 93.375 38.4393 93.379 38.4346C93.383 38.4299 93.3879 38.426 93.3934 38.4232C93.3989 38.4204 93.4049 38.4186 93.411 38.4181C93.4172 38.4176 93.4234 38.4183 93.4293 38.4202C93.4351 38.4221 93.4406 38.4251 93.4453 38.4291C93.45 38.4331 93.4539 38.438 93.4567 38.4435C93.4596 38.449 93.4613 38.455 93.4618 38.4611C93.4623 38.4673 93.4616 38.4735 93.4597 38.4794C93.1873 39.2896 92.4487 39.6768 91.8644 40.2361C91.5058 40.5946 91.3338 41.0893 91.029 41.4944C90.7739 41.8941 90.3967 42.2009 89.9535 42.3692C89.8818 42.3836 89.8101 42.3011 89.8603 42.2401Z" fill="#263238"/>
<path d="M89.9177 39.0492C90.2763 38.8305 90.6348 38.6512 90.9753 38.4003C91.2962 38.1529 91.6004 37.8846 91.886 37.5972C92.1692 37.3176 92.4273 37.0128 92.7034 36.726C93.0332 36.389 93.4204 36.0843 93.7144 35.7329C93.7538 35.6863 93.8148 35.758 93.7753 35.8011C93.4562 36.1596 93.1945 36.5898 92.8862 36.9698C92.6139 37.2935 92.3204 37.5989 92.0079 37.884C91.7153 38.1618 91.3972 38.4115 91.0578 38.6297C90.7208 38.86 90.3401 39.0186 89.9393 39.0958C89.9331 39.0986 89.926 39.0989 89.9196 39.0966C89.9132 39.0942 89.908 39.0894 89.9052 39.0832C89.9023 39.0771 89.9021 39.07 89.9044 39.0636C89.9068 39.0572 89.9116 39.052 89.9177 39.0492Z" fill="#263238"/>
<path d="M89.8351 36.1167C90.5562 35.8332 91.2324 35.4467 91.8428 34.9694C92.4307 34.5034 92.9972 33.9943 93.5565 33.4888C93.5923 33.4529 93.6604 33.5067 93.6246 33.5497C93.1618 34.1827 92.6236 34.757 92.022 35.2598C91.7232 35.4985 91.3985 35.703 91.054 35.8693C90.6732 36.0281 90.2749 36.1413 89.8674 36.2063C89.8172 36.2171 89.7813 36.1382 89.8351 36.1167Z" fill="#263238"/>
<path d="M89.6237 33.2628C89.9681 33.1683 90.2908 33.0075 90.5737 32.7896C90.9036 32.5709 91.2334 32.3414 91.5525 32.1048C91.8715 31.8682 92.1727 31.6531 92.4774 31.4236C92.802 31.2127 93.0781 30.9353 93.2877 30.6098C93.3128 30.5632 93.3916 30.6098 93.3701 30.6493C93.218 31.0038 92.9933 31.3226 92.7105 31.585C92.4162 31.8917 92.0959 32.1724 91.7532 32.4239C91.4163 32.671 91.0629 32.895 90.6956 33.0943C90.3817 33.2991 90.0127 33.403 89.638 33.3919C89.6209 33.3938 89.6037 33.3888 89.5903 33.378C89.5768 33.3673 89.5682 33.3516 89.5663 33.3345C89.5644 33.3174 89.5694 33.3002 89.5801 33.2868C89.5909 33.2733 89.6066 33.2647 89.6237 33.2628Z" fill="#263238"/>
<path d="M89.9427 29.8428C90.2726 29.685 90.5988 29.5237 90.9143 29.3408C91.2298 29.158 91.5345 28.9572 91.8392 28.7565C92.144 28.5557 92.4774 28.337 92.7821 28.104C92.7916 28.0959 92.804 28.0919 92.8164 28.0929C92.8289 28.0939 92.8404 28.0998 92.8485 28.1094C92.8565 28.1189 92.8605 28.1312 92.8595 28.1436C92.8585 28.1561 92.8526 28.1676 92.8431 28.1757C92.5911 28.4635 92.3165 28.7309 92.0221 28.9752C91.727 29.2109 91.4155 29.4254 91.09 29.6169C90.7691 29.8102 90.4362 29.9826 90.0933 30.1332C89.7584 30.3058 89.3931 30.4118 89.0178 30.4451C89.0045 30.4448 88.9917 30.4405 88.9809 30.4327C88.9702 30.4249 88.9622 30.414 88.9579 30.4015C88.9535 30.389 88.9532 30.3754 88.9569 30.3627C88.9605 30.35 88.968 30.3387 88.9783 30.3303C89.2826 30.1358 89.6057 29.9725 89.9427 29.8428Z" fill="#263238"/>
<path d="M86.3466 24.7914C86.723 24.5548 87.0887 24.3217 87.483 24.1174C87.8859 23.9136 88.3001 23.7328 88.7235 23.576C89.5412 23.2525 90.3926 23.0216 91.2618 22.8877C91.3119 22.8877 91.3478 22.9522 91.294 22.9737C89.67 23.6226 88.0136 24.207 86.3932 24.8738C86.3822 24.88 86.3693 24.8816 86.3572 24.8782C86.3451 24.8749 86.3348 24.8669 86.3286 24.8559C86.3225 24.845 86.3209 24.832 86.3242 24.8199C86.3276 24.8078 86.3356 24.7976 86.3466 24.7914Z" fill="#263238"/>
<path d="M85.5112 21.9624C85.8887 21.7356 86.2903 21.5516 86.7086 21.4139C87.5921 21.1488 88.5024 20.9829 89.4226 20.9191C89.4337 20.9182 89.4448 20.9212 89.4538 20.9277C89.4629 20.9343 89.4693 20.9438 89.4719 20.9547C89.4745 20.9655 89.4731 20.9769 89.468 20.9869C89.4629 20.9968 89.4544 21.0046 89.4441 21.0087C88.5944 21.2346 87.7447 21.4425 86.913 21.7258C86.4936 21.8512 86.0818 22.0008 85.6797 22.1739C85.2854 22.3532 84.9376 22.6113 84.554 22.8085C84.5253 22.8085 84.4859 22.787 84.5074 22.7583C84.7873 22.4305 85.1283 22.1602 85.5112 21.9624Z" fill="#263238"/>
<path d="M83.6509 20.1663C84.0051 19.9364 84.3824 19.7441 84.7766 19.5927C85.5232 19.3021 86.3134 19.1397 87.1141 19.1123C87.1679 19.1123 87.1714 19.1912 87.1141 19.2019C86.3328 19.376 85.5676 19.6159 84.8268 19.919C84.4683 20.0695 84.0918 20.238 83.7261 20.4029C83.3771 20.6005 83.0181 20.78 82.6506 20.9407C82.6183 20.9407 82.6004 20.9084 82.6219 20.8869C82.9407 20.6138 83.2853 20.3725 83.6509 20.1663Z" fill="#263238"/>
<path d="M82.4965 18.2915C82.855 18.1589 83.2135 18.0478 83.572 17.933C83.9255 17.8054 84.297 17.7352 84.6727 17.7251C84.685 17.7251 84.6969 17.73 84.7056 17.7387C84.7144 17.7475 84.7193 17.7593 84.7193 17.7717C84.7193 17.7841 84.7144 17.7959 84.7056 17.8047C84.6969 17.8134 84.685 17.8183 84.6727 17.8183C83.9807 18.0657 83.2888 18.331 82.6041 18.5927C81.987 18.878 81.4017 19.2277 80.8581 19.636C80.833 19.6539 80.8007 19.636 80.8187 19.5929C81.2337 18.9997 81.8186 18.546 82.4965 18.2915Z" fill="#263238"/>
<path d="M80.6607 17.1837C81.3388 16.8792 82.069 16.7076 82.8117 16.6782C82.8655 16.6782 82.8727 16.7643 82.8117 16.7714C82.1046 16.8908 81.4194 17.1156 80.779 17.4383C80.1363 17.755 79.5293 18.1396 78.9685 18.5855C78.9398 18.607 78.8932 18.5855 78.9183 18.5425C79.3858 17.9605 79.9823 17.4953 80.6607 17.1837Z" fill="#263238"/>
<path d="M77.6207 17.4849C77.7317 17.3672 77.8515 17.2581 77.9792 17.1587C78.2387 16.9539 78.5201 16.7784 78.8181 16.6352C79.4301 16.3546 80.0692 16.1371 80.7254 15.9863C80.7827 15.9863 80.8042 16.0616 80.7469 16.076C80.1136 16.2423 79.5023 16.4829 78.9256 16.793C78.6423 16.9439 78.3703 17.1152 78.1118 17.3056C77.9863 17.3989 77.8644 17.4992 77.7533 17.6032C77.6444 17.7155 77.5242 17.8164 77.3948 17.9044C77.3868 17.908 77.378 17.9093 77.3693 17.9081C77.3606 17.907 77.3524 17.9034 77.3456 17.8978C77.3389 17.8921 77.3339 17.8847 77.3311 17.8764C77.3284 17.868 77.3281 17.8591 77.3303 17.8506C77.4021 17.7108 77.5008 17.5866 77.6207 17.4849Z" fill="#263238"/>
<path d="M75.9677 17.0834C76.1891 16.9258 76.4202 16.7821 76.6596 16.6532C76.8899 16.517 77.1295 16.3972 77.3766 16.2947C77.6347 16.1907 77.9 16.1011 78.1546 15.99C78.2155 15.9613 78.2478 16.0509 78.1833 16.076C77.9228 16.1744 77.671 16.2943 77.4304 16.4345C77.2009 16.5672 76.9715 16.6927 76.742 16.8217L76.0537 17.2125C75.8302 17.3624 75.5979 17.4989 75.3582 17.6212C75.3188 17.6212 75.2901 17.5925 75.3188 17.5603C75.5155 17.3763 75.7333 17.2163 75.9677 17.0834Z" fill="#263238"/>
<path d="M113.741 108.683C119.885 112.673 125.213 105.707 124.973 100.598C124.399 88.599 113.024 69.4079 106.312 62.8794C103.803 60.4415 88.1249 74.4199 89.5518 77.8724C91.1077 81.6331 102.308 101.251 113.741 108.683Z" fill="#F7A9A0"/>
<path d="M94.1697 86.0249C96.4426 89.1404 99.5832 93.5142 101.888 96.5329C104.541 99.9531 107.141 103.463 110.45 106.288C104.412 102.38 97.7118 92.3634 94.1697 86.0249Z" fill="#263238"/>
<path d="M90.4768 55.5621C91.054 53.2999 89.1217 48.6177 89.0643 45.3553C89.0069 42.0928 91.9324 39.1889 93.0079 39.8915C94.0835 40.5942 93.6389 42.0247 95.4171 46.5993C96.5644 49.5427 101.404 54.2356 102.885 59.8642C103.641 62.6749 89.8996 57.8279 90.4768 55.5621Z" fill="#F7A9A0"/>
<path d="M90.4768 55.5621C91.054 53.2999 89.1217 48.6177 89.0643 45.3553C89.0069 42.0928 91.9324 39.1889 93.0079 39.8915C94.0835 40.5942 93.6389 42.0247 95.4171 46.5993C96.5644 49.5427 101.404 54.2356 102.885 59.8642C103.641 62.6749 89.8996 57.8279 90.4768 55.5621Z" fill="#F7A9A0"/>
<path opacity="0.1" d="M90.4768 55.5621C91.054 53.2999 89.1217 48.6177 89.0643 45.3553C89.0069 42.0928 91.9324 39.1889 93.0079 39.8915C94.0835 40.5942 93.6389 42.0247 95.4171 46.5993C96.5644 49.5427 101.404 54.2356 102.885 59.8642C103.641 62.6749 89.8996 57.8279 90.4768 55.5621Z" fill="black"/>
<path d="M72.3864 47.6426C71.3324 50.3673 78.266 52.3965 78.266 52.3965C78.266 52.3965 76.2834 52.755 75.172 54.3575C73.8957 56.1752 76.1866 58.968 76.1866 58.968C74.9718 59.5175 73.9501 60.4193 73.254 61.5564C72.2107 63.4171 74.118 66.5756 74.118 66.5756C74.118 66.5756 72.7306 68.3 72.9744 70.4762C73.3866 74.194 78.7392 76.3056 81.7937 78.2702C85.0669 80.3747 92.9542 80.9698 94.7396 82.723L106.879 63.7398C106.879 63.7398 95.7362 49.6969 91.6349 48.3525C88.1896 47.216 73.9961 43.4839 72.3864 47.6426Z" fill="#F7A9A0"/>
<path d="M78.3484 52.339C82.3099 52.6617 86.1854 53.9308 89.9103 55.2071C89.9275 55.2133 89.9414 55.226 89.9491 55.2425C89.9569 55.259 89.9578 55.2778 89.9516 55.2949C89.9454 55.3121 89.9327 55.326 89.9162 55.3338C89.8997 55.3415 89.8809 55.3424 89.8637 55.3362C86.1747 54.0348 82.0482 53.687 78.3125 52.5362C78.2864 52.5314 78.2632 52.5165 78.248 52.4946C78.2329 52.4728 78.2271 52.4458 78.2318 52.4197C78.2366 52.3935 78.2515 52.3703 78.2734 52.3552C78.2952 52.3401 78.3222 52.3343 78.3484 52.339Z" fill="#263238"/>
<path d="M76.3911 58.7281C77.2839 58.8889 78.1517 59.1661 78.9724 59.5527C79.8615 59.9112 80.747 60.2697 81.6289 60.6569C83.3904 61.4241 85.1328 62.2344 86.856 63.0876C86.9313 63.1271 86.8919 63.2525 86.8094 63.2167C85.0527 62.4566 83.2852 61.7217 81.4963 61.0369C80.6 60.6928 79.7025 60.3558 78.8039 60.0259C77.931 59.7713 77.0893 59.4202 76.2943 58.9791C76.27 58.9608 76.2523 58.9351 76.2439 58.9058C76.2356 58.8766 76.2369 58.8454 76.2479 58.817C76.2588 58.7887 76.2787 58.7646 76.3046 58.7486C76.3304 58.7325 76.3608 58.7254 76.3911 58.7281Z" fill="#263238"/>
<path d="M74.2077 66.5972C74.9893 66.6545 75.7888 67.1385 76.4915 67.4612C77.2874 67.8269 78.0845 68.1854 78.8827 68.5367C80.4817 69.2537 82.0806 69.9708 83.7047 70.6197C83.7836 70.6555 83.7406 70.781 83.6581 70.7487C82.0054 70.0891 80.3455 69.4509 78.6999 68.7769C77.8897 68.4471 77.0866 68.1101 76.2799 67.7695C75.5952 67.4791 74.7097 67.1959 74.1683 66.6653C74.1655 66.6582 74.1644 66.6507 74.1649 66.6431C74.1655 66.6356 74.1678 66.6282 74.1715 66.6217C74.1753 66.6151 74.1806 66.6095 74.1868 66.6053C74.1931 66.601 74.2003 66.5983 74.2077 66.5972Z" fill="#263238"/>
<path d="M74.7237 73.5954C72.5045 71.5232 72.146 68.9347 74.0066 66.4646V66.7191C73.0494 65.2026 72.1711 63.238 72.9634 61.449C73.632 60.1219 74.8003 59.1148 76.2115 58.6491L76.0573 59.2191C74.1393 57.3082 73.6768 53.6622 76.5198 52.3787C76.884 52.2186 77.2736 52.124 77.6706 52.099L77.5702 52.7766C75.7777 52.1026 74.0461 51.3211 72.7196 49.9085C71.4791 48.5247 71.9093 46.7823 73.7413 46.2768C76.0035 45.6387 78.402 45.8645 80.6893 46.0653C82.5234 46.2518 84.3469 46.5306 86.153 46.9006C83.4239 46.4829 80.6681 46.2636 77.9072 46.2446C76.5498 46.2055 75.1944 46.3748 73.8883 46.7465C73.0996 46.9938 72.3862 47.5675 72.5798 48.453C73.139 50.3603 76.0537 51.4573 77.7782 52.1313L79.3771 52.6942L77.6778 52.8089C77.0532 52.8622 76.4665 53.1303 76.0174 53.5677C75.5683 54.005 75.2847 54.5844 75.2148 55.2073C74.9925 56.6952 75.8924 58.1435 76.907 59.151L76.3764 59.3123C75.1447 59.716 74.1169 60.5806 73.5083 61.7251C72.7913 63.2631 73.5872 65.0951 74.3723 66.4789L74.4584 66.6188L74.3651 66.7371C72.4615 69.0459 72.7518 71.4371 74.7237 73.599V73.5954Z" fill="#263238"/>
<path d="M113.285 122.049C113.915 122.406 114.579 122.699 115.268 122.923C115.921 123.179 116.595 123.377 117.282 123.515C117.449 123.55 117.622 123.543 117.786 123.495C117.95 123.448 118.099 123.361 118.222 123.243C118.255 123.209 118.286 123.172 118.311 123.131C118.327 123.127 118.341 123.116 118.35 123.103C118.359 123.089 118.363 123.073 118.362 123.056C118.362 123.056 118.423 123.006 118.444 122.988C118.495 122.943 118.54 122.891 118.577 122.834C118.645 122.737 118.699 122.622 118.648 122.601C118.747 122.196 118.747 121.773 118.648 121.368C118.526 120.661 118.368 119.961 118.175 119.27C117.998 118.62 117.758 117.988 117.458 117.384C117.268 117.004 117.017 116.449 116.548 116.363C116.419 116.338 116.286 116.358 116.171 116.42C116.154 116.425 116.138 116.433 116.125 116.445C116.024 116.514 115.938 116.602 115.872 116.704C115.805 116.806 115.759 116.92 115.737 117.04C115.623 117.549 115.863 118.073 116.096 118.521C116.386 119.134 116.687 119.74 116.989 120.346C116.813 120.102 116.63 119.851 116.454 119.607C115.974 118.958 115.479 118.324 114.956 117.711C114.597 117.288 114.185 116.696 113.618 116.535C113.486 116.494 113.345 116.483 113.208 116.503C113.07 116.523 112.939 116.573 112.823 116.65C112.789 116.676 112.756 116.705 112.726 116.736C112.671 116.796 112.626 116.865 112.593 116.94C112.546 117.12 112.545 117.309 112.591 117.49C112.637 117.671 112.727 117.837 112.855 117.972C113.316 118.547 113.813 119.092 114.343 119.604C114.866 120.163 115.397 120.715 115.942 121.253L116.218 121.525C115.468 121.031 114.708 120.547 113.963 120.063C113.515 119.769 112.995 119.453 112.439 119.64C112.26 119.697 112.106 119.813 112.002 119.969C111.984 119.994 111.968 120.021 111.955 120.048C111.955 120.066 111.937 120.088 111.926 120.109C111.917 120.129 111.91 120.149 111.905 120.17C111.844 120.36 111.844 120.564 111.905 120.754C112.095 121.36 112.765 121.748 113.285 122.049Z" fill="#0957DE"/>
<path opacity="0.1" d="M111.909 120.155C112.665 120.962 113.701 121.45 114.712 121.901C115.852 122.407 117.032 122.833 118.218 123.231C118.252 123.198 118.282 123.16 118.308 123.12C118.324 123.115 118.337 123.105 118.346 123.091C118.356 123.078 118.36 123.061 118.358 123.045C118.358 123.045 118.419 122.995 118.441 122.977C118.492 122.932 118.537 122.88 118.573 122.823L118.498 122.719C118.355 121.665 118.099 120.63 117.734 119.632C117.376 118.556 117.057 117.19 116.178 116.405C116.161 116.41 116.145 116.419 116.132 116.43C116.264 117.541 116.552 118.627 116.989 119.657C117.266 120.374 117.554 121.097 117.853 121.826C117.207 120.969 116.537 120.134 115.82 119.341C115.264 118.725 114.683 118.126 114.074 117.567C113.696 117.193 113.269 116.872 112.805 116.613C112.771 116.64 112.739 116.669 112.708 116.699C113.335 117.925 114.4 118.911 115.336 119.894C116.329 120.94 117.315 121.998 118.322 123.034C117.301 122.414 116.171 121.916 115.128 121.371C114.126 120.797 113.074 120.317 111.984 119.937C111.966 119.962 111.951 119.988 111.937 120.015C113.061 120.459 114.155 120.973 115.214 121.553C116.15 122.041 117.118 122.496 118.039 123.02C117.028 122.661 116.014 122.303 115.028 121.887C113.934 121.421 112.783 120.905 111.909 120.076C111.905 120.103 111.905 120.129 111.909 120.155ZM118.383 122.539L118.197 122.281C117.345 120.418 116.675 118.477 116.196 116.484C116.982 117.319 117.297 118.635 117.648 119.675C117.988 120.607 118.234 121.57 118.383 122.55V122.539ZM115.562 119.962C114.542 118.959 113.613 117.867 112.787 116.699C113.954 117.539 115.007 118.526 115.92 119.635C116.68 120.496 117.39 121.403 118.071 122.328C118.139 122.493 118.215 122.654 118.286 122.819C117.39 121.869 116.472 120.926 115.562 119.972V119.962Z" fill="black"/>
<path d="M116.964 123.694C117.837 124.37 118.767 124.969 119.742 125.487C120.176 125.702 120.818 125.074 120.534 124.486C120.409 124.221 119.215 122.192 119 121.844C118.749 121.432 117.853 122.203 117.616 122.393C117.308 122.665 116.702 123.382 116.964 123.694Z" fill="#263238"/>
<path d="M119.194 123.985C120.488 125.05 121.646 126.271 122.643 127.62C123.652 128.925 124.54 130.319 125.296 131.786C126.819 134.729 127.938 138.067 128.103 141.398C128.103 141.484 127.981 141.512 127.967 141.423C127.386 138.139 126.532 134.987 124.994 132.012C124.24 130.551 123.358 129.159 122.359 127.853C121.319 126.564 120.205 125.337 119.022 124.178C118.911 124.071 119.075 123.895 119.194 123.985Z" fill="#263238"/>
<path d="M116.386 130.1C116.819 130.236 117.265 130.328 117.716 130.377C118.149 130.449 118.586 130.483 119.025 130.48C119.131 130.479 119.235 130.451 119.329 130.401C119.423 130.35 119.503 130.278 119.563 130.19C119.58 130.166 119.595 130.139 119.606 130.111C119.614 130.107 119.621 130.099 119.624 130.09C119.628 130.08 119.627 130.07 119.623 130.061L119.666 130.004C119.694 129.973 119.715 129.936 119.727 129.896C119.76 129.824 119.778 129.749 119.727 129.742C119.738 129.482 119.686 129.224 119.573 128.989C119.405 128.573 119.215 128.161 119.01 127.763C118.82 127.383 118.593 127.023 118.333 126.687C118.164 126.479 117.942 126.171 117.641 126.182C117.56 126.183 117.481 126.212 117.419 126.264C117.409 126.269 117.4 126.277 117.394 126.286C117.288 126.397 117.23 126.545 117.232 126.698C117.268 127.022 117.409 127.326 117.634 127.562C117.892 127.899 118.154 128.233 118.419 128.562L117.992 128.179C117.616 127.845 117.232 127.519 116.831 127.214C116.565 126.945 116.23 126.755 115.863 126.666C115.776 126.658 115.688 126.67 115.606 126.7C115.524 126.731 115.45 126.779 115.389 126.842C115.371 126.861 115.355 126.883 115.343 126.906C115.314 126.949 115.295 126.998 115.289 127.05C115.283 127.165 115.306 127.281 115.357 127.385C115.408 127.489 115.484 127.578 115.579 127.645C115.936 127.937 116.311 128.207 116.702 128.451C117.096 128.727 117.49 128.996 117.892 129.254L118.096 129.383L116.53 128.781C116.381 128.696 116.215 128.646 116.044 128.636C115.873 128.625 115.702 128.654 115.544 128.72C115.441 128.777 115.361 128.869 115.318 128.978C115.309 128.996 115.302 129.014 115.296 129.032C115.295 129.045 115.295 129.058 115.296 129.072C115.295 129.086 115.295 129.1 115.296 129.115C115.285 129.239 115.313 129.364 115.375 129.473C115.572 129.835 116.035 129.982 116.386 130.1Z" fill="#0957DE"/>
<path opacity="0.1" d="M115.304 129.118C115.898 129.483 116.558 129.727 117.247 129.835C118.01 130 118.788 130.108 119.563 130.194C119.58 130.17 119.595 130.143 119.606 130.115C119.614 130.11 119.621 130.103 119.624 130.093C119.628 130.084 119.627 130.074 119.624 130.065L119.667 130.007C119.695 129.976 119.715 129.94 119.728 129.9L119.67 129.842C119.446 129.216 119.155 128.615 118.803 128.05C118.444 127.44 118.086 126.644 117.433 126.279C117.423 126.284 117.415 126.291 117.408 126.3C117.63 126.966 117.948 127.597 118.351 128.172C118.611 128.58 118.88 128.986 119.158 129.387C118.656 128.946 118.136 128.523 117.594 128.129C117.175 127.824 116.741 127.534 116.297 127.268C116.017 127.09 115.714 126.95 115.397 126.852C115.378 126.872 115.363 126.893 115.35 126.917C115.892 127.584 116.67 128.05 117.369 128.53C118.068 129.011 118.853 129.563 119.602 130.065C118.885 129.817 118.147 129.66 117.433 129.462C116.747 129.24 116.041 129.081 115.325 128.989C115.316 129.006 115.309 129.024 115.304 129.043C116.049 129.168 116.785 129.341 117.508 129.559C118.143 129.738 118.795 129.893 119.426 130.093C118.763 130.004 118.096 129.921 117.437 129.789C116.683 129.679 115.955 129.436 115.286 129.072C115.289 129.088 115.295 129.104 115.304 129.118ZM119.573 129.738C119.527 129.692 119.477 129.649 119.426 129.606C118.665 128.574 118.005 127.472 117.455 126.315C118.043 126.723 118.405 127.487 118.756 128.079C119.082 128.606 119.356 129.165 119.573 129.746V129.738ZM117.516 128.523C116.761 128.044 116.052 127.497 115.397 126.888C116.219 127.252 116.991 127.72 117.695 128.279C118.268 128.71 118.821 129.168 119.358 129.649C119.423 129.742 119.487 129.832 119.556 129.921C118.878 129.477 118.193 128.996 117.516 128.53V128.523Z" fill="black"/>
<path d="M118.857 130.631C119.479 130.924 120.124 131.164 120.786 131.348C121.08 131.424 121.391 130.958 121.144 130.631C121.033 130.484 120.036 129.398 119.864 129.197C119.692 128.996 119.205 129.556 119.086 129.714C118.968 129.871 118.663 130.474 118.857 130.631Z" fill="#263238"/>
<path d="M120.255 130.52C121.187 131.007 122.054 131.609 122.836 132.313C123.619 132.98 124.339 133.718 124.987 134.518C126.351 136.129 127.359 138.01 127.945 140.039C127.945 140.089 127.887 140.125 127.866 140.071C127.134 138.134 126.11 136.32 124.829 134.693C124.179 133.897 123.459 133.16 122.678 132.492C121.878 131.838 121.04 131.231 120.169 130.674C120.097 130.61 120.172 130.477 120.255 130.52Z" fill="#263238"/>
<path d="M145.501 133.259C144.84 133.555 144.15 133.784 143.443 133.944C142.769 134.135 142.079 134.268 141.382 134.342C141.213 134.36 141.042 134.336 140.884 134.274C140.726 134.212 140.586 134.112 140.475 133.983C140.443 133.947 140.416 133.907 140.392 133.865C140.377 133.858 140.365 133.847 140.358 133.833C140.351 133.818 140.349 133.802 140.353 133.786C140.328 133.758 140.302 133.732 140.274 133.707C140.225 133.66 140.184 133.604 140.156 133.542C140.095 133.438 140.052 133.32 140.106 133.306C140.042 132.893 140.081 132.471 140.217 132.076C140.407 131.388 140.629 130.699 140.887 130.032C141.125 129.408 141.422 128.808 141.773 128.24C141.998 127.881 142.3 127.347 142.776 127.308C142.903 127.298 143.029 127.331 143.135 127.401C143.151 127.407 143.166 127.417 143.178 127.43C143.272 127.508 143.349 127.604 143.406 127.712C143.462 127.82 143.497 127.939 143.508 128.061C143.509 128.578 143.341 129.081 143.031 129.495C142.68 130.075 142.321 130.653 141.955 131.226L142.558 130.541C143.096 129.939 143.651 129.355 144.228 128.795C144.634 128.408 145.092 127.86 145.662 127.749C145.798 127.721 145.939 127.725 146.073 127.758C146.208 127.792 146.333 127.855 146.44 127.942C146.474 127.97 146.504 128.001 146.53 128.035C146.58 128.101 146.618 128.175 146.641 128.254C146.671 128.438 146.654 128.626 146.592 128.801C146.529 128.976 146.423 129.132 146.283 129.254C145.77 129.783 145.224 130.279 144.648 130.739C144.074 131.243 143.492 131.74 142.902 132.23L142.601 132.47C143.393 132.051 144.193 131.642 144.981 131.23C145.455 130.982 146.003 130.717 146.537 130.954C146.709 131.024 146.852 131.15 146.942 131.312C146.958 131.339 146.971 131.366 146.982 131.395L147.003 131.456C147.011 131.477 147.017 131.498 147.021 131.52C147.061 131.715 147.041 131.917 146.964 132.101C146.745 132.703 146.042 133.008 145.501 133.259Z" fill="#0957DE"/>
<path opacity="0.1" d="M147.029 131.449C146.078 132.195 144.877 132.6 143.752 132.962C142.73 133.288 141.69 133.543 140.651 133.801C141.615 133.367 142.622 133.008 143.601 132.607C144.71 132.13 145.847 131.723 147.007 131.388C146.996 131.359 146.983 131.332 146.968 131.305C145.846 131.582 144.753 131.961 143.702 132.438C142.604 132.883 141.439 133.274 140.367 133.793C141.464 132.858 142.547 131.897 143.637 130.95C144.659 130.061 145.813 129.179 146.552 128.018C146.526 127.983 146.495 127.952 146.462 127.925C145.976 128.139 145.522 128.417 145.11 128.753C144.451 129.251 143.816 129.792 143.203 130.352C142.414 131.069 141.669 131.843 140.948 132.632C141.314 131.946 141.672 131.254 142.024 130.556C142.556 129.568 142.946 128.509 143.182 127.412C143.169 127.4 143.155 127.39 143.139 127.383C142.189 128.079 141.748 129.412 141.285 130.445C140.828 131.404 140.475 132.41 140.235 133.446L140.149 133.543C140.177 133.604 140.218 133.66 140.267 133.707C140.295 133.732 140.321 133.758 140.346 133.786C140.342 133.802 140.344 133.819 140.351 133.833C140.358 133.847 140.37 133.859 140.385 133.865C140.409 133.907 140.436 133.947 140.468 133.983C141.683 133.7 142.898 133.388 144.082 132.99C145.132 132.632 146.208 132.248 147.039 131.517C147.037 131.494 147.034 131.471 147.029 131.449ZM141.375 130.492C141.827 129.488 142.264 128.211 143.121 127.451C142.46 129.391 141.611 131.262 140.586 133.037L140.375 133.274C140.617 132.316 140.952 131.384 141.375 130.492ZM140.439 133.564L140.701 133.094C141.468 132.238 142.26 131.402 143.099 130.617C144.115 129.599 145.257 128.716 146.498 127.989C145.566 129.075 144.538 130.075 143.425 130.976C142.432 131.84 141.429 132.704 140.439 133.564Z" fill="black"/>
<path d="M141.676 134.55C140.744 135.14 139.763 135.649 138.743 136.07C138.291 136.242 137.714 135.557 138.048 134.995C138.198 134.744 139.582 132.843 139.84 132.51C140.131 132.123 140.948 132.965 141.167 133.188C141.436 133.478 141.966 134.263 141.676 134.55Z" fill="#263238"/>
<path d="M139.432 134.628C138.042 135.565 136.774 136.671 135.657 137.92C134.529 139.123 133.512 140.426 132.62 141.813C130.827 144.602 129.393 147.822 128.917 151.134C128.917 151.22 129.028 151.26 129.053 151.17C129.938 147.944 131.085 144.9 132.896 142.082C133.787 140.7 134.797 139.399 135.915 138.192C137.075 137.009 138.303 135.895 139.593 134.854C139.704 134.74 139.557 134.55 139.432 134.628Z" fill="#263238"/>
<path d="M140.532 118.743C140.349 119.102 138.496 120.984 137.768 121.575C137.32 121.934 136.409 121.378 136.578 120.618C136.653 120.26 137.506 117.589 137.653 117.13C137.836 116.578 139.087 117.227 139.413 117.399C139.869 117.617 140.772 118.309 140.532 118.743Z" fill="#263238"/>
<path d="M145.748 121.798C144.111 122.894 142.696 124.29 141.579 125.913C140.471 127.584 139.668 129.43 138.768 131.216C137.352 134.023 135.488 136.916 132.419 138.078C132.397 138.085 132.374 138.086 132.352 138.081C132.33 138.075 132.31 138.064 132.294 138.048C132.278 138.032 132.267 138.012 132.262 137.99C132.257 137.968 132.258 137.945 132.265 137.923C132.263 137.92 132.262 137.916 132.262 137.913C132.262 137.909 132.263 137.905 132.265 137.902C132.578 136.333 133.066 134.805 133.72 133.345C136.054 128.193 140.389 123.787 145.627 121.59C145.766 121.536 145.856 121.722 145.748 121.798Z" fill="#263238"/>
<path d="M138.023 119.675C136.795 121.263 135.768 122.995 134.965 124.834C134.137 126.628 133.472 128.493 132.978 130.406C131.992 134.245 131.569 138.44 132.286 142.383C132.29 142.403 132.301 142.42 132.316 142.433C132.332 142.445 132.351 142.452 132.371 142.452C132.39 142.452 132.41 142.445 132.425 142.433C132.44 142.42 132.451 142.403 132.455 142.383C132.254 138.4 132.408 134.496 133.409 130.614C133.9 128.707 134.558 126.847 135.377 125.057C136.248 123.275 137.224 121.546 138.299 119.88C138.381 119.7 138.137 119.539 138.023 119.675Z" fill="#263238"/>
<path d="M140.532 122.131C140.465 122.129 140.398 122.123 140.331 122.113H140.206C139.822 122.043 139.464 121.873 139.166 121.622C138.868 121.37 138.64 121.045 138.506 120.679H138.363C137.857 120.715 136.187 120.729 135.319 119.446C135.203 119.278 135.113 119.095 135.05 118.901C135.032 118.845 135.016 118.789 135.004 118.732C134.763 117.678 135.409 116.678 135.663 116.341L135.757 116.219L135.717 116.194C135.47 116.018 134.122 114.986 134.703 113.494C134.772 113.308 134.864 113.129 134.975 112.964C135.007 112.914 135.047 112.863 135.083 112.817C135.292 112.554 135.555 112.339 135.854 112.185C136.154 112.032 136.482 111.944 136.818 111.928H136.918C136.918 111.928 136.918 111.878 136.918 111.792C136.912 111.299 137.007 110.811 137.198 110.358C137.208 110.33 137.22 110.304 137.234 110.279C137.484 109.725 137.937 109.289 138.499 109.06C138.595 109.02 138.693 108.987 138.793 108.959L138.858 108.941C139.144 108.865 139.443 108.848 139.736 108.891H139.808C140.4 109.02 140.931 109.346 141.313 109.816L141.357 109.874H141.389C141.615 109.766 143.128 109.128 144.221 110.042C144.557 110.297 144.812 110.644 144.954 111.042C145.096 111.439 145.119 111.869 145.02 112.279C145.041 112.277 145.061 112.277 145.081 112.279C145.132 112.286 145.183 112.296 145.232 112.311C145.75 112.443 146.212 112.737 146.551 113.15L146.616 113.233C146.846 113.56 146.998 113.935 147.06 114.33C147.143 114.846 147.057 115.375 146.817 115.839C146.576 116.303 146.193 116.678 145.723 116.908L145.63 116.954H145.612C145.612 116.954 146.214 118.793 145.357 119.962C145.14 120.236 144.861 120.455 144.542 120.601C144.224 120.746 143.875 120.813 143.526 120.797H143.361C143.194 120.793 143.028 120.772 142.866 120.736C142.621 121.163 142.27 121.52 141.848 121.773C141.805 121.801 141.758 121.823 141.711 121.848C141.35 122.045 140.943 122.142 140.532 122.131Z" fill="#0957DE"/>
<path opacity="0.1" d="M140.622 116.929C140.622 116.392 140.59 115.856 140.525 115.323L140.482 115.377C140.299 116.481 139.97 117.557 139.504 118.575C139.267 119.141 139.005 119.697 138.729 120.245C138.654 120.385 138.586 120.529 138.51 120.672H138.367L138.532 120.364C138.844 119.761 139.134 119.152 139.396 118.524C139.805 117.493 140.131 116.431 140.371 115.348C140.367 115.34 140.364 115.331 140.364 115.321C140.364 115.312 140.367 115.303 140.371 115.294V115.273C140.371 115.255 140.371 115.237 140.371 115.219C139.522 115.967 138.606 116.637 137.636 117.219C137.055 117.599 136.474 117.976 135.886 118.342C135.603 118.517 135.316 118.7 135.022 118.894C135.004 118.838 134.988 118.782 134.976 118.725C135.216 118.582 135.46 118.446 135.693 118.302C136.259 117.944 136.822 117.585 137.385 117.227C138.415 116.567 139.41 115.855 140.368 115.093C139.396 115.43 138.392 115.674 137.395 115.918C136.829 116.054 136.263 116.187 135.7 116.327H135.65L135.743 116.205L135.703 116.18L137.306 115.818C138.331 115.57 139.357 115.309 140.378 115.043C139.661 114.921 138.944 114.792 138.209 114.728C137.474 114.663 136.643 114.699 135.854 114.67C135.85 114.669 135.847 114.666 135.844 114.663C135.842 114.659 135.841 114.655 135.841 114.651C135.841 114.647 135.842 114.642 135.844 114.639C135.847 114.635 135.85 114.633 135.854 114.631C136.639 114.535 137.433 114.529 138.22 114.613C138.902 114.658 139.579 114.755 140.246 114.903L140.124 114.807C139.258 114.361 138.365 113.972 137.449 113.642C136.922 113.459 136.374 113.283 135.847 113.161C135.556 113.089 135.262 113.032 134.972 112.975C135.004 112.925 135.044 112.874 135.079 112.828C135.923 112.998 136.75 113.238 137.553 113.545C138.319 113.812 139.065 114.135 139.783 114.513C139.253 114.047 138.743 113.552 138.224 113.079C137.783 112.674 137.291 112.311 136.815 111.935H136.915C136.915 111.935 136.915 111.885 136.915 111.799C137.352 112.157 137.79 112.516 138.209 112.892C138.88 113.509 139.536 114.14 140.21 114.749L140.368 114.839C139.125 113.493 138.059 111.994 137.195 110.379C137.204 110.352 137.216 110.325 137.231 110.3C137.632 111.044 138.078 111.762 138.568 112.451C139.138 113.244 139.787 113.971 140.403 114.728C140.045 113.767 139.78 112.76 139.504 111.777C139.245 110.849 138.994 109.917 138.786 108.977L138.851 108.959C139.095 109.866 139.324 110.773 139.568 111.68C139.855 112.688 140.199 113.688 140.482 114.699C140.424 112.748 140.168 110.808 139.719 108.909H139.79C140.259 110.488 140.52 112.121 140.565 113.767C140.626 113.147 140.726 112.523 140.83 111.921C140.948 111.217 141.103 110.521 141.296 109.834L141.339 109.891H141.371C141.203 110.609 141.038 111.351 140.912 112.093C140.755 113.014 140.697 113.939 140.575 114.864V114.889C140.825 114.098 141.203 113.353 141.694 112.684C142.155 111.948 142.719 111.282 143.368 110.705C143.372 110.703 143.377 110.703 143.381 110.704C143.386 110.704 143.39 110.706 143.393 110.71C143.396 110.713 143.398 110.717 143.399 110.721C143.399 110.725 143.399 110.73 143.397 110.734C142.781 111.337 142.244 112.015 141.798 112.752C141.375 113.374 141.022 114.042 140.748 114.742L140.834 114.674C141.909 113.434 143.487 112.799 145.06 112.311C145.111 112.318 145.162 112.329 145.211 112.344C144.451 112.586 143.708 112.881 142.988 113.226C142.469 113.484 141.987 113.811 141.554 114.197C142.15 113.877 142.785 113.636 143.444 113.48C144.452 113.206 145.5 113.11 146.541 113.197L146.606 113.279C145.601 113.223 144.594 113.321 143.619 113.57C142.742 113.761 141.906 114.11 141.153 114.599C141.042 114.71 140.934 114.828 140.826 114.957C142.483 114.545 144.325 114.373 145.985 114.796C145.998 114.801 146.009 114.81 146.015 114.822C146.022 114.833 146.024 114.847 146.022 114.861C146.019 114.874 146.012 114.886 146.001 114.894C145.991 114.903 145.977 114.907 145.964 114.907C145.084 114.789 144.198 114.728 143.311 114.724C142.455 114.745 141.602 114.847 140.765 115.029C140.744 115.054 140.726 115.083 140.705 115.104C141.747 115.332 142.772 115.637 143.77 116.015C144.436 116.29 145.085 116.607 145.713 116.961L145.62 117.008C144.956 116.671 144.282 116.352 143.591 116.079C142.708 115.747 141.807 115.468 140.891 115.244C141.615 115.802 142.279 116.436 142.87 117.133C143.571 117.919 144.18 118.781 144.688 119.704C144.709 119.74 144.659 119.765 144.637 119.733C144.063 118.835 143.424 117.979 142.727 117.173C142.17 116.57 141.583 115.997 140.966 115.456C141.591 116.312 142.12 117.234 142.544 118.205C142.945 119.052 143.272 119.933 143.519 120.837H143.354C143.096 119.94 142.777 119.062 142.397 118.209C141.894 117.183 141.326 116.192 140.694 115.24C140.694 115.24 140.694 115.24 140.676 115.24C141.102 116.388 141.402 117.578 141.572 118.79C141.743 119.791 141.836 120.804 141.848 121.819C141.805 121.848 141.759 121.869 141.712 121.894C141.702 120.839 141.621 119.785 141.472 118.74C141.251 117.56 140.956 116.395 140.59 115.251L140.572 115.273C140.657 115.746 140.697 116.226 140.69 116.707C140.719 117.424 140.719 118.147 140.69 118.876C140.645 119.958 140.525 121.036 140.332 122.102H140.206C140.378 121.084 140.498 120.057 140.565 119.026C140.622 118.324 140.636 117.625 140.622 116.929Z" fill="black"/>
<path opacity="0.1" d="M141.479 114.663C141.439 114.692 141.403 114.663 141.393 114.627C141.382 114.591 141.393 114.627 141.393 114.609C141.317 114.326 141.305 114.03 141.357 113.742C141.409 113.454 141.524 113.181 141.694 112.942C142.096 112.386 142.627 111.937 143.242 111.634C143.252 111.628 143.263 111.626 143.274 111.627C143.285 111.628 143.296 111.632 143.305 111.639C143.313 111.646 143.32 111.655 143.323 111.666C143.327 111.676 143.328 111.687 143.325 111.698C143.229 112.29 143.017 112.857 142.7 113.366C142.383 113.875 141.968 114.316 141.479 114.663Z" fill="black"/>
<path opacity="0.1" d="M137.105 113.096C137.098 113.09 137.094 113.081 137.092 113.072C137.09 113.062 137.09 113.052 137.093 113.043C137.096 113.034 137.101 113.026 137.108 113.019C137.115 113.013 137.124 113.009 137.134 113.007C137.134 113.007 137.134 112.989 137.152 112.989C137.431 112.903 137.726 112.878 138.015 112.917C138.305 112.956 138.583 113.058 138.829 113.215C139.403 113.591 139.875 114.103 140.203 114.706C140.208 114.716 140.211 114.726 140.21 114.737C140.21 114.748 140.207 114.758 140.201 114.767C140.195 114.776 140.186 114.783 140.177 114.788C140.167 114.792 140.156 114.794 140.145 114.792C139.551 114.725 138.977 114.54 138.455 114.249C137.933 113.958 137.475 113.566 137.105 113.096Z" fill="black"/>
<path opacity="0.1" d="M141.249 115.47C141.206 115.387 141.328 115.326 141.378 115.398C142.486 115.398 143.314 116.262 143.906 117.115C143.927 117.151 143.906 117.216 143.87 117.223C142.719 117.341 141.769 116.416 141.249 115.47Z" fill="black"/>
<path opacity="0.1" d="M139.457 111.519C139.474 111.43 139.607 111.458 139.6 111.544C140.471 112.233 140.568 113.434 140.489 114.47C140.489 114.513 140.439 114.556 140.396 114.527C139.396 113.893 139.238 112.573 139.457 111.519Z" fill="black"/>
<path d="M140.418 116.739C140.292 116.664 140.224 116.52 140.095 116.456C139.966 116.391 139.84 116.438 139.736 116.388C139.577 116.316 139.45 116.188 139.378 116.029C139.311 115.881 139.294 115.714 139.331 115.556C139.374 115.348 139.442 115.355 139.353 115.165C139.066 114.548 139.453 113.864 140.149 113.971C140.172 113.844 140.236 113.728 140.33 113.64C140.424 113.551 140.544 113.496 140.672 113.48C140.861 113.471 141.048 113.523 141.204 113.63C141.36 113.737 141.477 113.892 141.536 114.072C141.664 114.062 141.793 114.092 141.905 114.155C142.016 114.219 142.107 114.315 142.164 114.43C142.221 114.546 142.243 114.675 142.226 114.803C142.21 114.931 142.155 115.05 142.07 115.147C142.177 115.25 142.251 115.382 142.284 115.527C142.317 115.671 142.307 115.822 142.257 115.961C142.198 116.109 142.085 116.23 141.941 116.298C141.83 116.352 141.658 116.298 141.583 116.352C141.507 116.406 141.393 116.596 141.278 116.682C141.163 116.77 141.024 116.821 140.88 116.829C140.72 116.847 140.559 116.815 140.418 116.739Z" fill="#263238"/>
<path d="M125.432 111.978C125.539 112.422 127.113 115.05 127.773 115.921C128.178 116.456 129.357 116.072 129.375 115.169C129.375 114.763 129.149 111.508 129.099 110.945C129.042 110.275 127.461 110.669 127.041 110.77C126.5 110.895 125.295 111.426 125.432 111.978Z" fill="#263238"/>
<path d="M118.749 114.003C120.296 115.681 121.512 117.636 122.334 119.764C123.126 121.948 123.528 124.242 124.055 126.497C124.887 130.039 126.206 133.804 129.339 135.944C129.361 135.958 129.387 135.966 129.413 135.966C129.439 135.967 129.465 135.96 129.487 135.946C129.509 135.933 129.528 135.914 129.539 135.89C129.551 135.867 129.557 135.841 129.554 135.815C129.556 135.807 129.556 135.798 129.554 135.79C129.619 133.937 129.476 132.083 129.128 130.262C127.905 123.83 124.223 117.692 118.925 113.795C118.795 113.702 118.663 113.888 118.749 114.003Z" fill="#263238"/>
<path d="M128.016 113.702C128.968 115.821 129.652 118.05 130.053 120.338C130.498 122.582 130.738 124.862 130.77 127.15C130.842 131.742 130.171 136.575 128.318 140.806C128.271 140.917 128.099 140.874 128.135 140.752C129.44 136.324 130.329 131.882 130.257 127.243C130.217 124.964 129.978 122.693 129.54 120.457C129.099 118.176 128.357 116.04 127.658 113.835C127.626 113.645 127.927 113.527 128.016 113.702Z" fill="#263238"/>
<path d="M131.795 113.036C131.741 113.089 131.687 113.136 131.634 113.182L131.522 113.269C131.185 113.52 130.788 113.679 130.371 113.73C129.954 113.782 129.53 113.724 129.142 113.563L129.06 113.702C128.701 114.129 127.493 115.463 125.833 115.205C125.613 115.171 125.399 115.106 125.198 115.011C125.141 114.986 125.087 114.954 125.033 114.925C124.022 114.337 123.707 113.086 123.628 112.638C123.616 112.583 123.608 112.528 123.603 112.473H123.553C123.227 112.541 121.402 112.831 120.663 111.286C120.567 111.093 120.494 110.89 120.444 110.68C120.427 110.612 120.416 110.547 120.405 110.486C120.352 110.126 120.376 109.758 120.476 109.407C120.576 109.057 120.75 108.732 120.986 108.454C121.008 108.426 121.032 108.399 121.058 108.375C121.019 108.345 120.982 108.312 120.946 108.278C120.557 107.921 120.244 107.488 120.029 107.005C120.015 106.979 120.003 106.951 119.993 106.923C119.741 106.315 119.73 105.635 119.961 105.019C120 104.914 120.045 104.811 120.097 104.711C120.097 104.686 120.122 104.664 120.133 104.643C120.285 104.365 120.493 104.121 120.742 103.926L120.807 103.876C121.346 103.503 121.995 103.323 122.649 103.366H122.728V103.331C122.814 103.076 123.42 101.405 124.955 101.212C125.404 101.134 125.867 101.189 126.285 101.37C126.704 101.551 127.061 101.85 127.314 102.23L127.371 102.191C127.414 102.156 127.46 102.125 127.507 102.097C127.993 101.783 128.568 101.633 129.146 101.671H129.257C129.686 101.728 130.096 101.885 130.454 102.13C130.925 102.444 131.281 102.903 131.471 103.436C131.661 103.969 131.674 104.55 131.508 105.091L131.476 105.198C131.475 105.204 131.475 105.21 131.476 105.216C131.476 105.216 133.376 106.098 133.666 107.64C133.724 108.015 133.692 108.398 133.572 108.757C133.452 109.117 133.249 109.443 132.978 109.709L132.856 109.838C132.728 109.969 132.589 110.089 132.44 110.196C132.596 110.706 132.62 111.248 132.508 111.77C132.497 111.825 132.483 111.878 132.465 111.931C132.342 112.352 132.111 112.732 131.795 113.036Z" fill="#0957DE"/>
<path opacity="0.1" d="M127.733 109.132C127.308 108.735 126.859 108.365 126.389 108.024C126.39 108.048 126.39 108.072 126.389 108.095C127.13 109.056 127.74 110.111 128.203 111.232C128.475 111.835 128.723 112.455 128.952 113.079C129.009 113.24 129.07 113.401 129.131 113.566L129.06 113.703C129.02 113.581 128.981 113.462 128.938 113.344C128.687 112.652 128.421 111.971 128.12 111.301C127.605 110.217 127.006 109.175 126.328 108.185C126.317 108.181 126.308 108.175 126.301 108.167C126.293 108.159 126.288 108.149 126.285 108.138C126.286 108.131 126.286 108.124 126.285 108.117L126.249 108.063C126.217 109.288 126.073 110.507 125.819 111.706C125.689 112.448 125.557 113.186 125.413 113.921C125.342 114.28 125.284 114.638 125.209 114.997C125.152 114.972 125.098 114.939 125.044 114.911C125.109 114.613 125.18 114.319 125.238 114.032C125.381 113.315 125.514 112.598 125.643 111.903C125.88 110.598 126.051 109.282 126.156 107.959H126.134C125.682 108.974 125.137 109.949 124.592 110.917C124.281 111.469 123.969 112.014 123.664 112.566C123.664 112.584 123.646 112.598 123.639 112.616C123.627 112.562 123.618 112.507 123.614 112.451H123.564L124.431 110.91C124.995 109.913 125.547 108.91 126.087 107.902C125.456 108.382 124.829 108.852 124.238 109.386C123.646 109.92 123.058 110.609 122.445 111.211C122.427 111.211 122.395 111.211 122.409 111.182C122.914 110.491 123.495 109.859 124.141 109.296C124.682 108.792 125.259 108.328 125.869 107.909L125.704 107.931C124.711 108.288 123.742 108.71 122.803 109.193C122.269 109.472 121.746 109.777 121.24 110.107C120.968 110.282 120.71 110.465 120.448 110.662C120.43 110.594 120.419 110.53 120.409 110.469C121.169 109.927 121.973 109.447 122.811 109.035C123.589 108.627 124.395 108.276 125.223 107.984C124.46 108.063 123.696 108.099 122.933 108.16C122.287 108.214 121.638 108.332 120.989 108.432C121.011 108.404 121.035 108.378 121.061 108.354C121.022 108.323 120.985 108.291 120.95 108.257C121.556 108.171 122.162 108.088 122.775 108.038C123.757 107.959 124.739 107.909 125.722 107.823L125.908 107.766C123.925 107.752 121.95 107.49 120.032 106.984C120.019 106.957 120.007 106.93 119.996 106.902C120.884 107.13 121.784 107.308 122.692 107.432C123.739 107.561 124.797 107.586 125.847 107.658C124.825 107.228 123.832 106.697 122.847 106.188C121.922 105.711 121 105.22 120.1 104.69C120.1 104.665 120.125 104.643 120.136 104.622C121.032 105.102 121.929 105.589 122.829 106.056C123.84 106.575 124.883 107.041 125.894 107.561C124.306 106.168 122.581 104.939 120.746 103.894L120.81 103.844C122.407 104.639 123.893 105.639 125.231 106.819C124.782 106.314 124.363 105.772 123.961 105.245C123.492 104.632 123.055 103.994 122.653 103.334H122.732V103.299C123.187 103.973 123.642 104.643 124.137 105.288C124.75 106.095 125.442 106.823 126.084 107.601C125.643 106.82 125.333 105.972 125.166 105.091C124.922 104.182 124.811 103.243 124.836 102.302C124.838 102.298 124.841 102.295 124.844 102.293C124.848 102.29 124.852 102.289 124.856 102.289C124.86 102.289 124.864 102.29 124.868 102.293C124.871 102.295 124.874 102.298 124.876 102.302C124.969 104.049 125.382 105.763 126.095 107.361C126.095 107.318 126.095 107.282 126.095 107.242C125.915 105.468 126.571 103.757 127.346 102.148C127.389 102.114 127.435 102.083 127.482 102.055C127.112 102.835 126.797 103.64 126.539 104.464C126.357 105.069 126.257 105.696 126.242 106.328C126.424 105.616 126.697 104.93 127.055 104.288C127.587 103.29 128.285 102.39 129.12 101.628H129.232C128.445 102.382 127.78 103.252 127.26 104.209C126.761 105.045 126.42 105.965 126.252 106.923C126.252 107.092 126.274 107.264 126.292 107.439C127.184 105.823 128.411 104.234 129.97 103.234C130.027 103.198 130.092 103.284 130.042 103.331C129.3 103.941 128.597 104.598 127.937 105.295C127.323 105.991 126.776 106.742 126.303 107.54C126.303 107.576 126.303 107.611 126.303 107.644C127.253 106.987 128.25 106.4 129.285 105.887C129.995 105.563 130.725 105.283 131.469 105.048L131.436 105.156C130.678 105.426 129.934 105.735 129.206 106.081C128.295 106.539 127.413 107.053 126.564 107.619C127.541 107.456 128.533 107.398 129.522 107.447C130.662 107.473 131.796 107.626 132.903 107.902C132.942 107.902 132.924 107.974 132.885 107.966C131.749 107.758 130.6 107.631 129.447 107.586C128.56 107.583 127.673 107.626 126.79 107.715C127.928 107.855 129.049 108.116 130.131 108.493C131.098 108.802 132.037 109.194 132.935 109.666L132.813 109.795C131.91 109.337 130.977 108.941 130.02 108.612C128.838 108.252 127.633 107.971 126.414 107.769C126.411 107.771 126.408 107.772 126.405 107.772C126.402 107.772 126.398 107.771 126.396 107.769C127.619 108.279 128.784 108.92 129.87 109.68C130.788 110.284 131.659 110.959 132.473 111.699C132.462 111.753 132.447 111.807 132.43 111.86C131.586 111.085 130.692 110.367 129.755 109.709C128.657 109.015 127.517 108.39 126.342 107.837C126.34 107.847 126.34 107.857 126.342 107.866C126.78 108.148 127.191 108.471 127.568 108.83C128.16 109.347 128.733 109.881 129.278 110.444C130.11 111.278 130.885 112.168 131.598 113.107L131.487 113.193C130.815 112.302 130.097 111.446 129.336 110.63C128.841 110.16 128.296 109.633 127.733 109.132Z" fill="black"/>
<path opacity="0.1" d="M126.572 106.776C126.571 106.787 126.568 106.797 126.562 106.805C126.556 106.814 126.548 106.821 126.538 106.826C126.529 106.83 126.519 106.833 126.508 106.832C126.498 106.831 126.488 106.828 126.479 106.823C126.475 106.825 126.471 106.827 126.466 106.827C126.462 106.827 126.457 106.825 126.454 106.823C126.175 106.672 125.932 106.463 125.742 106.209C125.552 105.955 125.419 105.663 125.353 105.353C125.21 104.625 125.248 103.872 125.464 103.162C125.466 103.15 125.472 103.139 125.481 103.131C125.489 103.122 125.5 103.116 125.512 103.114C125.524 103.112 125.537 103.113 125.548 103.118C125.559 103.122 125.569 103.131 125.575 103.141C125.973 103.651 126.265 104.235 126.437 104.859C126.608 105.483 126.654 106.134 126.572 106.776Z" fill="black"/>
<path opacity="0.1" d="M126.357 108.64C126.358 108.63 126.362 108.621 126.369 108.613C126.375 108.605 126.383 108.599 126.393 108.595C126.402 108.591 126.412 108.59 126.423 108.592C126.433 108.594 126.442 108.598 126.45 108.604C126.454 108.602 126.459 108.601 126.464 108.601C126.469 108.601 126.474 108.602 126.478 108.604C126.741 108.782 126.961 109.015 127.124 109.287C127.286 109.559 127.388 109.863 127.421 110.178C127.489 110.918 127.375 111.662 127.088 112.347C127.083 112.358 127.074 112.367 127.064 112.373C127.054 112.379 127.042 112.382 127.031 112.382C127.019 112.382 127.007 112.379 126.997 112.373C126.987 112.367 126.979 112.358 126.973 112.347C126.285 111.242 126.063 109.909 126.357 108.64Z" fill="black"/>
<path opacity="0.1" d="M122.101 109.088C122.091 109.088 122.081 109.084 122.072 109.079C122.063 109.074 122.056 109.066 122.051 109.057C122.046 109.048 122.044 109.038 122.043 109.028C122.043 109.018 122.046 109.008 122.051 108.999C122.051 108.999 122.051 108.981 122.051 108.97C122.19 108.683 122.391 108.43 122.638 108.23C122.886 108.029 123.175 107.885 123.485 107.808C124.205 107.629 124.958 107.629 125.679 107.808C125.691 107.81 125.702 107.815 125.712 107.824C125.721 107.832 125.727 107.843 125.73 107.855C125.732 107.867 125.731 107.88 125.727 107.891C125.722 107.903 125.714 107.913 125.704 107.919C125.211 108.344 124.638 108.665 124.02 108.866C123.401 109.067 122.749 109.142 122.101 109.088Z" fill="black"/>
<path opacity="0.1" d="M127.052 107.543C126.955 107.518 126.998 107.378 127.091 107.393C127.902 106.507 129.207 106.493 130.318 106.676C130.365 106.676 130.408 106.737 130.375 106.78C129.612 107.773 128.178 107.844 127.052 107.543Z" fill="black"/>
<path opacity="0.1" d="M122.578 106.073C122.517 105.994 122.639 105.908 122.703 105.976C123.89 105.797 124.912 106.607 125.675 107.432C125.708 107.468 125.708 107.536 125.654 107.55C124.424 107.858 123.263 107.012 122.578 106.073Z" fill="black"/>
<path d="M127.436 109.153C127.282 109.199 127.117 109.153 126.97 109.199C126.823 109.246 126.765 109.386 126.647 109.436C126.476 109.51 126.283 109.519 126.106 109.461C125.937 109.407 125.791 109.297 125.693 109.149C125.561 108.963 125.618 108.912 125.399 108.844C124.682 108.615 124.442 107.801 125.041 107.331C124.957 107.22 124.912 107.084 124.912 106.944C124.912 106.805 124.957 106.669 125.041 106.557C125.172 106.4 125.351 106.29 125.55 106.245C125.75 106.199 125.959 106.221 126.145 106.306C126.236 106.201 126.355 106.124 126.488 106.086C126.622 106.047 126.763 106.048 126.896 106.088C127.029 106.128 127.147 106.206 127.237 106.312C127.326 106.418 127.383 106.548 127.4 106.686C127.56 106.678 127.719 106.717 127.859 106.797C127.998 106.877 128.111 106.995 128.185 107.138C128.257 107.295 128.27 107.474 128.221 107.64C128.178 107.765 128.02 107.873 127.988 107.973C127.956 108.074 128.042 108.303 128.024 108.454C128.007 108.61 127.946 108.758 127.848 108.88C127.74 109.009 127.597 109.104 127.436 109.153Z" fill="#263238"/>
<path d="M144.085 152.805H120.348L121.395 141.871L121.624 139.461H142.809L143.038 141.871L144.085 152.805Z" fill="#455A64"/>
<path d="M142.967 141.103L121.395 141.871L121.624 139.461H142.809L142.967 141.103Z" fill="#263238"/>
<path d="M144.164 137.411H120.269V140.315H144.164V137.411Z" fill="#455A64"/>
<path d="M4.90015 152.805C50.4526 152.586 101.548 152.583 147.1 152.805C101.548 153.027 50.4526 153.024 4.90015 152.805Z" fill="#263238"/>
<path d="M60.1396 28.05C60.1396 28.3698 60.2345 28.6824 60.4121 28.9483C60.5898 29.2142 60.8423 29.4214 61.1378 29.5438C61.4332 29.6662 61.7583 29.6982 62.072 29.6358C62.3856 29.5734 62.6737 29.4194 62.8998 29.1933C63.126 28.9672 63.28 28.6791 63.3424 28.3654C63.4047 28.0518 63.3727 27.7267 63.2503 27.4312C63.128 27.1358 62.9207 26.8833 62.6548 26.7056C62.3889 26.5279 62.0763 26.4331 61.7565 26.4331C61.3277 26.4331 60.9165 26.6035 60.6132 26.9067C60.31 27.2099 60.1396 27.6212 60.1396 28.05Z" fill="white"/>
<path d="M60.1396 28.0503C60.1396 28.4554 60.3006 28.8438 60.587 29.1302C60.8734 29.4166 61.2619 29.5776 61.6669 29.5776C62.072 29.5776 62.4604 29.4166 62.7468 29.1302C63.0333 28.8438 63.1942 28.4554 63.1942 28.0503C63.1942 27.6452 63.0333 27.2568 62.7468 26.9704C62.4604 26.6839 62.072 26.523 61.6669 26.523C61.2619 26.523 60.8734 26.6839 60.587 26.9704C60.3006 27.2568 60.1396 27.6452 60.1396 28.0503ZM60.1396 28.0503C60.2042 25.7988 63.4774 25.7809 63.5527 28.0503C63.4774 30.3161 60.2042 30.2982 60.1396 28.0503Z" fill="#263238"/>
<path d="M58.1536 25.5192C59.4387 25.5192 60.4804 24.4775 60.4804 23.1925C60.4804 21.9074 59.4387 20.8657 58.1536 20.8657C56.8686 20.8657 55.8269 21.9074 55.8269 23.1925C55.8269 24.4775 56.8686 25.5192 58.1536 25.5192Z" fill="white"/>
<path d="M55.823 23.1924C55.8221 23.5588 55.9109 23.9197 56.0819 24.2437C56.2528 24.5677 56.5006 24.8449 56.8035 25.0509C57.1064 25.2569 57.4552 25.3855 57.8193 25.4255C58.1834 25.4654 58.5518 25.4155 58.8922 25.2801C59.2326 25.1446 59.5345 24.9278 59.7716 24.6485C60.0088 24.3693 60.1738 24.0362 60.2523 23.6784C60.3308 23.3206 60.3204 22.949 60.222 22.5961C60.1236 22.2433 59.9401 21.9199 59.6877 21.6544C58.3541 20.1881 55.7943 21.1919 55.823 23.1924ZM55.823 23.1924C55.8223 22.7915 55.9212 22.3966 56.1108 22.0433C56.3005 21.6901 56.575 21.3895 56.9096 21.1685C57.2442 20.9476 57.6284 20.8133 58.0278 20.7776C58.4272 20.742 58.8292 20.8062 59.1976 20.9643C59.5661 21.1225 59.8894 21.3698 60.1387 21.6839C60.3879 21.998 60.5551 22.3691 60.6254 22.7638C60.6957 23.1586 60.6668 23.5646 60.5413 23.9454C60.4158 24.3263 60.1976 24.6699 59.9064 24.9456C59.562 25.2671 59.1315 25.4815 58.6673 25.5625C58.2032 25.6435 57.7255 25.5877 57.2925 25.4018C56.8596 25.2159 56.4901 24.908 56.2291 24.5157C55.9682 24.1234 55.8271 23.6636 55.823 23.1924Z" fill="#263238"/>
<path d="M38.93 27.9821C49.1983 27.9821 57.5224 21.7848 57.5224 14.14C57.5224 6.49518 49.1983 0.297852 38.93 0.297852C28.6617 0.297852 20.3376 6.49518 20.3376 14.14C20.3376 21.7848 28.6617 27.9821 38.93 27.9821Z" fill="white"/>
<path d="M20.8467 10.9241C18.6956 17.5674 23.6073 23.5903 29.537 26.0282C32.4877 27.2576 35.6536 27.8869 38.8501 27.8796C42.0466 27.8722 45.2096 27.2282 48.1545 25.9852C51.9978 24.3396 55.5363 21.3712 56.8412 17.3021C59.6054 8.11341 50.3414 1.57058 42.1781 0.6026C34.0543 -0.541051 23.8152 2.56366 20.8467 10.9241ZM20.8467 10.9241C23.8044 2.52422 34.0543 -0.619923 42.1996 0.41259C46.4373 0.964697 50.6498 2.58875 53.7724 5.58232C56.9452 8.51495 58.6087 13.2043 57.1818 17.4132C53.4318 27.8853 38.697 30.3196 29.494 26.1322C23.5857 23.6226 18.667 17.5781 20.8467 10.9277V10.9241Z" fill="#263238"/>
<path d="M39.0341 14.8894V16.2554C39.0376 16.3921 39.0131 16.528 38.9622 16.6549C38.9113 16.7818 38.835 16.8969 38.738 16.9933C38.6409 17.0896 38.5253 17.1651 38.398 17.2152C38.2708 17.2652 38.1347 17.2887 37.998 17.2843C37.7254 17.2834 37.4643 17.1747 37.2715 16.9819C37.0787 16.7891 36.97 16.528 36.9691 16.2554V14.0685C36.9691 14.0469 36.9906 14.0469 36.9906 14.0254C36.9906 14.0039 36.9691 14.0039 36.9691 13.9824C36.9823 13.7145 37.0951 13.4611 37.2855 13.2721C37.4758 13.083 37.73 12.972 37.998 12.9607C38.6227 12.9607 39.2218 12.7125 39.6636 12.2708C40.1053 11.829 40.3534 11.2299 40.3534 10.6052C40.3534 9.98054 40.1053 9.38143 39.6636 8.93971C39.2218 8.49798 38.6227 8.24982 37.998 8.24982C37.59 8.24868 37.1888 8.3547 36.8345 8.55729C36.4803 8.75988 36.1855 9.05193 35.9796 9.40423C35.9113 9.52427 35.8198 9.62949 35.7103 9.71376C35.6009 9.79803 35.4758 9.85966 35.3423 9.89504C35.2088 9.93042 35.0696 9.93884 34.9328 9.91982C34.796 9.9008 34.6643 9.85471 34.5456 9.78425C34.4292 9.71553 34.3276 9.6245 34.2466 9.51639C34.1656 9.40829 34.1067 9.28523 34.0734 9.1543C34.0401 9.02337 34.033 8.88715 34.0525 8.75346C34.072 8.61977 34.1177 8.49126 34.187 8.3753C34.5545 7.74193 35.0736 7.20978 35.6977 6.82665C36.3217 6.44353 37.0312 6.22143 37.7623 6.18031C38.4934 6.1392 39.2233 6.28035 39.8863 6.5911C40.5494 6.90184 41.1249 7.37244 41.5611 7.96061C41.9973 8.54878 42.2805 9.2361 42.3854 9.96082C42.4902 10.6855 42.4134 11.425 42.1618 12.1126C41.9102 12.8003 41.4917 13.4147 40.9439 13.9007C40.3961 14.3866 39.7361 14.7288 39.0234 14.8966L39.0341 14.8894ZM39.0341 19.4927V19.8728C39.0376 20.0094 39.0131 20.1454 38.9622 20.2723C38.9113 20.3992 38.835 20.5143 38.738 20.6107C38.6409 20.707 38.5253 20.7825 38.398 20.8326C38.2708 20.8826 38.1347 20.9061 37.998 20.9017C37.7254 20.9007 37.4643 20.792 37.2715 20.5993C37.0787 20.4065 36.97 20.1454 36.9691 19.8728V19.4927C36.9737 19.2213 37.0836 18.9622 37.2756 18.7703C37.4675 18.5783 37.7266 18.4684 37.998 18.4638C38.1341 18.4614 38.2694 18.4863 38.3957 18.5371C38.522 18.5879 38.6369 18.6634 38.7335 18.7594C38.8301 18.8553 38.9064 18.9696 38.9581 19.0956C39.0097 19.2216 39.0356 19.3566 39.0341 19.4927Z" fill="#0957DE"/>
</svg>
