<svg width="53" height="53" viewBox="0 0 53 53" fill="none" xmlns="http://www.w3.org/2000/svg">
<g clip-path="url(#clip0_248_15269)">
<rect width="53" height="53" rx="26.5" fill="#FDFDFD"/>
<path d="M35.115 5.59492C32.6697 2.59503 28.5095 1.86319 24.4731 2.70711C20.4368 3.55104 15.605 5.67404 15.1811 12.7419C14.829 18.4846 16.544 24.0888 16.5309 30.4907C16.5179 36.8927 9.65807 52.4856 20.7433 60.16C30.7004 67.0235 50.8429 60.8193 51.4298 46.7099C51.8928 35.5477 39.2426 25.203 37.9058 20.779C36.5691 16.355 37.7754 8.87832 35.115 5.59492Z" fill="#263238"/>
<path d="M36.9407 11.898C36.9465 15.1324 37.5594 18.3362 38.747 21.3394C39.0691 22.1016 39.4925 22.8159 40.0055 23.4624C40.4945 24.1217 41.0162 24.7151 41.5313 25.3217C42.5812 26.5216 43.6245 27.7084 44.6026 28.9479C46.6111 31.3757 48.2646 34.0823 49.5127 36.985C50.7133 39.9163 51.3762 43.0441 51.4689 46.2155C51.5884 44.6125 51.5382 43.0012 51.3189 41.409C51.0798 39.808 50.6823 38.2353 50.1322 36.7147C48.9886 33.6864 47.3607 30.8687 45.3133 28.3743C44.3091 27.1216 43.2398 25.9217 42.1834 24.7415C41.083 23.6425 40.1432 22.3903 39.3925 21.0229C38.7167 19.6023 38.2005 18.1095 37.8536 16.5726C37.4611 15.0333 37.1563 13.4726 36.9407 11.898Z" fill="#263238"/>
<path d="M15.481 17.5681C15.5593 20.8251 15.7614 24.0822 15.6897 27.3128C15.6558 28.9232 15.5295 30.5302 15.3115 32.1258C15.0898 33.695 14.6594 35.2642 14.2747 36.8531C13.89 38.4421 13.5705 40.0508 13.3292 41.6728C13.0913 43.3051 12.9931 44.9551 13.0358 46.6044C13.108 48.2621 13.4065 49.9017 13.9226 51.4768C14.5087 53.0159 15.3958 54.4197 16.5309 55.6041C15.5355 54.3396 14.7795 52.9001 14.3008 51.3581C13.8853 49.811 13.6791 48.2141 13.6879 46.611C13.8002 43.3896 14.2727 40.1913 15.0963 37.0773C15.4484 35.4949 15.8918 33.9258 16.107 32.2577C16.3035 30.624 16.3798 28.9777 16.3353 27.3326C16.2414 24.0636 15.9562 20.803 15.481 17.5681Z" fill="#263238"/>
<path d="M29.2593 44.8968C32.2263 52.3603 44.0288 76.4583 51.7819 78.1594C56.8681 79.2736 77.4279 77.2627 80.9621 72.3442C82.5075 70.2014 79.8992 55.2613 77.1605 55.8613C74.4218 56.4612 57.9375 58.6568 55.916 58.0634C53.8946 57.47 38.7209 39.8069 33.0544 35.4224C23.2798 27.8535 27.6618 40.8816 29.2593 44.8968Z" fill="#F7A9A0"/>
<path d="M70.9398 54.78L71.3767 77.1968C71.3767 77.1968 55.0749 80.2033 48.1173 77.4803C39.6403 74.1837 28.0856 46.9011 26.5206 42.431C23.9645 35.0928 24.897 30.7413 28.8551 31.9544C30.394 32.4159 32.3893 33.728 34.8085 36.0422C37.345 38.4553 51.8341 54.0613 56.4703 57.0744C59.0656 58.7886 70.9398 54.78 70.9398 54.78Z" fill="#EBEBEB"/>
<path d="M64.5103 78.1857C59.209 78.7462 52.121 79.0692 48.1499 77.5264C39.6729 74.2298 28.1182 46.9539 26.5598 42.4771C23.9971 35.1389 24.9296 30.7874 28.8877 32.0006C29.0115 32.0401 29.1354 32.0797 29.2593 32.1324L64.5103 78.1857Z" fill="#A6A6A6"/>
<path d="M41.6357 63.7665L44.733 85.3195C44.733 85.3195 10.0037 85.8338 1.38326 85.2207C1.38326 85.2207 8.41912 44.9364 17.6851 34.7631C22.3213 29.6732 27.7661 30.049 31.2351 33.6093C32.1154 34.5126 42.5877 48.5099 43.6962 53.8569C44.6547 58.6106 41.6357 63.7665 41.6357 63.7665Z" fill="#CCE5FD"/>
<path d="M21.5323 31.7764C21.5323 31.7764 24.5449 147.493 21.6757 152.464C19.9217 155.497 -9.01076 148.232 -9.01076 148.232C-9.01076 148.232 -1.5315 79.6626 7.06281 55.2679C15.0311 32.6467 21.5323 31.7764 21.5323 31.7764Z" fill="#EBEBEB"/>
<path d="M44.2244 150.302C45.4112 151.752 54.951 147.005 54.951 147.005L41.8248 63.3775C43.5319 60.5574 44.1972 57.2176 43.7027 53.9492C42.8029 48.6747 31.9133 33.4445 30.1527 32.6533C31.9735 40.521 33.2352 48.5103 33.9282 56.5601C36.9538 89.5062 42.5421 148.232 44.2244 150.302Z" fill="#EBEBEB"/>
<path d="M40.2728 46.8286C39.3078 45.266 38.3166 43.7232 37.3581 42.1475C37.3581 42.1013 37.3972 42.0486 37.4298 42.0947C38.4014 43.4134 39.3469 44.6924 40.2859 46.0045C39.9794 45.299 39.6729 44.5935 39.3925 43.8749C39.3599 43.7958 39.4773 43.7232 39.5164 43.809C39.9468 44.732 40.338 45.6682 40.7162 46.611C41.5546 47.7861 42.2982 49.0274 42.9398 50.323C44.3379 53.0133 44.7535 56.1159 44.1135 59.0853C43.9194 59.9172 43.6283 60.7228 43.2463 61.4852C42.992 62.0061 42.1573 63.1269 42.1638 63.1599C42.7051 66.2323 43.1159 69.3377 43.5397 72.4299C43.9636 75.5221 44.4135 78.6868 44.7721 81.8186C44.9808 83.5987 45.1112 85.3855 45.3655 87.1525C45.3655 87.2184 45.2742 87.2448 45.2677 87.1525C45.046 85.6162 44.7135 84.0866 44.4461 82.5372C44.1788 80.9878 43.9179 79.4648 43.6701 77.922C43.1746 74.81 42.7377 71.6849 42.2943 68.5663C42.0399 66.7993 41.7661 65.039 41.5639 63.2918C41.8581 62.6262 42.1913 61.9789 42.5616 61.3534C42.8742 60.7027 43.1295 60.0253 43.3245 59.3293C43.7275 57.9126 43.8537 56.4301 43.6962 54.9646C43.3571 52.0174 41.8248 49.334 40.2728 46.8286Z" fill="#263238"/>
<path d="M30.2374 32.9961C31.259 34.5653 32.298 36.1191 33.3543 37.6575C34.4172 39.1937 35.4605 40.7497 36.543 42.2727V41.9035L33.9347 44.6661L33.7195 44.8902L33.9477 45.1144C35.0432 46.1891 36.1583 47.244 37.2668 48.2989L37.1755 48.022C36.7712 50.8834 36.3408 53.7317 35.9822 56.5931C35.6236 59.4545 35.2454 62.316 34.9324 65.1642C35.4671 62.3292 35.967 59.4875 36.4321 56.6392C36.9212 53.7976 37.345 50.9427 37.7884 48.0681V47.9099L37.6711 47.7978C36.5691 46.7297 35.4736 45.655 34.3585 44.6067V45.0551L36.9147 42.253L37.1233 42.1277L36.9864 41.9431C35.8909 40.4266 34.7563 38.9432 33.6413 37.4465C32.5262 35.9499 31.3916 34.4664 30.2374 32.9961Z" fill="#A6A6A6"/>
<path d="M12.1099 38.6926C-1.58365 51.6548 -17.6377 74.1244 -11.9646 79.6297C-8.19567 83.2823 10.6883 58.8677 10.3558 58.9271C9.65155 59.059 13.7466 50.9493 18.7675 41.1255C24.3688 30.1479 19.9217 31.2885 12.1099 38.6926Z" fill="#F7A9A0"/>
<path d="M18.774 33.0423C9.26028 37.8092 -16.9204 68.6454 -13.497 78.1594C-10.0736 87.6733 11.5425 59.0392 11.3208 58.6502C11.0991 58.2612 16.5831 47.3824 18.8197 42.9716C21.0563 38.5608 23.8406 30.4973 18.774 33.0423Z" fill="#EBEBEB"/>
<path d="M17.4764 48.1209C16.9548 48.6813 16.4396 49.2483 15.944 49.8351L15.6767 50.1714L16.1266 49.2351C16.693 48.1655 17.2002 47.065 17.646 45.9385C17.646 45.8858 17.5938 45.8594 17.5612 45.899C16.8879 46.9749 16.2719 48.0863 15.7158 49.2285C15.1355 50.3164 14.5421 51.4109 13.9813 52.5251C13.4205 53.6394 12.8467 54.7273 12.3055 55.8217C11.7327 56.8982 11.238 58.0154 10.8253 59.1644C10.8241 59.1779 10.827 59.1914 10.8336 59.2032C10.8403 59.2149 10.8504 59.2243 10.8625 59.23C10.8746 59.2358 10.8881 59.2376 10.9013 59.2353C10.9145 59.233 10.9266 59.2267 10.9361 59.2172C11.6438 58.1656 12.2757 57.0639 12.8271 55.9206C13.401 54.8261 13.9487 53.7119 14.503 52.624C14.7377 52.1625 14.9659 51.6944 15.1876 51.2263L15.455 50.923C15.7028 50.6461 15.931 50.3494 16.1592 50.0527C16.6287 49.4461 17.0721 48.8198 17.5155 48.1868C17.5612 48.1275 17.496 48.1011 17.4764 48.1209Z" fill="#263238"/>
<path d="M21.4736 33.1016C20.7563 34.7829 20.0325 36.4576 19.2826 38.1256C18.5328 39.7937 17.8024 41.4222 17.0265 43.1035L16.9547 42.7475L19.7065 45.1342L19.9347 45.332L19.7586 45.5825C18.911 46.7891 18.0437 47.9824 17.183 49.1692L17.2286 48.8857C17.9915 51.6614 18.7871 54.4306 19.5109 57.2195C20.2347 60.0084 20.9845 62.7907 21.6692 65.5862C20.7998 62.8522 19.9478 60.1051 19.1131 57.3447C18.2654 54.5954 17.4894 51.8263 16.6809 49.0637L16.6352 48.9055L16.7265 48.7802C17.5807 47.5737 18.4284 46.3671 19.2957 45.1803L19.3478 45.6287L16.6352 43.1892L16.4657 43.0376L16.5635 42.8332C17.346 41.1915 18.1741 39.5761 18.9827 37.9476C19.7912 36.3191 20.6324 34.7038 21.4736 33.1016Z" fill="#A6A6A6"/>
<path d="M20.0716 35.7587C19.8434 32.3039 22.6343 31.0775 25.1904 30.7281C28.216 30.3127 30.2375 30.5699 31.7111 33.5434C33.2435 36.6751 34.039 40.3146 34.6389 43.743C34.6725 43.8633 34.7487 43.9668 34.853 44.0337C34.9572 44.1007 35.0823 44.1265 35.2042 44.1061C35.3261 44.0857 35.4362 44.0205 35.5136 43.9232C35.591 43.8258 35.6301 43.7029 35.6236 43.5782C34.9324 39.6223 33.9477 32.2643 30.0614 30.1083C26.488 28.1304 18.7284 30.0688 19.1131 35.9169C19.1522 36.5762 20.1434 36.4048 20.0977 35.7587H20.0716Z" fill="#455A64"/>
<path d="M37.6711 45.1803C37.7435 45.6345 37.6809 46.1002 37.4911 46.5182C37.3012 46.9363 36.9928 47.2879 36.605 47.5284C36.2171 47.7689 35.7673 47.8874 35.3127 47.8689C34.8581 47.8504 34.4192 47.6957 34.0517 47.4244C33.6843 47.1532 33.4048 46.7777 33.2489 46.3455C33.0929 45.9134 33.0675 45.4441 33.1758 44.9973C33.2842 44.5505 33.5214 44.1464 33.8574 43.8362C34.1933 43.526 34.6129 43.3237 35.0628 43.2551C35.6607 43.1639 36.27 43.315 36.7584 43.6755C37.2468 44.036 37.5748 44.5767 37.6711 45.1803Z" fill="#263238"/>
<path d="M36.7647 45.3254C36.8079 45.5986 36.7699 45.8786 36.6556 46.13C36.5413 46.3814 36.3558 46.5928 36.1225 46.7375C35.8893 46.8821 35.6188 46.9536 35.3454 46.9427C35.0719 46.9319 34.8078 46.8392 34.5865 46.6765C34.3652 46.5137 34.1967 46.2882 34.1022 46.0286C34.0078 45.7689 33.9916 45.4867 34.0559 45.2178C34.1202 44.9488 34.2619 44.7052 34.4632 44.5178C34.6645 44.3304 34.9163 44.2076 35.1867 44.165C35.548 44.108 35.917 44.1981 36.2127 44.4156C36.5085 44.6331 36.707 44.9602 36.7647 45.3254Z" fill="#EBEBEB"/>
<path d="M23.5211 46.5781C26.0316 56.2766 25.6404 58.6436 24.8253 59.7644C24.2229 60.543 23.4508 61.1703 22.5691 61.5973L22.2822 60.938L22.4256 61.2611L22.2822 60.938C23.0419 60.5544 23.7095 60.0076 24.2384 59.3359C24.8122 58.5249 25.2947 56.3491 22.8103 46.7429L23.5211 46.5781Z" fill="#C7C7C7"/>
<path d="M17.2612 46.8088C15.3441 54.1141 14.8811 58.1095 15.794 59.3952C16.3201 60.0715 16.9883 60.621 17.7503 61.0039L17.4568 61.6633C16.578 61.2317 15.8085 60.6024 15.2072 59.8238C14.1182 58.2941 14.516 54.4767 16.57 46.6374L17.2612 46.8088Z" fill="#C7C7C7"/>
<path d="M16.3483 46.3209C16.6708 44.7037 17.0889 43.1075 17.6003 41.5409C17.9086 40.85 18.3923 40.254 19.0022 39.8135C19.1392 39.8135 19.0805 38.574 19.0022 37.5652C18.9436 36.6817 18.8523 35.6466 19.0609 35.3631C19.1828 35.2305 19.3509 35.1509 19.5297 35.141C19.7085 35.1312 19.8841 35.1919 20.0195 35.3103C20.2607 35.5741 20.2673 36.629 20.2999 37.4993C20.3325 38.508 20.3977 39.741 20.5346 39.741C21.1497 40.1444 21.6597 40.6916 22.0213 41.3365C22.6882 42.8838 23.2397 44.4794 23.6711 46.11C23.8928 47.1517 23.5537 47.277 23.2603 47.3824C22.843 47.5209 22.6082 47.2374 22.2561 46.0638C21.741 44.2441 21.0889 41.1717 19.8369 41.1849C18.5914 41.3101 18.0828 44.5606 17.6785 46.3671C17.4242 47.5011 17.1895 47.6132 16.7591 47.5143C16.4592 47.455 16.1527 47.3231 16.3483 46.3209Z" fill="#263238"/>
<path d="M28.1965 47.5209C28.1965 47.5209 25.7838 43.8617 28.379 42.4046C30.9743 40.9475 32.7805 44.943 32.7805 44.943L28.1965 47.5209Z" fill="#455A64"/>
<path d="M47.5565 71.797L47.6673 76.0957L47.7065 77.5132L46.5262 76.7353L42.992 74.3815L28.1443 47.3495L32.7088 44.7782L47.5565 71.797Z" fill="#455A64"/>
<path d="M32.9965 44.4152L27.6454 47.4242L28.2348 48.4959L33.586 45.4869L32.9965 44.4152Z" fill="#263238"/>
<path d="M33.6543 45.6132L28.3032 48.6222L28.8927 49.694L34.2438 46.685L33.6543 45.6132Z" fill="#263238"/>
<path d="M28.8942 49.6966L30.6156 48.7274L35.0367 59.0326L34.3846 59.3556L28.8942 49.6966Z" fill="#263238"/>
<path d="M49.6236 56.8766C49.4345 59.382 43.3571 58.3865 43.3571 58.3865C44.2008 59.0564 44.7866 60.0031 45.0134 61.0633C45.3264 62.9489 42.5355 64.2742 42.5355 64.2742C43.2711 65.1519 43.7258 66.2348 43.8397 67.3795C43.9636 69.2124 41.3357 70.953 41.3357 70.953C41.5669 72.1367 41.3702 73.365 40.7814 74.4145C39.0926 77.1572 34.1955 76.8078 31.1243 77.2034C27.6771 77.7118 24.2771 78.5057 20.9585 79.5769L17.1634 56.5667C17.1634 56.5667 30.9026 49.7824 34.5542 50.2637C37.6254 50.6988 49.917 53.0394 49.6236 56.8766Z" fill="#F7A9A0"/>
<path d="M67.6338 79.5176L41.8183 80.078L53.1643 46.3341L78.9798 45.7737L67.6338 79.5176Z" fill="white"/>
<path d="M69.4009 79.478L43.5854 80.0384L54.9314 46.2946L80.7469 45.7342L69.4009 79.478Z" fill="#37474F"/>
<path d="M22.7777 32.7324C23.0386 33.3917 25.536 37.8158 28.6464 37.8158C30.6026 37.8158 30.1331 31.0116 30.1331 31.0116L30.1657 30.583L30.6222 24.6492L23.319 21.2867L22.2691 20.8515C22.2691 20.8515 22.2691 22.4866 22.2691 24.5173V24.8074C22.2691 24.9261 22.2691 25.0316 22.2691 25.1371C22.2691 25.447 22.2691 25.7568 22.2691 26.0601C22.2691 26.3634 22.2691 26.5282 22.2691 26.7722V27.5106C22.323 29.2608 22.493 31.0053 22.7777 32.7324Z" fill="#F7A9A0"/>
<path d="M22.23 24.5107C23.0343 26.0434 24.159 27.3805 25.5261 28.4292C26.8931 29.4778 28.4697 30.2128 30.1461 30.583L30.6026 24.6492L23.2994 21.2867L22.2496 20.8515C22.2496 20.8515 22.23 22.48 22.23 24.5107Z" fill="#263238"/>
<path d="M38.7013 17.0736C38.4405 27.5238 32.2132 28.5457 29.9897 28.4864C27.9617 28.4271 21.0824 27.9787 20.2803 17.5549C19.4783 7.13112 24.3688 3.95321 28.9985 3.83453C33.6282 3.71586 38.9687 6.59048 38.7013 17.0736Z" fill="#F7A9A0"/>
<path d="M36.2365 14.4364C35.9953 14.3836 35.7801 14.2979 35.5518 14.2254C35.3027 14.1879 35.0732 14.0672 34.8998 13.8825C34.8549 13.8133 34.8343 13.7307 34.8414 13.6482C34.8485 13.5657 34.8829 13.488 34.9389 13.4276C35.0652 13.3246 35.2163 13.2574 35.3768 13.2331C35.5372 13.2088 35.7012 13.2281 35.8518 13.2892C36.1749 13.3654 36.4585 13.5605 36.6473 13.8364C36.6888 13.9021 36.7102 13.9787 36.7088 14.0567C36.7074 14.1346 36.6832 14.2104 36.6393 14.2745C36.5954 14.3386 36.5338 14.3882 36.4621 14.417C36.3904 14.4458 36.312 14.4525 36.2365 14.4364Z" fill="#263238"/>
<path d="M29.5006 13.8759C29.7368 13.8581 29.9719 13.8273 30.2048 13.7836C30.4601 13.786 30.7094 13.7051 30.9156 13.5529C30.9648 13.4875 30.9914 13.4076 30.9914 13.3254C30.9914 13.2432 30.9648 13.1633 30.9156 13.0979C30.8071 12.9758 30.6683 12.8851 30.5135 12.8353C30.3588 12.7854 30.1937 12.7783 30.0353 12.8144C29.705 12.8351 29.3938 12.9783 29.1615 13.2166C29.1074 13.2765 29.0727 13.3517 29.0623 13.4321C29.0518 13.5125 29.0661 13.5942 29.1031 13.6662C29.1401 13.7381 29.1981 13.7968 29.2692 13.8343C29.3403 13.8719 29.4211 13.8864 29.5006 13.8759Z" fill="#263238"/>
<path d="M30.7591 16.6319C30.7591 16.6319 30.7004 16.6319 30.7004 16.6912C30.7004 17.4033 30.5439 18.2143 29.8918 18.4121C29.8918 18.4121 29.8918 18.4582 29.8918 18.4516C30.6809 18.3923 30.8569 17.311 30.7591 16.6319Z" fill="#263238"/>
<path d="M30.1722 15.8539C29.0507 15.6957 28.829 17.9835 29.8723 18.1285C30.9156 18.2736 31.1178 15.9792 30.1722 15.8539Z" fill="#263238"/>
<path d="M29.7223 15.9264C29.5071 16.0385 29.292 16.2495 29.0702 16.2495C28.8485 16.2495 28.6073 15.9858 28.4508 15.7418H28.4117C28.3595 16.1836 28.4834 16.6451 28.9464 16.7572C29.4093 16.8692 29.7028 16.5 29.8527 16.0978C29.8593 16.0121 29.8006 15.8869 29.7223 15.9264Z" fill="#263238"/>
<path d="M34.665 16.8956C34.665 16.8956 34.7172 16.9352 34.7107 16.9615C34.6194 17.667 34.6259 18.4912 35.2323 18.7944C35.2323 18.7944 35.2323 18.8406 35.2323 18.834C34.4629 18.6428 34.4629 17.5483 34.665 16.8956Z" fill="#263238"/>
<path d="M35.3692 16.2231C36.5038 16.2561 36.3539 18.5439 35.304 18.5175C34.2542 18.4912 34.4172 16.1901 35.3692 16.2231Z" fill="#263238"/>
<path d="M35.8192 16.4143C35.9887 16.5462 36.1517 16.7835 36.3669 16.8099C36.5821 16.8363 36.8103 16.6055 36.9864 16.3813H37.019C37.019 16.8231 36.8299 17.2648 36.406 17.3242C35.9822 17.3835 35.754 16.9813 35.6953 16.5396C35.6953 16.4671 35.7605 16.3484 35.8192 16.4143Z" fill="#263238"/>
<path d="M33.4783 19.968C33.4783 19.968 33.5304 21.0427 33.4783 21.5438C33.4783 21.5899 33.3544 21.6031 33.1848 21.5965C32.7531 21.638 32.3184 21.5585 31.9284 21.3665C31.5385 21.1746 31.2084 20.8778 30.9743 20.5087C30.9689 20.4973 30.9676 20.4844 30.9708 20.4722C30.9739 20.4601 30.9813 20.4494 30.9915 20.4423C31.0018 20.4351 31.0142 20.4319 31.0266 20.4332C31.039 20.4345 31.0505 20.4402 31.0591 20.4493C31.6516 20.9406 32.3865 21.223 33.1522 21.2537C33.1979 21.1218 32.9957 19.4208 33.074 19.4208C33.455 19.4907 33.8254 19.6104 34.176 19.7768C34.1238 17.5417 33.7195 15.333 33.7 13.1045C33.7 13.0254 33.8173 13.0122 33.8304 13.1045C34.3382 15.4599 34.6112 17.8609 34.6455 20.2713C34.652 20.535 33.6674 20.0735 33.4783 19.968Z" fill="#263238"/>
<path d="M32.8914 21.2999C32.6105 21.6368 32.2491 21.8955 31.8415 22.0515C31.615 22.1274 31.3703 22.1274 31.1438 22.0515C30.6482 21.8998 30.6548 21.4317 30.7656 21.0361C30.8234 20.8266 30.9067 20.625 31.0134 20.4361C31.532 20.9196 32.1902 21.2223 32.8914 21.2999Z" fill="#263238"/>
<path d="M31.8415 22.0515C31.615 22.1274 31.3703 22.1274 31.1438 22.0515C30.6482 21.8998 30.6548 21.4317 30.7656 21.0361C31.0318 21.0583 31.2828 21.1706 31.478 21.3548C31.6733 21.5391 31.8013 21.7845 31.8415 22.0515Z" fill="#FF9CBD"/>
<path d="M20.1695 16.0253C21.3041 16.177 24.8187 13.6584 25.9794 8.23219C25.9794 8.23219 24.6035 13.032 24.0949 13.6782C23.5863 14.3243 26.0511 12.2606 27.0619 7.88935C28.2415 9.16271 29.5965 10.2574 31.0851 11.1398C33.0413 12.1354 34.2868 12.3661 34.4629 12.2474C34.6389 12.1288 31.8089 10.553 31.2025 9.43874C31.2025 9.43874 36.1583 13.1045 38.6361 13.8034C38.923 13.8825 40.4619 7.86957 37.0777 4.57298C33.6934 1.2764 26.9836 2.75327 25.0078 4.03894C25.0078 4.03894 23.006 3.92685 20.3194 6.41248C17.6329 8.8981 18.9827 15.8539 20.1695 16.0253Z" fill="#263238"/>
<path d="M22.0474 17.1264C22.0474 17.1264 20.1695 13.6254 18.6175 14.2715C17.0656 14.9177 18.2393 19.8098 19.876 20.6471C20.0774 20.7699 20.3011 20.8503 20.5339 20.8835C20.7667 20.9168 21.0038 20.9022 21.2308 20.8406C21.4579 20.7791 21.6704 20.6718 21.8555 20.5253C22.0407 20.3787 22.1946 20.1959 22.3083 19.9878L22.0474 17.1264Z" fill="#F7A9A0"/>
<path d="M18.9892 15.6627V15.7088C20.1303 16.3352 20.6324 17.5352 20.9454 18.7483C20.8901 18.6189 20.8076 18.5032 20.7035 18.4093C20.5994 18.3155 20.4764 18.2457 20.3429 18.2049C20.2094 18.1641 20.0687 18.1532 19.9306 18.1731C19.7926 18.1929 19.6604 18.243 19.5435 18.3197C19.5348 18.3197 19.5265 18.3232 19.5204 18.3294C19.5143 18.3356 19.5109 18.344 19.5109 18.3527C19.5109 18.3614 19.5143 18.3698 19.5204 18.376C19.5265 18.3822 19.5348 18.3857 19.5435 18.3857C19.7619 18.3441 19.9877 18.371 20.1905 18.463C20.3933 18.5549 20.5635 18.7074 20.6781 18.8999C20.8635 19.2235 21.0143 19.5661 21.128 19.9219C21.1737 20.0406 21.3758 20.001 21.3497 19.8757C21.5584 18.3066 20.6129 16.0055 18.9892 15.6627Z" fill="#263238"/>
</g>
<defs>
<clipPath id="clip0_248_15269">
<rect width="53" height="53" rx="26.5" fill="white"/>
</clipPath>
</defs>
</svg>
