<svg width="24" height="25" viewBox="0 0 24 25" fill="none" xmlns="http://www.w3.org/2000/svg">
<path d="M21.3333 0.59668H2.66667C1.2 0.59668 0 1.79668 0 3.26335V21.93C0 23.3967 1.2 24.5967 2.66667 24.5967H21.3333C22.8 24.5967 24 23.3967 24 21.93V3.26335C24 1.79668 22.8 0.59668 21.3333 0.59668ZM12 4.59668C14.5733 4.59668 16.6667 6.69001 16.6667 9.26335C16.6667 11.8367 14.5733 13.93 12 13.93C9.42667 13.93 7.33333 11.8367 7.33333 9.26335C7.33333 6.69001 9.42667 4.59668 12 4.59668ZM21.3333 21.93H2.66667V21.6233C2.66667 20.7967 3.04 20.0233 3.68 19.5167C5.96 17.69 8.85333 16.5967 12 16.5967C15.1467 16.5967 18.04 17.69 20.32 19.5167C20.96 20.0233 21.3333 20.81 21.3333 21.6233V21.93Z" fill="#09C2DE"/>
</svg>
