<svg width="256" height="261" viewBox="0 0 256 261" fill="none" xmlns="http://www.w3.org/2000/svg">
<path d="M43.6674 173.429C45.2634 163.694 38.665 154.508 28.9296 152.912C19.1942 151.316 10.0083 157.914 8.41227 167.65C6.81629 177.385 13.4146 186.571 23.15 188.167C32.8855 189.763 42.0714 183.165 43.6674 173.429Z" fill="white" stroke="#263238" stroke-linecap="round" stroke-linejoin="round"/>
<path d="M35.1012 175.147C37.0468 171.033 34.3717 165.687 29.1261 163.207C23.8805 160.726 18.0509 162.05 16.1052 166.164C14.1596 170.278 16.8348 175.624 22.0804 178.105C27.3259 180.586 33.1556 179.262 35.1012 175.147Z" fill="#CCE5FD" stroke="#263238" stroke-linecap="round" stroke-linejoin="round"/>
<path d="M35.7499 173.748C37.575 169.889 34.8022 164.749 29.5567 162.269C24.3111 159.788 18.5791 160.905 16.754 164.765C14.9288 168.624 17.7016 173.764 22.9472 176.245C28.1928 178.725 33.9247 177.608 35.7499 173.748Z" fill="#CCE5FD" stroke="#263238" stroke-linecap="round" stroke-linejoin="round"/>
<path d="M29.2819 163.976L22.7977 173.094" stroke="#263238" stroke-linecap="round" stroke-linejoin="round"/>
<path d="M25.3783 162.498C26.2473 162.616 27.1034 162.814 27.9353 163.092" stroke="white" stroke-linecap="round" stroke-linejoin="round"/>
<path d="M19.6179 171.083C19.6179 171.083 16.3075 167.458 19.5407 163.964C20.2869 163.203 21.2585 162.704 22.3112 162.54" stroke="white" stroke-linecap="round" stroke-linejoin="round"/>
<path d="M208.094 106.739C225.105 106.739 238.894 92.9488 238.894 75.9383C238.894 58.9278 225.105 45.1381 208.094 45.1381C191.084 45.1381 177.294 58.9278 177.294 75.9383C177.294 92.9488 191.084 106.739 208.094 106.739Z" fill="white" stroke="#263238" stroke-linecap="round" stroke-linejoin="round"/>
<path d="M205.782 61.6992C206.079 62.3641 204.227 63.8371 201.691 64.993C199.154 66.1489 196.781 66.5478 196.484 65.8727C196.187 65.1976 198.029 63.7348 200.576 62.5789C203.123 61.423 205.475 61.065 205.782 61.6992Z" fill="white" stroke="#263238" stroke-linecap="round" stroke-linejoin="round"/>
<path d="M219.643 90.2695L210.426 94.7294L202.161 77.708L196.453 65.9443L205.67 61.4742L211.235 72.9514L219.643 90.2695Z" fill="white" stroke="#263238" stroke-linecap="round" stroke-linejoin="round"/>
<path d="M198.162 69.453L202.161 67.6015Z" fill="#CCE5FD"/>
<path d="M198.162 69.453L202.161 67.6015" stroke="#263238" stroke-linecap="round" stroke-linejoin="round"/>
<path d="M199.901 73.156L203.9 71.3045Z" fill="#CCE5FD"/>
<path d="M199.901 73.156L203.9 71.3045" stroke="#263238" stroke-linecap="round" stroke-linejoin="round"/>
<path d="M213.955 93.0211L218.712 99.261L216.339 91.8652L213.955 93.0211Z" fill="white" stroke="#263238" stroke-linecap="round" stroke-linejoin="round"/>
<path d="M219.643 90.2695C217.485 92.4297 214.732 93.8971 211.736 94.4839L210.426 94.7294L202.161 77.708L211.234 72.9514L219.643 90.2695Z" fill="#CCE5FD" stroke="#263238" stroke-miterlimit="10"/>
<path d="M203.9 80.9404L207.665 79.2014" stroke="#263238" stroke-linecap="round" stroke-linejoin="round"/>
<path d="M205.966 84.8991L209.659 83.2113Z" fill="#CCE5FD"/>
<path d="M205.966 84.8991L209.659 83.2113" stroke="#263238" stroke-linecap="round" stroke-linejoin="round"/>
<path d="M199.645 64.3895L196.729 57.8326L199.021 56.5335L202.161 63.1722L199.645 64.3895Z" fill="white" stroke="#263238" stroke-linecap="round" stroke-linejoin="round"/>
<path d="M204.647 55.7356L203.951 54.2012L191.676 59.6943L192.372 61.2287C192.658 61.8833 195.635 61.1673 199.031 59.6534C202.427 58.1394 204.933 56.38 204.647 55.7356Z" fill="white" stroke="#263238" stroke-linecap="round" stroke-linejoin="round"/>
<path d="M203.951 54.2012C203.665 53.5567 200.678 54.2626 197.292 55.7765C193.906 57.2904 191.39 59.0498 191.676 59.6943C191.963 60.3387 194.95 59.6329 198.335 58.1087C201.721 56.5846 204.238 54.8456 203.951 54.2012Z" fill="white" stroke="#263238" stroke-linecap="round" stroke-linejoin="round"/>
<path d="M238.395 180.436L193.833 145.432C193.143 144.89 192.144 145.01 191.602 145.7L142.779 207.852C142.237 208.543 142.357 209.542 143.047 210.084L187.61 245.089C188.3 245.631 189.299 245.511 189.841 244.821L238.664 182.668C239.206 181.978 239.086 180.979 238.395 180.436Z" fill="#E0E0E0"/>
<path d="M235.934 180.739L194.126 147.897L146.855 208.074L188.664 240.915L235.934 180.739Z" fill="#FAFAFA"/>
<path d="M222.823 171.904C223.066 170.719 222.974 169.489 222.557 168.353C222.139 167.217 221.413 166.221 220.46 165.475L222.437 162.888C222.801 162.426 223.07 161.897 223.228 161.331C223.387 160.765 223.433 160.173 223.362 159.589C223.292 159.005 223.107 158.441 222.819 157.929C222.53 157.417 222.143 156.966 221.681 156.604V156.604C220.747 155.873 219.562 155.542 218.386 155.683C217.209 155.824 216.136 156.426 215.402 157.357L213.303 160.026L212.391 159.335C211.441 158.612 210.31 158.165 209.122 158.042C207.934 157.919 206.736 158.125 205.657 158.638L204.296 159.306L222.498 173.606L222.823 171.904ZM217.491 162.121C217.115 161.826 216.835 161.427 216.687 160.973C216.538 160.519 216.527 160.031 216.656 159.571C216.785 159.111 217.047 158.7 217.41 158.389C217.772 158.078 218.219 157.882 218.693 157.825C219.167 157.768 219.648 157.853 220.073 158.07C220.499 158.286 220.851 158.624 221.085 159.04C221.319 159.457 221.424 159.933 221.387 160.409C221.35 160.885 221.172 161.34 220.877 161.715C220.681 161.964 220.439 162.173 220.163 162.328C219.887 162.484 219.583 162.583 219.268 162.621C218.954 162.659 218.635 162.634 218.33 162.548C218.025 162.462 217.74 162.317 217.491 162.121V162.121Z" fill="#EBEBEB"/>
<path d="M202.934 168.592C202.874 168.665 200.29 166.739 197.146 164.286C194.002 161.833 191.522 159.774 191.57 159.677C191.618 159.58 194.214 161.53 197.358 163.983C200.502 166.436 202.993 168.519 202.934 168.592Z" fill="#E0E0E0"/>
<path d="M195.563 165.893C194.552 165.316 193.601 164.641 192.722 163.879C191.774 163.207 190.894 162.443 190.096 161.598C191.105 162.178 192.056 162.852 192.937 163.612C193.885 164.284 194.765 165.048 195.563 165.893V165.893Z" fill="#E0E0E0"/>
<path d="M218.014 192.139C217.954 192.212 210.839 186.728 202.129 179.882C193.42 173.035 186.4 167.431 186.436 167.369C186.472 167.308 193.604 172.783 202.32 179.627C211.035 186.47 218.073 192.066 218.014 192.139Z" fill="#E0E0E0"/>
<path d="M215.671 195.133C215.614 195.212 208.502 189.72 199.789 182.882C191.077 176.044 184.06 170.431 184.093 170.364C184.126 170.296 191.262 175.777 199.977 182.621C208.693 189.464 215.707 195.072 215.671 195.133Z" fill="#E0E0E0"/>
<path d="M213.284 198.157C213.224 198.23 206.115 192.743 197.399 185.899C188.684 179.056 181.67 173.449 181.706 173.387C181.742 173.325 188.874 178.801 197.59 185.644C206.305 192.488 213.343 198.083 213.284 198.157Z" fill="#E0E0E0"/>
<path d="M210.92 201.168C210.86 201.242 203.751 195.755 195.042 188.908C186.332 182.062 179.312 176.457 179.348 176.396C179.384 176.334 186.514 181.804 195.232 188.653C203.951 195.502 210.977 201.089 210.92 201.168Z" fill="#E0E0E0"/>
<path d="M208.559 204.171C208.503 204.25 201.385 198.76 192.678 191.92C183.972 185.079 176.949 179.469 176.982 179.402C177.015 179.334 184.15 184.815 192.866 191.659C201.581 198.502 208.619 204.098 208.559 204.171Z" fill="#E0E0E0"/>
<path d="M206.166 207.197C206.107 207.271 198.998 201.784 190.282 194.94C181.567 188.097 174.553 182.49 174.589 182.428C174.624 182.366 181.757 187.842 190.473 194.685C199.188 201.529 206.255 207.11 206.166 207.197Z" fill="#E0E0E0"/>
<path d="M188.288 197.506C188.056 197.392 187.838 197.253 187.636 197.092L185.876 195.796C184.433 194.697 182.447 193.167 180.271 191.458C178.095 189.75 176.134 188.178 174.72 187.036L173.055 185.649C172.846 185.489 172.653 185.308 172.481 185.108C172.714 185.221 172.932 185.36 173.133 185.523L174.858 186.806C176.301 187.905 178.289 189.441 180.465 191.15C182.641 192.859 184.6 194.424 186.013 195.567L187.672 196.956C187.899 197.114 188.106 197.298 188.288 197.506V197.506Z" fill="#E0E0E0"/>
<path d="M225.292 185.73C224.338 185.204 223.444 184.576 222.624 183.859C221.746 183.238 220.935 182.529 220.204 181.741C221.145 182.263 222.028 182.884 222.839 183.592C223.731 184.214 224.554 184.931 225.292 185.73V185.73Z" fill="#E0E0E0"/>
<path d="M175.965 198.429C174.498 197.496 173.095 196.467 171.764 195.349C170.361 194.318 169.027 193.196 167.771 191.99C169.237 192.924 170.641 193.953 171.972 195.07C173.375 196.101 174.709 197.223 175.965 198.429V198.429Z" fill="#E0E0E0"/>
<path d="M174.097 201.373C172.607 200.422 171.18 199.376 169.826 198.24C168.4 197.194 167.043 196.056 165.766 194.833C167.256 195.784 168.683 196.831 170.037 197.967C171.459 199.018 172.815 200.156 174.097 201.373V201.373Z" fill="#E0E0E0"/>
<path d="M200.055 216.685C199.298 216.308 198.596 215.83 197.968 215.263C197.272 214.786 196.642 214.218 196.096 213.574C197.55 214.427 198.882 215.474 200.055 216.685V216.685Z" fill="#E0E0E0"/>
<path d="M198.26 219.256C197.505 218.876 196.804 218.397 196.174 217.834C195.475 217.356 194.845 216.786 194.299 216.139C195.055 216.516 195.757 216.995 196.385 217.561C197.086 218.036 197.717 218.606 198.26 219.256V219.256Z" fill="#E0E0E0"/>
<path d="M167.987 201.258C167.255 200.897 166.577 200.437 165.971 199.89C165.298 199.425 164.689 198.875 164.16 198.252C164.895 198.61 165.576 199.069 166.182 199.617C166.859 200.076 167.466 200.628 167.987 201.258Z" fill="#E0E0E0"/>
<path d="M196.142 222.228C195.052 221.66 194.079 220.891 193.274 219.963C194.364 220.531 195.337 221.299 196.142 222.228Z" fill="#E0E0E0"/>
<path d="M158.853 204.516C158.853 204.516 158.927 204.546 159.059 204.62L159.635 204.955L161.805 206.262L169.488 211.019L169.644 211.112L169.525 211.244C168.848 211.977 167.938 212.455 166.95 212.596C166.402 212.687 165.841 212.648 165.312 212.482C164.783 212.317 164.3 212.029 163.902 211.642C163.504 211.256 163.203 210.781 163.022 210.257C162.841 209.733 162.786 209.173 162.861 208.623C162.982 208.033 163.275 207.49 163.702 207.065C164.13 206.64 164.673 206.35 165.264 206.231C165.718 206.134 166.189 206.156 166.632 206.294C166.744 206.323 166.852 206.364 166.956 206.415C167.068 206.459 167.174 206.518 167.27 206.591C167.336 206.637 167.389 206.7 167.425 206.772C167.46 206.845 167.477 206.925 167.474 207.005C167.456 207.139 167.401 207.266 167.315 207.37C166.815 208.062 166.166 208.632 165.415 209.037C164.7 209.441 163.907 209.687 163.089 209.761C162.29 209.87 161.478 209.713 160.777 209.316C160.447 209.101 160.183 208.798 160.017 208.44C159.85 208.083 159.788 207.686 159.836 207.295C159.91 206.572 160.229 205.897 160.741 205.382C161.704 204.569 162.853 204.005 164.085 203.74L164.328 203.665L164.231 203.903C163.824 204.881 163.127 205.711 162.232 206.28C161.569 206.714 160.819 207 160.035 207.117C159.546 207.186 159.049 207.183 158.56 207.106C158.434 207.084 158.309 207.055 158.187 207.018C158.101 206.993 158.06 206.984 158.063 206.975C158.711 207.085 159.372 207.087 160.021 206.984C160.778 206.85 161.498 206.557 162.133 206.123C162.979 205.563 163.635 204.759 164.014 203.819L164.163 203.973C162.976 204.233 161.869 204.776 160.937 205.557C160.48 206.028 160.198 206.641 160.137 207.294C160.093 207.629 160.146 207.969 160.288 208.275C160.431 208.581 160.657 208.84 160.941 209.022C161.586 209.377 162.328 209.513 163.056 209.409C163.84 209.331 164.598 209.087 165.282 208.696C165.966 208.305 166.56 207.774 167.024 207.138C167.064 207.081 167.093 207.017 167.108 206.95C167.11 206.924 167.105 206.899 167.094 206.876C167.083 206.853 167.066 206.834 167.045 206.819C166.889 206.715 166.717 206.638 166.536 206.592C166.15 206.481 165.742 206.469 165.351 206.556C164.826 206.662 164.344 206.919 163.963 207.295C163.583 207.671 163.321 208.15 163.209 208.673C163.141 209.172 163.192 209.68 163.356 210.155C163.52 210.631 163.794 211.061 164.155 211.412C164.516 211.763 164.954 212.024 165.434 212.175C165.914 212.326 166.423 212.362 166.919 212.28C167.836 212.152 168.681 211.714 169.314 211.039L169.345 211.266L161.703 206.415L159.56 205.043L159.003 204.67C158.946 204.626 158.896 204.574 158.853 204.516V204.516Z" fill="#E0E0E0"/>
<path d="M188.866 227.923C188.675 228.01 188.472 228.071 188.263 228.102C188.013 228.15 187.756 228.162 187.502 228.137C187.147 228.101 186.818 227.936 186.576 227.674C186.415 227.515 186.312 227.306 186.286 227.082C186.272 226.846 186.322 226.611 186.429 226.401C186.672 225.981 186.939 225.575 187.229 225.186C187.828 224.341 188.483 223.402 189.195 222.399L189.385 222.636C188.006 223.254 186.5 223.927 184.923 224.636C184.55 224.819 184.175 224.966 183.808 225.132L183.216 225.422L183.636 224.886C184.901 223.258 186.089 221.742 187.119 220.413L187.241 220.662C185.708 220.952 184.221 221.447 182.821 222.134C181.809 222.631 181.266 222.978 181.229 222.916C181.342 222.807 181.467 222.711 181.602 222.63C181.969 222.383 182.347 222.156 182.737 221.948C184.125 221.201 185.616 220.662 187.16 220.349L187.547 220.269L187.303 220.58C186.285 221.917 185.115 223.44 183.861 225.076L183.66 224.815C184.021 224.638 184.396 224.49 184.775 224.319C186.358 223.623 187.867 222.955 189.249 222.343L189.782 222.081L189.436 222.56C188.715 223.56 188.039 224.487 187.434 225.32C187.138 225.686 186.861 226.067 186.606 226.462C186.506 226.619 186.459 226.803 186.47 226.989C186.48 227.175 186.549 227.353 186.666 227.497C186.864 227.693 187.108 227.836 187.375 227.915C187.642 227.994 187.924 228.007 188.197 227.951C188.419 227.926 188.643 227.917 188.866 227.923Z" fill="#E0E0E0"/>
<path d="M191.06 226.78C191.015 226.868 188.08 225.304 184.482 223.243C180.884 221.182 178.03 219.483 178.078 219.401C178.126 219.319 181.058 220.877 184.65 222.941C188.241 225.005 191.096 226.689 191.06 226.78Z" fill="#E0E0E0"/>
<path d="M192.01 230.031C190.102 229.397 188.231 228.657 186.404 227.817C184.534 227.077 182.707 226.233 180.931 225.288C182.84 225.92 184.711 226.659 186.536 227.502C188.409 228.237 190.236 229.082 192.01 230.031V230.031Z" fill="#E0E0E0"/>
<path d="M84.0067 198.902C84.0067 198.902 65.2519 211.643 64.2232 241.384C63.8802 251.362 68.78 283.128 68.78 283.128L178.467 283.569L157.951 198.428L123.442 190.514L84.0067 198.902Z" fill="#CCE5FD"/>
<path d="M125.908 220.981L110.965 283.319L148.317 283.569L125.908 220.981Z" fill="#263238"/>
<path d="M125.341 207.482C125.459 208.155 125.525 208.836 125.539 209.52C125.625 210.891 125.73 212.58 125.849 214.452C125.968 216.325 126.034 218.126 126.06 219.385C126.105 220.069 126.089 220.755 126.014 221.436C125.896 220.763 125.83 220.082 125.816 219.398C125.73 218.033 125.625 216.338 125.506 214.472C125.387 212.606 125.321 210.799 125.302 209.533C125.253 208.849 125.266 208.163 125.341 207.482Z" fill="#263238"/>
<path d="M132.107 214.353C132.107 214.386 131.863 214.439 131.448 214.67C130.903 214.997 130.469 215.479 130.201 216.055C129.994 216.469 129.897 216.929 129.92 217.391C129.944 217.853 130.086 218.302 130.333 218.693C130.616 219.183 131.042 219.575 131.553 219.818C132.064 220.061 132.636 220.143 133.195 220.054C133.754 219.965 134.273 219.708 134.682 219.318C135.092 218.928 135.374 218.422 135.49 217.868C135.607 217.425 135.607 216.959 135.492 216.516C135.376 216.072 135.149 215.666 134.831 215.336C134.398 214.871 133.835 214.547 133.215 214.406C132.78 214.307 132.556 214.334 132.516 214.301C132.476 214.268 132.582 214.301 132.701 214.261C132.88 214.235 133.062 214.235 133.241 214.261C133.909 214.359 134.528 214.671 135.002 215.151C135.337 215.482 135.594 215.883 135.754 216.325C135.931 216.844 135.956 217.402 135.826 217.934C135.698 218.551 135.385 219.115 134.929 219.55C134.473 219.985 133.895 220.271 133.272 220.37C132.649 220.469 132.011 220.376 131.443 220.103C130.874 219.831 130.402 219.392 130.089 218.844C129.802 218.379 129.653 217.841 129.661 217.295C129.68 216.835 129.799 216.385 130.01 215.976C130.312 215.37 130.803 214.88 131.408 214.578C131.568 214.494 131.739 214.434 131.916 214.4C132.041 214.347 132.101 214.34 132.107 214.353Z" fill="#263238"/>
<path d="M144.063 248.388C144.063 248.388 143.819 248.48 143.404 248.704C142.861 249.032 142.429 249.514 142.164 250.089C141.957 250.503 141.86 250.963 141.883 251.425C141.906 251.888 142.048 252.336 142.296 252.727C142.579 253.217 143.004 253.609 143.515 253.852C144.026 254.095 144.599 254.178 145.158 254.088C145.716 253.999 146.235 253.742 146.645 253.352C147.055 252.962 147.336 252.456 147.453 251.903C147.569 251.459 147.569 250.994 147.453 250.55C147.338 250.107 147.111 249.701 146.793 249.37C146.362 248.906 145.802 248.582 145.184 248.44C144.742 248.342 144.485 248.368 144.485 248.335C144.543 248.309 144.606 248.296 144.67 248.295C144.847 248.273 145.027 248.273 145.204 248.295C145.875 248.394 146.495 248.709 146.971 249.192C147.305 249.519 147.56 249.919 147.716 250.359C147.9 250.877 147.925 251.437 147.789 251.969C147.666 252.589 147.355 253.156 146.9 253.594C146.444 254.032 145.865 254.321 145.241 254.42C144.616 254.519 143.976 254.424 143.407 254.149C142.839 253.873 142.368 253.43 142.058 252.879C141.765 252.416 141.616 251.877 141.63 251.329C141.646 250.869 141.765 250.418 141.979 250.01C142.281 249.405 142.772 248.914 143.377 248.612C143.538 248.53 143.709 248.471 143.885 248.434C143.942 248.41 144.002 248.395 144.063 248.388V248.388Z" fill="#263238"/>
<path d="M105.281 223.671C105.212 223.776 105.132 223.873 105.043 223.962C104.885 224.146 104.648 224.417 104.324 224.753C103.4 225.697 102.413 226.578 101.37 227.391C97.8988 230.052 93.8954 231.934 89.6319 232.91C87.2911 233.472 84.8775 233.668 82.4768 233.491C80.4969 233.348 78.5944 232.663 76.977 231.512C75.8967 230.723 75.0289 229.679 74.4513 228.472C74.3062 228.144 74.1871 227.804 74.0952 227.457C74.0579 227.337 74.038 227.213 74.0358 227.087C74.0688 227.087 74.1677 227.589 74.5766 228.406C75.1822 229.56 76.055 230.553 77.1221 231.301C78.7157 232.397 80.5738 233.046 82.5032 233.181C84.8723 233.331 87.2506 233.127 89.5593 232.574C93.7784 231.607 97.7508 229.775 101.225 227.193C102.272 226.408 103.273 225.565 104.226 224.667L104.997 223.922C105.175 223.744 105.267 223.671 105.281 223.671Z" fill="#263238"/>
<path d="M105.281 229.844C105.212 229.949 105.132 230.046 105.043 230.134C104.885 230.319 104.648 230.596 104.324 230.932C100.314 235.005 95.2116 237.833 89.6319 239.076C87.2914 239.64 84.8778 239.838 82.4768 239.663C80.4976 239.517 78.5958 238.833 76.977 237.685C75.8959 236.9 75.0277 235.857 74.4513 234.651C74.305 234.321 74.1859 233.979 74.0952 233.629C74.0573 233.51 74.0373 233.385 74.0358 233.26C74.0688 233.26 74.1677 233.761 74.5766 234.579C75.1818 235.735 76.0545 236.73 77.1221 237.48C78.7164 238.574 80.5745 239.221 82.5032 239.353C84.8724 239.507 87.2512 239.302 89.5593 238.747C93.7769 237.779 97.7487 235.949 101.225 233.372C102.272 232.585 103.274 231.74 104.226 230.84L104.997 230.095C105.081 230 105.177 229.916 105.281 229.844V229.844Z" fill="#263238"/>
<path d="M106.25 227.978C106.274 228.064 106.289 228.152 106.296 228.241C106.296 228.433 106.342 228.697 106.382 229.026C106.461 229.738 106.573 230.754 106.712 232.053C106.989 234.691 107.516 238.47 107.754 243.198C107.889 245.777 107.834 248.362 107.589 250.933C107.319 253.895 106.653 256.807 105.61 259.592C104.461 262.689 102.639 265.493 100.275 267.802C99.021 269.017 97.6106 270.059 96.0813 270.901C94.4992 271.763 92.7894 272.367 91.0167 272.689C87.4817 273.263 83.857 272.592 80.7622 270.789C77.8761 269.154 75.444 266.824 73.6863 264.01C72.1365 261.467 71.0221 258.683 70.3891 255.774C69.8255 253.244 69.5206 250.663 69.479 248.071C69.465 244.335 69.7295 240.603 70.2704 236.907C70.4616 235.588 70.6067 234.599 70.7056 233.893C70.7584 233.563 70.8045 233.306 70.8309 233.108C70.8431 233.019 70.8629 232.931 70.8902 232.844C70.899 232.934 70.899 233.025 70.8902 233.115C70.8902 233.313 70.8375 233.57 70.7979 233.9C70.7122 234.612 70.5869 235.627 70.422 236.92C69.94 240.615 69.7196 244.339 69.7626 248.065C69.8182 250.633 70.1319 253.189 70.699 255.694C71.3422 258.566 72.4564 261.311 73.9963 263.819C75.7189 266.587 78.1059 268.881 80.9403 270.493C83.9676 272.255 87.5134 272.91 90.9706 272.346C92.7074 272.036 94.3823 271.446 95.9296 270.598C97.4344 269.772 98.8226 268.75 100.058 267.558C102.391 265.287 104.192 262.529 105.333 259.48C106.37 256.723 107.036 253.84 107.312 250.907C107.569 248.35 107.638 245.778 107.516 243.211C107.312 238.496 106.857 234.698 106.586 232.066C106.454 230.747 106.369 229.725 106.316 229.033C106.316 228.703 106.276 228.439 106.263 228.241C106.25 228.044 106.25 227.978 106.25 227.978Z" fill="#263238"/>
<g opacity="0.2">
<path opacity="0.2" d="M71.9322 260.64C73.1192 264.663 73.627 265.705 75.8493 268.916C77.9016 271.96 80.9048 274.237 84.3892 275.392C86.8802 276.252 89.5497 276.461 92.1442 276C94.7387 275.538 97.1722 274.421 99.2137 272.754C103.243 269.385 104.667 264.182 105.366 260.654C103.612 263.014 101.746 266.371 99.5368 268.316C97.3277 270.262 94.4063 271.963 91.4915 272.471C87.5348 273.13 82.8197 271.943 79.4367 269.794C76.0537 267.644 74.0094 263.793 71.9124 260.647" fill="black"/>
</g>
<g opacity="0.2">
<path opacity="0.2" d="M74.7546 235.06C75.5068 236.737 76.6556 238.206 78.102 239.34C79.5485 240.474 81.2491 241.239 83.0571 241.569C86.6248 242.228 91.2475 241.101 93.4765 237.751C85.629 240.507 77.8277 240.573 74.7546 235.06Z" fill="black"/>
</g>
<path d="M139.242 225.333C139.074 225.362 138.903 225.362 138.735 225.333C138.288 225.272 137.847 225.175 137.416 225.043C134.477 224.171 131.957 222.258 130.327 219.662C130.078 219.274 129.858 218.868 129.667 218.449C129.542 218.145 129.483 217.98 129.509 217.967C129.535 217.954 129.865 218.587 130.511 219.53C131.362 220.746 132.394 221.825 133.571 222.728C134.757 223.621 136.074 224.324 137.475 224.812C138.55 225.149 139.249 225.274 139.242 225.333Z" fill="#263238"/>
<g opacity="0.2">
<path opacity="0.2" d="M130.116 218.396C130.927 221.152 133.987 223.724 136.71 224.628C137.243 224.826 137.811 224.909 138.379 224.872C138.662 224.852 138.938 224.771 139.186 224.633C139.435 224.495 139.65 224.304 139.816 224.074C140.39 223.197 139.895 221.95 139.051 221.33C138.153 220.783 137.152 220.426 136.11 220.282C134.006 219.794 132.107 220.856 130.366 219.088" fill="black"/>
</g>
<g opacity="0.2">
<path opacity="0.2" d="M71.7937 213.292C76.7132 217.591 83.6638 217.776 89.922 215.93C96.1802 214.083 101.634 210.608 106.949 206.809C101.153 207.963 96.2066 210.608 90.3573 211.472C84.7717 212.296 78.9619 212.382 73.4687 210.515" fill="black"/>
</g>
<path d="M166.135 279.342C166.098 279.374 166.056 279.399 166.01 279.415C165.884 279.482 165.754 279.542 165.62 279.593C165.108 279.8 164.568 279.933 164.018 279.989C161.978 280.158 159.943 279.612 158.261 278.446C156.072 277.054 154.08 274.713 151.95 272.115C149.665 269.263 147.612 266.233 145.811 263.054C142.542 257.27 140.039 251.085 138.365 244.655C137.706 242.189 137.323 240.171 137.079 238.766C136.974 238.107 136.888 237.546 136.822 237.151C136.79 236.963 136.768 236.774 136.756 236.584C136.82 236.763 136.866 236.949 136.895 237.137L137.211 238.74C137.495 240.131 137.937 242.143 138.596 244.589C140.334 250.974 142.857 257.119 146.107 262.882C147.903 266.046 149.94 269.067 152.201 271.917C154.304 274.515 156.269 276.856 158.393 278.241C160.034 279.406 162.023 279.976 164.031 279.857C164.753 279.782 165.46 279.609 166.135 279.342V279.342Z" fill="#263238"/>
<g opacity="0.2">
<path opacity="0.2" d="M142.421 255.009C142.421 255.009 152.155 267.248 159.257 270.249C161.664 271.271 164.315 272.102 165.957 274.133C166.367 274.598 166.671 275.147 166.848 275.741C167.024 276.336 167.069 276.961 166.979 277.575C166.952 277.72 166.907 277.862 166.847 277.997C165.825 280.602 160.912 280.239 158.663 278.591C157.681 277.872 158.261 278.333 157.47 277.74C155.195 276.025 143.015 261.92 142.421 255.009Z" fill="black"/>
</g>
<path d="M99.4511 89.8159L105.663 88.5828L136.387 88.9455L151.996 92.3746L157.951 179.541L88.9395 182.766L99.4511 89.8159Z" fill="#E0E0E0"/>
<path d="M144.142 175.532L145.613 135.885L143.166 89.9149C152.873 92.4142 166.148 95.1905 173.501 103.572C178.269 109.013 182.944 115.97 184.712 127.174C186.743 140.363 189.42 165.587 191.095 179.699" fill="#CCE5FD"/>
<path d="M153.902 169.029L106.191 176.778L104.503 147.314L101.865 89.0642C88.0162 89.6313 72.2553 101.073 67.527 109.989C64.2298 116.174 61.4667 123.362 60.6028 130.319C58.9476 143.509 56.1449 166.108 54.4699 180.227C53.9633 184.518 54.4189 188.868 55.8037 192.96C57.1885 197.053 59.4677 200.786 62.4756 203.888V203.888C69.3999 211.03 80.2413 213.503 89.988 211.485L162.633 191.042L153.902 169.029Z" fill="#CCE5FD"/>
<path d="M148.864 168.502C148.868 168.446 148.879 168.39 148.897 168.337C148.936 168.218 148.983 168.06 149.035 167.862C149.174 167.42 149.358 166.807 149.602 166.022C150.117 164.4 150.849 162.066 151.759 159.177L159.244 135.806L159.343 136.011L151.607 132.812L151.304 132.687L151.574 132.509L153.361 131.335L159.197 127.523L159.131 127.708C156.164 117.407 153.553 108.32 151.673 101.785C150.756 98.5405 150.018 95.9291 149.497 94.109C149.259 93.2187 149.068 92.5263 148.93 92.0317C148.873 91.8163 148.826 91.6382 148.791 91.4976C148.77 91.4381 148.756 91.376 148.752 91.3129C148.752 91.3129 148.752 91.3657 148.818 91.4844L148.989 92.0185C149.141 92.5065 149.352 93.1923 149.616 94.076L151.891 101.719L159.455 127.616L159.488 127.734L159.382 127.807L153.553 131.625L151.765 132.792V132.489L159.494 135.701L159.639 135.76L159.593 135.905C156.546 145.263 153.889 153.407 151.99 159.243C151.033 162.131 150.275 164.446 149.741 166.055C149.477 166.833 149.266 167.447 149.121 167.882C149.055 168.073 148.996 168.225 148.956 168.35C148.931 168.404 148.9 168.455 148.864 168.502V168.502Z" fill="#263238"/>
<g opacity="0.2">
<path opacity="0.2" d="M159.415 127.761C159.026 129.191 158.184 130.457 157.015 131.368C156.105 131.889 156.626 132.581 157.377 133.307C158.281 134.177 159.732 134.415 160.398 135.47C161.064 136.525 160.688 137.732 160.345 138.84C157.041 149.35 153.032 159.626 148.343 169.596L159.415 135.852L151.693 132.667L159.415 127.761Z" fill="black"/>
</g>
<path d="M102.221 169.319C102.188 169.277 102.162 169.231 102.142 169.181C102.095 169.075 102.03 168.944 101.957 168.772L101.245 167.163C100.625 165.739 99.7412 163.688 98.607 161.129L89.711 140.277L89.6582 140.159L89.7703 140.079L95.8703 135.714V135.964L91.8278 132.759L90.0341 131.348L89.1439 130.689L88.9262 130.511C88.8805 130.478 88.8384 130.441 88.8009 130.399C88.7585 130.344 88.7271 130.281 88.7086 130.214C88.6601 130.018 88.6357 129.816 88.6361 129.614C88.6767 128.138 88.8133 126.667 89.0449 125.209C89.4472 122.353 89.922 119.61 90.3638 116.999C91.3003 111.782 92.2301 107.107 93.0017 103.15C93.7732 99.1934 94.4656 96.0478 94.9338 93.8584C95.1713 92.7769 95.3625 91.9328 95.4944 91.3327L95.6461 90.6732C95.6574 90.5979 95.6797 90.5246 95.712 90.4556C95.7084 90.5334 95.6974 90.6107 95.679 90.6864C95.679 90.8513 95.6065 91.0689 95.5603 91.3459C95.4416 91.9482 95.2768 92.7923 95.0657 93.8782C94.6305 96.0939 94.0106 99.2725 93.2457 103.19C92.4807 107.107 91.5838 111.809 90.6606 117.038C90.2056 119.643 89.7374 122.386 89.3417 125.235C89.1144 126.676 88.98 128.13 88.9394 129.587C88.9377 129.756 88.9577 129.925 88.9988 130.089C88.9988 130.168 89.19 130.287 89.3285 130.405L90.2122 131.104L91.9993 132.522L96.0351 135.72L96.2132 135.865L96.0285 135.997L89.922 140.35L89.9748 140.145L98.818 161.024C99.8929 163.602 100.75 165.64 101.344 167.097C101.627 167.79 101.852 168.33 102.003 168.726L102.161 169.148C102.186 169.203 102.206 169.261 102.221 169.319Z" fill="#263238"/>
<path d="M159.908 140.708L111.836 133.292C110.968 133.158 110.157 133.753 110.023 134.62L99.6547 201.828C99.5209 202.695 100.116 203.507 100.983 203.641L149.056 211.057C149.923 211.191 150.735 210.596 150.869 209.729L161.237 142.521C161.371 141.654 160.776 140.842 159.908 140.708Z" fill="#CCE5FD"/>
<g opacity="0.2">
<path opacity="0.2" d="M159.908 140.708L111.836 133.292C110.968 133.158 110.157 133.753 110.023 134.62L99.6547 201.828C99.5209 202.695 100.116 203.507 100.983 203.641L149.056 211.057C149.923 211.191 150.735 210.596 150.869 209.729L161.237 142.521C161.371 141.654 160.776 140.842 159.908 140.708Z" fill="black"/>
</g>
<path d="M158.391 142.005L112.892 134.986L102.79 200.473L148.288 207.492L158.391 142.005Z" fill="#EBEBEB"/>
<path d="M144.722 140.93C144.4 139.934 143.806 139.046 143.009 138.367C142.211 137.689 141.24 137.245 140.205 137.085L140.588 134.283C140.743 133.268 140.489 132.232 139.882 131.404C139.275 130.576 138.365 130.022 137.35 129.864C136.334 129.707 135.297 129.96 134.467 130.567C133.637 131.174 133.082 132.086 132.925 133.102L132.476 136.004L131.5 135.872C130.477 135.73 129.433 135.872 128.485 136.284C127.537 136.696 126.721 137.361 126.126 138.207L125.368 139.262L145.151 142.322L144.722 140.93ZM136.545 135.813C136.138 135.75 135.758 135.569 135.453 135.29C135.149 135.012 134.934 134.65 134.836 134.249C134.738 133.849 134.761 133.428 134.902 133.041C135.042 132.653 135.295 132.316 135.628 132.072C135.96 131.828 136.358 131.689 136.77 131.671C137.181 131.653 137.589 131.758 137.942 131.972C138.294 132.186 138.575 132.5 138.749 132.873C138.923 133.247 138.982 133.664 138.919 134.072C138.833 134.616 138.535 135.105 138.091 135.431C137.646 135.757 137.091 135.894 136.545 135.813V135.813Z" fill="#263238"/>
<path d="M128.309 146.878C126.23 146.734 124.16 146.475 122.11 146.1C120.045 145.837 117.995 145.463 115.97 144.979C118.047 145.123 120.115 145.383 122.163 145.757C124.23 146.02 126.282 146.395 128.309 146.878V146.878Z" fill="#263238"/>
<path d="M121.595 147.973C120.587 147.995 119.58 147.898 118.595 147.683C117.592 147.586 116.603 147.376 115.647 147.056C116.655 147.042 117.661 147.14 118.648 147.347C119.651 147.443 120.64 147.654 121.595 147.973V147.973Z" fill="#263238"/>
<path d="M149.682 158.247C149.682 158.34 141.966 157.225 132.49 155.768C123.013 154.31 115.344 153.038 115.344 152.945C115.344 152.853 123.053 153.961 132.536 155.425C142.019 156.889 149.695 158.148 149.682 158.247Z" fill="#263238"/>
<path d="M149.174 161.518C149.174 161.61 141.465 160.503 131.982 159.039C122.499 157.575 114.836 156.315 114.836 156.223C114.836 156.13 122.545 157.238 132.028 158.702C141.511 160.166 149.187 161.426 149.174 161.518Z" fill="#263238"/>
<path d="M148.673 164.796C148.673 164.888 140.957 163.773 131.481 162.316C122.004 160.859 114.335 159.586 114.335 159.494C114.335 159.401 122.051 160.509 131.533 161.973C141.016 163.437 148.686 164.697 148.673 164.796Z" fill="#263238"/>
<path d="M148.165 168.066C148.165 168.159 140.456 167.051 130.973 165.587C121.49 164.123 113.827 162.863 113.827 162.765C113.827 162.666 121.536 163.787 131.019 165.251C140.502 166.715 148.204 167.974 148.165 168.066Z" fill="#263238"/>
<path d="M147.657 171.337C147.657 171.436 139.948 170.322 130.465 168.858C120.982 167.394 113.319 166.134 113.319 166.042C113.319 165.95 121.028 167.058 130.511 168.521C139.994 169.985 147.677 171.245 147.657 171.337Z" fill="#263238"/>
<path d="M147.156 174.615C147.156 174.707 139.44 173.599 129.964 172.135C120.488 170.671 112.818 169.412 112.818 169.313C112.818 169.214 120.527 170.328 130.01 171.792C139.493 173.256 147.169 174.523 147.156 174.615Z" fill="#263238"/>
<path d="M129.535 174.918C129.315 174.929 129.094 174.916 128.876 174.879C128.434 174.832 127.808 174.753 127.029 174.648C125.466 174.437 123.317 174.127 120.949 173.764C118.582 173.401 116.439 173.045 114.889 172.775C114.111 172.643 113.491 172.524 113.056 172.439C112.829 172.412 112.607 172.354 112.396 172.267C112.617 172.252 112.838 172.265 113.056 172.307C113.497 172.353 114.124 172.432 114.902 172.538C116.465 172.742 118.615 173.059 120.982 173.421C123.35 173.784 125.493 174.14 127.043 174.41C127.821 174.542 128.441 174.661 128.876 174.747C129.102 174.774 129.324 174.831 129.535 174.918Z" fill="#263238"/>
<path d="M152.431 150.301C151.499 150.329 150.567 150.243 149.655 150.044C148.726 149.959 147.811 149.76 146.932 149.45C148.793 149.508 150.64 149.794 152.431 150.301V150.301Z" fill="#263238"/>
<path d="M120.626 180.847C119.12 180.786 117.621 180.612 116.142 180.326C114.645 180.153 113.163 179.867 111.71 179.468C113.216 179.529 114.715 179.703 116.195 179.989C117.691 180.164 119.172 180.45 120.626 180.847Z" fill="#263238"/>
<path d="M120.468 183.867C118.936 183.802 117.41 183.623 115.904 183.333C114.383 183.16 112.877 182.869 111.4 182.462C112.93 182.527 114.454 182.706 115.957 182.996C117.481 183.169 118.989 183.46 120.468 183.867V183.867Z" fill="#263238"/>
<path d="M146.556 184.395C145.095 184.4 143.642 184.177 142.25 183.735C142.981 183.677 143.717 183.73 144.432 183.893C145.163 183.944 145.88 184.113 146.556 184.395V184.395Z" fill="#263238"/>
<path d="M146.292 187.092C144.831 187.097 143.378 186.874 141.986 186.432C143.447 186.427 144.9 186.65 146.292 187.092V187.092Z" fill="#263238"/>
<path d="M115.825 186.347C115.118 186.405 114.406 186.354 113.715 186.195C113.009 186.142 112.316 185.975 111.664 185.7C112.369 185.638 113.079 185.689 113.768 185.852C114.476 185.903 115.171 186.07 115.825 186.347V186.347Z" fill="#263238"/>
<path d="M145.962 190.237C145.433 190.324 144.892 190.299 144.373 190.165C143.838 190.138 143.314 189.999 142.836 189.756C143.365 189.661 143.907 189.684 144.426 189.822C144.962 189.849 145.486 189.99 145.962 190.237V190.237Z" fill="#263238"/>
<path d="M110.299 192.71C110.558 192.687 110.818 192.687 111.077 192.71L113.267 192.776L121.088 193.086H121.266L121.226 193.258C121.03 194.105 120.545 194.858 119.855 195.388C119.489 195.68 119.061 195.886 118.604 195.99C118.148 196.094 117.673 196.093 117.217 195.988C116.729 195.875 116.277 195.644 115.899 195.317C115.521 194.989 115.228 194.574 115.047 194.108C114.881 193.607 114.869 193.068 115.012 192.56C115.156 192.052 115.448 191.599 115.852 191.259C116.148 190.992 116.506 190.801 116.894 190.705C116.991 190.68 117.09 190.665 117.19 190.659C117.298 190.646 117.406 190.646 117.513 190.659C117.586 190.671 117.654 190.7 117.712 190.744C117.771 190.787 117.818 190.844 117.85 190.91C117.893 191.023 117.907 191.146 117.889 191.266C117.803 192.004 117.557 192.715 117.171 193.35C116.794 193.958 116.298 194.483 115.713 194.893C115.142 195.321 114.448 195.552 113.735 195.552C113.391 195.528 113.061 195.409 112.781 195.207C112.502 195.006 112.284 194.73 112.152 194.412C111.9 193.831 111.853 193.182 112.02 192.572C112.411 191.555 113.045 190.649 113.867 189.934L114.045 189.756V190.006C114.15 190.916 113.975 191.837 113.544 192.644C113.223 193.255 112.772 193.788 112.225 194.207C111.883 194.471 111.503 194.681 111.097 194.827C110.958 194.883 110.811 194.918 110.662 194.933C111.198 194.737 111.699 194.456 112.146 194.102C112.654 193.677 113.07 193.152 113.366 192.559C113.762 191.778 113.912 190.894 113.794 190.026L114.005 190.092C113.225 190.792 112.626 191.67 112.258 192.651C112.114 193.197 112.16 193.776 112.39 194.293C112.499 194.558 112.681 194.788 112.914 194.955C113.147 195.123 113.422 195.223 113.708 195.243C114.338 195.236 114.949 195.025 115.449 194.642C116.007 194.252 116.476 193.749 116.825 193.164C117.174 192.58 117.395 191.929 117.474 191.253C117.489 191.194 117.489 191.133 117.474 191.075C117.474 191.042 117.474 191.029 117.382 191.015C117.222 191.006 117.062 191.022 116.907 191.062C116.574 191.146 116.267 191.309 116.01 191.536C115.661 191.834 115.408 192.228 115.283 192.67C115.157 193.111 115.165 193.579 115.304 194.016C115.463 194.418 115.714 194.777 116.037 195.064C116.36 195.351 116.746 195.558 117.164 195.669C117.582 195.779 118.02 195.79 118.442 195.7C118.865 195.609 119.261 195.421 119.597 195.15C120.235 194.673 120.685 193.987 120.87 193.211L121.009 193.389L113.253 192.934L111.064 192.789C110.808 192.779 110.552 192.752 110.299 192.71V192.71Z" fill="#263238"/>
<path d="M142.889 197.623C142.784 197.773 142.657 197.906 142.513 198.019C142.344 198.163 142.156 198.283 141.953 198.375C141.668 198.501 141.346 198.517 141.049 198.421C140.862 198.364 140.7 198.245 140.588 198.085C140.476 197.911 140.413 197.711 140.403 197.504C140.409 197.083 140.439 196.662 140.495 196.245C140.581 195.348 140.68 194.365 140.786 193.304L141.069 193.416L138.55 196.825L137.924 197.669L137.515 198.223L137.614 197.564C137.884 195.803 138.128 194.161 138.346 192.717L138.59 192.849C137.561 193.716 136.65 194.713 135.879 195.816C135.325 196.614 135.062 197.135 135.029 197.096C135.061 196.964 135.112 196.837 135.18 196.72C135.35 196.378 135.537 196.046 135.741 195.724C136.464 194.568 137.353 193.524 138.379 192.624L138.675 192.367L138.616 192.763C138.418 194.201 138.181 195.849 137.957 197.617L137.647 197.485L138.306 196.641C139.203 195.44 140.054 194.293 140.845 193.244L141.194 192.77L141.128 193.356C141.003 194.418 140.891 195.401 140.786 196.291C140.724 196.695 140.684 197.102 140.667 197.511C140.656 197.67 140.696 197.827 140.782 197.962C140.867 198.096 140.993 198.199 141.142 198.256C141.37 198.318 141.609 198.322 141.839 198.269C142.069 198.217 142.283 198.108 142.461 197.953C142.594 197.831 142.738 197.721 142.889 197.623V197.623Z" fill="#263238"/>
<path d="M144.05 195.829C141.897 195.989 139.738 196.035 137.581 195.968C135.424 196.015 133.267 195.949 131.118 195.77C133.268 195.606 135.425 195.557 137.581 195.625C139.739 195.577 141.899 195.646 144.05 195.829V195.829Z" fill="#263238"/>
<path d="M146.153 197.88C144.448 198.235 142.721 198.48 140.983 198.612C139.259 198.855 137.521 198.987 135.78 199.008C137.485 198.643 139.212 198.397 140.95 198.269C142.674 198.023 144.412 197.893 146.153 197.88Z" fill="#263238"/>
<g opacity="0.2">
<path opacity="0.2" d="M88.8075 129.983C88.7284 131.961 89.2626 133.979 90.9112 135.094C88.8471 136.096 87.7458 138.497 87.6799 140.792C87.6139 143.086 88.4119 145.315 89.2757 147.445C91.9465 153.994 97.6442 163.213 101.99 168.792C101.99 168.792 99.7874 162.857 99.1543 161.465C96.2923 155.207 93.7666 148.936 90.898 142.658C90.5815 141.998 90.0143 140.073 90.0143 140.073C90.3266 139.919 90.6152 139.721 90.8716 139.486C92.4807 138.167 95.9692 135.852 95.9692 135.852C95.9692 135.852 88.8075 130.181 88.8075 129.983" fill="black"/>
</g>
<path d="M88.7086 143.436C88.801 143.436 88.6361 151.053 88.3328 160.437C88.0294 169.821 87.7129 177.431 87.6205 177.424C87.5282 177.418 87.6865 169.814 87.9898 160.423C88.2932 151.033 88.6097 143.429 88.7086 143.436Z" fill="#263238"/>
<path d="M100.064 123.435H99.4049C99.4049 123.184 100.361 98.2371 101.106 88.3058C101.131 87.6088 101.297 86.924 101.595 86.2936C101.893 85.6631 102.317 85.1002 102.841 84.6392C104.898 82.8785 107.978 83.1093 108.116 83.1159L108.064 83.7753C108.031 83.7753 105.122 83.5643 103.276 85.1404C102.82 85.547 102.451 86.0418 102.192 86.5949C101.932 87.148 101.787 87.7479 101.766 88.3585C101.04 98.2173 100.097 123.158 100.064 123.435Z" fill="#263238"/>
<path d="M106.243 165.165H105.076V163.846H106.243C107.468 163.846 108.642 163.36 109.508 162.494C110.373 161.628 110.86 160.454 110.86 159.23V145.263H112.179V159.23C112.179 160.804 111.553 162.314 110.44 163.427C109.327 164.54 107.818 165.165 106.243 165.165V165.165Z" fill="#455A64"/>
<path d="M106.718 164.664C106.691 164.943 106.581 165.207 106.403 165.424C106.226 165.641 105.987 165.8 105.719 165.882C105.451 165.963 105.164 165.963 104.896 165.882C104.628 165.801 104.39 165.642 104.212 165.425C104.034 165.208 103.924 164.944 103.896 164.665C103.869 164.386 103.924 164.105 104.057 163.857C104.189 163.61 104.391 163.407 104.638 163.275C104.886 163.143 105.166 163.087 105.446 163.114C105.819 163.152 106.162 163.337 106.401 163.627C106.639 163.917 106.753 164.29 106.718 164.664V164.664Z" fill="#263238"/>
<path d="M94.8349 165.132H93.6677C92.0936 165.132 90.584 164.507 89.471 163.394C88.3579 162.281 87.7326 160.771 87.7326 159.197L87.7854 145.23H89.1043L89.0515 159.197C89.0515 160.421 89.5379 161.595 90.4036 162.461C91.2693 163.327 92.4434 163.813 93.6677 163.813H94.8349V165.132Z" fill="#455A64"/>
<path d="M93.1995 164.624C93.2268 164.902 93.3356 165.165 93.5124 165.381C93.6891 165.596 93.9258 165.755 94.1925 165.836C94.4592 165.917 94.7441 165.918 95.0111 165.837C95.278 165.757 95.5152 165.599 95.6926 165.384C95.8701 165.169 95.9798 164.906 96.008 164.629C96.0361 164.351 95.9815 164.072 95.8509 163.825C95.7203 163.579 95.5197 163.377 95.2743 163.244C95.029 163.112 94.7499 163.055 94.4722 163.081C94.2872 163.098 94.1074 163.152 93.9432 163.239C93.7789 163.326 93.6335 163.445 93.5152 163.588C93.397 163.732 93.3082 163.897 93.254 164.075C93.1998 164.252 93.1813 164.439 93.1995 164.624Z" fill="#263238"/>
<path d="M87.3963 146.839L87.2315 136.881C87.1062 129.291 92.6521 123.033 99.5962 122.907C101.287 122.892 102.963 123.233 104.514 123.908C106.065 124.583 107.456 125.577 108.598 126.824C111.024 129.45 112.385 132.884 112.416 136.459L112.581 146.423L110.602 146.456L110.438 136.492C110.414 133.406 109.238 130.44 107.14 128.176C106.19 127.126 105.028 126.29 103.731 125.721C102.435 125.153 101.032 124.866 99.616 124.879C93.76 124.978 89.0647 130.339 89.1966 136.841L89.3615 146.799L87.3963 146.839Z" fill="#263238"/>
<path d="M143.727 123.804C143.727 123.54 140.7 97.6172 139.829 89.3081L139.77 88.7015C139.5 85.879 139.183 82.6872 136.064 81.8431L136.235 81.1837C139.796 82.1465 140.146 85.7339 140.429 88.6157L140.489 89.2158C141.353 97.5249 144.353 123.448 144.38 123.712L143.727 123.804Z" fill="#263238"/>
<path d="M149.062 124.365C151.826 121.601 151.826 117.121 149.062 114.358C146.299 111.595 141.819 111.595 139.055 114.358C136.292 117.121 136.292 121.601 139.055 124.365C141.819 127.128 146.299 127.128 149.062 124.365Z" fill="#263238"/>
<path d="M147.472 119.359C147.472 120.037 147.271 120.699 146.895 121.262C146.519 121.825 145.984 122.263 145.358 122.522C144.732 122.781 144.044 122.848 143.38 122.716C142.716 122.583 142.106 122.256 141.627 121.777C141.149 121.298 140.824 120.687 140.692 120.023C140.561 119.359 140.63 118.67 140.89 118.045C141.15 117.42 141.589 116.886 142.153 116.51C142.717 116.135 143.379 115.936 144.056 115.937C144.506 115.937 144.95 116.025 145.365 116.197C145.78 116.37 146.157 116.622 146.474 116.94C146.792 117.258 147.043 117.635 147.214 118.05C147.386 118.465 147.473 118.91 147.472 119.359Z" fill="#455A64"/>
<path d="M102.221 169.319L93.338 191.167L164.196 210.812C167.435 211.715 170.835 211.887 174.148 211.317C177.462 210.747 180.608 209.448 183.36 207.515V207.515C190.772 202.285 192.592 193.139 191.689 184.085L190.409 174.457L102.221 169.319Z" fill="#CCE5FD"/>
<path d="M177.293 193.033C177.22 193.033 177.069 191.543 176.337 189.241C176.149 188.613 175.929 187.994 175.677 187.388C175.427 186.729 175.077 186.07 174.728 185.331C173.914 183.804 172.958 182.358 171.872 181.012C170.766 179.682 169.539 178.459 168.206 177.358C167.546 176.877 166.979 176.395 166.379 176.039C165.837 175.665 165.275 175.32 164.697 175.004C162.587 173.837 161.143 173.388 161.169 173.316C161.515 173.386 161.853 173.49 162.178 173.626C162.572 173.753 162.957 173.905 163.332 174.081C163.774 174.285 164.288 174.49 164.816 174.793C165.408 175.096 165.983 175.433 166.537 175.802C167.15 176.171 167.757 176.653 168.403 177.121C169.767 178.222 171.019 179.455 172.142 180.8C173.24 182.166 174.199 183.637 175.005 185.192C175.354 185.924 175.697 186.61 175.941 187.29C176.197 187.905 176.417 188.535 176.6 189.176C176.766 189.699 176.9 190.232 177.003 190.771C177.107 191.181 177.18 191.597 177.22 192.018C177.275 192.353 177.3 192.693 177.293 193.033V193.033Z" fill="#263238"/>
<g opacity="0.2">
<path opacity="0.2" d="M91.7553 178.618C86.3478 179.066 82.1735 179.561 76.5879 180.247C73.0994 180.675 69.479 180.431 68.3382 177.114C67.1973 173.797 67.9227 169.999 69.7955 167.025C71.6684 164.05 74.6095 157.133 90.3573 162.408L91.7553 178.618Z" fill="black"/>
</g>
<path d="M99.0488 177.662L99.0884 177.516L99.2401 177.081L99.8336 175.419L102.109 169.28L102.142 169.194H102.227L126.33 171.377L149.649 173.593L156.711 174.298L158.63 174.509L159.125 174.575C159.183 174.577 159.241 174.588 159.296 174.608H159.125H158.624L156.698 174.463L149.622 173.856L126.297 171.746L102.208 169.458L102.326 169.379L99.9523 175.485L99.2928 177.121L99.1148 177.543C99.0818 177.622 99.0554 177.668 99.0488 177.662Z" fill="#263238"/>
<g opacity="0.2">
<path opacity="0.2" d="M128.203 200.195C138.266 202.892 144.386 201.329 153.526 196.331C155.399 195.233 157.196 194.012 158.907 192.677C160.211 191.612 161.37 190.381 162.356 189.017C150.585 193.521 140.805 196.931 128.671 200.32" fill="black"/>
</g>
<path d="M99.0818 177.424L101.383 170.994L96.0351 162.633C95.5722 161.908 94.9661 161.286 94.2539 160.804C93.5417 160.322 92.7386 159.99 91.8938 159.83L72.2157 156.117C71.971 156.854 72.005 157.655 72.3113 158.368C72.6175 159.082 73.1748 159.658 73.8775 159.988C76.456 161.459 88.0558 164.156 88.0558 164.156L70.1912 163.853C70.1912 163.853 69.6373 166.431 71.6618 167.354C73.6863 168.278 86.4137 168.746 86.4137 168.746L70.1187 171.041C70.1187 171.041 70.0264 173.626 73.7523 173.678C77.4216 173.635 81.0863 173.404 84.7321 172.986C84.883 172.965 85.0362 173.003 85.1593 173.093C85.2823 173.183 85.3657 173.317 85.3916 173.467C85.4139 173.613 85.3809 173.761 85.2991 173.883C85.2172 174.005 85.0926 174.092 84.9498 174.127L74.115 176.686C73.8028 176.756 73.5226 176.927 73.318 177.174C73.1135 177.42 72.9961 177.726 72.984 178.046C72.972 178.366 73.066 178.681 73.2515 178.942C73.4369 179.202 73.7034 179.395 74.0094 179.488C74.2058 179.535 74.4087 179.549 74.6095 179.528C76.456 179.343 87.482 177.945 87.482 177.945L88.0558 179.231L99.0818 177.437" fill="#E4BFB1"/>
<path d="M90.9903 175.439C90.8405 175.084 90.6357 174.755 90.3836 174.463C90.0922 174.165 89.7355 173.94 89.3417 173.804C88.8553 173.655 88.3452 173.599 87.8382 173.639C86.7435 173.718 85.7543 174.035 85.0157 174.127C84.617 174.224 84.201 174.224 83.8023 174.127C84.186 174.018 84.5758 173.932 84.9695 173.87C85.9013 173.594 86.8541 173.396 87.8184 173.276C88.3722 173.233 88.9291 173.305 89.4538 173.487C89.8809 173.653 90.2612 173.92 90.5617 174.265C90.7197 174.414 90.8408 174.598 90.9152 174.801C90.9896 175.005 91.0154 175.224 90.9903 175.439V175.439Z" fill="#AA6550"/>
<path d="M92.7708 170.539C92.7379 170.539 92.7181 170.361 92.573 170.078C92.3589 169.684 92.033 169.363 91.6366 169.155C90.6408 168.574 88.9592 168.766 87.1919 168.884C85.4245 169.003 83.8023 169.267 82.6351 169.418C82.0087 169.537 81.3733 169.601 80.7358 169.61C81.34 169.405 81.9629 169.262 82.5955 169.181C84.1046 168.885 85.6276 168.665 87.1589 168.522C88.0051 168.445 88.8547 168.412 89.7044 168.423C90.4203 168.405 91.128 168.578 91.7553 168.924C92.1797 169.169 92.5095 169.55 92.6917 170.005C92.774 170.17 92.8017 170.358 92.7708 170.539V170.539Z" fill="#AA6550"/>
<path d="M94.1293 167.691C94.1141 167.167 93.9715 166.656 93.7139 166.2C93.4199 165.723 93.012 165.327 92.5269 165.046C91.912 164.725 91.2397 164.527 90.5485 164.466C89.0713 164.327 87.6865 164.466 86.6775 164.387C86.1293 164.386 85.589 164.255 85.1014 164.004C85.1014 163.952 85.7081 164.13 86.6907 164.149C87.6733 164.169 89.0384 163.984 90.5881 164.149C91.3254 164.21 92.0396 164.436 92.6785 164.809C93.2033 165.128 93.6317 165.584 93.9183 166.128C94.1173 166.487 94.2196 166.891 94.2151 167.302C94.2019 167.546 94.1293 167.691 94.1293 167.691Z" fill="#AA6550"/>
<path d="M158.01 167.671C158.012 167.312 158.045 166.955 158.109 166.603C158.195 165.943 158.36 164.927 158.591 163.714C159.046 161.287 159.85 157.97 160.701 154.31C161.453 151.193 162.028 148.036 162.422 144.854C162.501 144.241 162.534 143.687 162.58 143.199C162.627 142.711 162.653 142.295 162.666 141.946C162.663 141.587 162.694 141.23 162.758 140.877C162.801 141.234 162.814 141.593 162.798 141.952C162.798 142.295 162.798 142.724 162.798 143.212C162.798 143.7 162.758 144.26 162.686 144.874C162.365 148.079 161.823 151.259 161.064 154.389C160.206 158.056 159.369 161.353 158.855 163.767C158.597 164.967 158.393 165.95 158.268 166.622C158.211 166.978 158.124 167.329 158.01 167.671Z" fill="#263238"/>
<path d="M164.849 210.931C164.717 210.928 164.586 210.906 164.46 210.865L163.365 210.621L159.356 209.632C155.973 208.781 151.31 207.548 146.167 206.123C141.023 204.699 136.413 203.334 133.083 202.312L129.126 201.085L128.058 200.729C127.954 200.694 127.855 200.648 127.761 200.591C127.892 200.599 128.021 200.626 128.144 200.67L129.232 200.96L133.189 202.088L146.299 205.8L159.415 209.401L163.372 210.489L164.453 210.799C164.589 210.829 164.722 210.873 164.849 210.931V210.931Z" fill="#263238"/>
<path d="M96.965 19.6568C98.4158 15.1792 105.848 11.1367 109.923 8.78907C116.023 5.28738 121.675 5.9864 125.157 9.1056C131.448 3.82999 139.737 -1.24779 147.683 0.829482C155.63 2.90676 162.086 11.0444 160.635 19.1359C159.784 23.9037 156.481 28.177 156.678 32.9844C156.81 36.2816 158.558 39.2623 159.976 42.2563C161.393 45.2502 162.435 48.7321 161.196 51.7919C160.042 54.6342 157.16 56.4081 155.61 59.0459C154.344 61.2089 154.054 63.7808 153.243 66.1482C150.249 74.9189 139.895 79.8384 130.755 78.2953C121.615 76.7522 113.999 69.8741 109.653 61.6705C105.307 53.4669 103.909 44.05 103.408 34.7979" fill="#263238"/>
<path d="M103.698 25.8359L105.525 98.9691C106.184 107.351 113.906 113.477 122.875 112.699C131.929 111.921 138.847 104.423 138.326 95.9422C137.778 87.0462 137.37 77.6622 137.37 77.6622C137.37 77.6622 148.706 75.0244 150.117 59.9098C150.836 52.1678 149.583 39.4668 148.27 29.4035C148.013 27.3972 147.352 25.4637 146.328 23.7193C145.304 21.975 143.938 20.4558 142.312 19.2532C140.685 18.0506 138.832 17.1895 136.864 16.7217C134.897 16.2539 132.854 16.189 130.861 16.531" fill="#E4BFB1"/>
<path d="M144.907 40.212C144.946 40.7111 144.787 41.2054 144.465 41.5889C144.143 41.9723 143.684 42.2143 143.186 42.2629C142.943 42.299 142.696 42.2861 142.459 42.2249C142.221 42.1638 141.998 42.0556 141.803 41.9068C141.608 41.758 141.445 41.5716 141.324 41.3586C141.202 41.1457 141.125 40.9105 141.095 40.667C141.058 40.1676 141.218 39.6734 141.539 39.2892C141.86 38.9051 142.319 38.6613 142.817 38.6095C143.06 38.5743 143.307 38.5881 143.545 38.6501C143.782 38.712 144.005 38.8208 144.2 38.9702C144.394 39.1195 144.557 39.3063 144.679 39.5196C144.8 39.7328 144.878 39.9683 144.907 40.212Z" fill="#263238"/>
<path d="M146.813 38.26C146.589 38.5238 145.065 37.5412 143.001 37.6797C140.937 37.8181 139.493 38.9458 139.256 38.7084C139.137 38.6029 139.348 38.1413 139.974 37.6137C140.829 36.9359 141.873 36.5396 142.962 36.4795C144.033 36.4089 145.1 36.6789 146.008 37.251C146.674 37.706 146.918 38.1347 146.813 38.26Z" fill="#263238"/>
<path d="M125.124 42.2826C125.164 42.7828 125.006 43.2789 124.684 43.6638C124.362 44.0487 123.902 44.2916 123.402 44.3401C123.159 44.3753 122.912 44.3615 122.674 44.2996C122.437 44.2376 122.214 44.1288 122.019 43.9795C121.825 43.8301 121.662 43.6433 121.54 43.4301C121.419 43.2168 121.341 42.9814 121.312 42.7377C121.275 42.2382 121.434 41.744 121.755 41.3599C122.077 40.9758 122.535 40.732 123.033 40.6802C123.276 40.645 123.524 40.6588 123.761 40.7207C123.999 40.7827 124.221 40.8915 124.416 41.0409C124.611 41.1902 124.774 41.377 124.895 41.5902C125.017 41.8035 125.094 42.0389 125.124 42.2826Z" fill="#263238"/>
<path d="M126.548 39.9548C126.324 40.2185 124.8 39.236 122.736 39.3744C120.672 39.5129 119.228 40.6406 118.991 40.4032C118.872 40.2977 119.083 39.8361 119.716 39.3085C120.569 38.632 121.61 38.2358 122.697 38.1742C123.768 38.1037 124.835 38.3737 125.743 38.9458C126.442 39.3942 126.654 39.8295 126.548 39.9548Z" fill="#263238"/>
<path d="M135.015 54.7727C135.015 54.6605 136.262 54.3572 138.313 53.9549C138.834 53.8692 139.328 53.7307 139.394 53.3614C139.403 52.8148 139.244 52.2784 138.939 51.8249C138.365 50.5785 137.759 49.2794 137.126 47.9144C134.593 42.3354 132.72 37.739 132.945 37.6401C133.169 37.5412 135.404 41.9793 137.943 47.5319C138.55 48.9035 139.137 50.2158 139.691 51.4886C140.068 52.1015 140.213 52.829 140.1 53.5395C140.035 53.7302 139.928 53.9036 139.786 54.0465C139.645 54.1893 139.472 54.2979 139.282 54.3638C138.997 54.4633 138.7 54.5232 138.398 54.5418C136.334 54.799 135.015 54.8914 135.015 54.7727Z" fill="#263238"/>
<path d="M137.376 77.6359C130.34 78.1983 123.286 76.7966 116.999 73.5868C116.999 73.5868 122.664 83.6567 137.541 81.2892L137.376 77.6359Z" fill="#BB8777"/>
<path d="M126.561 31.8303C126.39 32.404 124.312 32.2722 121.912 32.7206C119.512 33.169 117.593 33.9538 117.237 33.4724C117.078 33.2416 117.388 32.6876 118.14 32.0941C119.144 31.3508 120.31 30.8559 121.543 30.6499C122.774 30.4231 124.041 30.4886 125.242 30.8411C126.152 31.1445 126.627 31.56 126.561 31.8303Z" fill="#263238"/>
<path d="M145.665 32.3315C145.336 32.8261 143.878 32.4304 142.17 32.5162C140.462 32.6019 139.031 33.0371 138.669 32.5689C138.504 32.3381 138.669 31.8567 139.328 31.3687C140.144 30.7822 141.115 30.4515 142.119 30.4187C143.123 30.3858 144.114 30.6522 144.966 31.1841C145.567 31.6259 145.811 32.0941 145.665 32.3315Z" fill="#263238"/>
<path d="M131.824 58.6568C133.439 58.6568 134.244 59.1316 135.615 59.9757C136.029 60.1934 136.368 60.5284 136.591 60.9385C136.697 61.2332 136.733 61.5482 136.698 61.8592C136.663 62.1702 136.556 62.4689 136.387 62.7322C136.05 63.3311 135.549 63.8212 134.942 64.1449C134.336 64.4685 133.65 64.6121 132.964 64.5589C132.281 64.4872 131.638 64.204 131.124 63.7488C130.609 63.2936 130.25 62.6893 130.096 62.02C129.968 61.3453 130.069 60.6472 130.381 60.0359C130.694 59.4246 131.202 58.9348 131.824 58.6436" fill="#E87754"/>
<path d="M137.304 62.1058C137.304 62.264 136.789 62.5014 135.886 62.4487C134.743 62.3427 133.639 61.9821 132.654 61.3936C131.661 60.8407 130.782 60.1045 130.063 59.224C129.529 58.5645 129.364 57.9842 129.502 57.905C129.773 57.727 131.131 59.1514 133.268 60.3252C134.151 60.8352 135.081 61.2613 136.044 61.598C136.783 61.8486 137.284 61.9343 137.304 62.1058Z" fill="#263238"/>
<path d="M127.115 49.2333C127.417 49.2333 127.662 48.9882 127.662 48.6859C127.662 48.3836 127.417 48.1386 127.115 48.1386C126.813 48.1386 126.568 48.3836 126.568 48.6859C126.568 48.9882 126.813 49.2333 127.115 49.2333Z" fill="#E87754"/>
<path d="M143.16 46.002C143.16 46.1102 143.127 46.216 143.067 46.306C143.007 46.396 142.922 46.4662 142.822 46.5076C142.722 46.5491 142.612 46.5599 142.505 46.5388C142.399 46.5177 142.302 46.4655 142.225 46.389C142.149 46.3124 142.097 46.2149 142.075 46.1087C142.054 46.0026 142.065 45.8925 142.107 45.7925C142.148 45.6925 142.218 45.607 142.308 45.5468C142.398 45.4867 142.504 45.4546 142.612 45.4546C142.757 45.4546 142.897 45.5123 142.999 45.6149C143.102 45.7176 143.16 45.8568 143.16 46.002V46.002Z" fill="#E87754"/>
<path d="M146.186 47.4264C146.195 47.5037 146.187 47.582 146.163 47.6561C146.139 47.7302 146.1 47.7985 146.048 47.8565C145.996 47.9144 145.933 47.9608 145.862 47.9925C145.791 48.0242 145.714 48.0406 145.636 48.0406C145.558 48.0406 145.481 48.0242 145.41 47.9925C145.339 47.9608 145.275 47.9144 145.223 47.8565C145.171 47.7985 145.132 47.7302 145.108 47.6561C145.085 47.582 145.077 47.5037 145.085 47.4264C145.1 47.2907 145.164 47.1653 145.266 47.0742C145.368 46.9831 145.499 46.9328 145.636 46.9328C145.772 46.9328 145.904 46.9831 146.006 47.0742C146.107 47.1653 146.172 47.2907 146.186 47.4264V47.4264Z" fill="#E87754"/>
<path d="M147.103 45.1381C147.103 45.2463 147.071 45.3522 147.011 45.4422C146.951 45.5322 146.865 45.6023 146.765 45.6438C146.665 45.6852 146.555 45.696 146.449 45.6749C146.343 45.6538 146.245 45.6016 146.169 45.5251C146.092 45.4486 146.04 45.351 146.019 45.2449C145.998 45.1387 146.009 45.0286 146.05 44.9286C146.091 44.8286 146.162 44.7431 146.252 44.683C146.342 44.6228 146.447 44.5907 146.556 44.5907C146.701 44.5907 146.84 44.6484 146.943 44.751C147.045 44.8537 147.103 44.9929 147.103 45.1381V45.1381Z" fill="#E87754"/>
<path d="M125.157 51.1061C125.158 51.2159 125.126 51.3237 125.066 51.4156C125.006 51.5076 124.92 51.5796 124.819 51.6225C124.718 51.6655 124.607 51.6774 124.499 51.6568C124.391 51.6362 124.291 51.5839 124.213 51.5067C124.135 51.4295 124.082 51.3308 124.06 51.2232C124.038 51.1156 124.049 51.0039 124.09 50.9023C124.132 50.8006 124.203 50.7137 124.294 50.6526C124.385 50.5914 124.493 50.5588 124.603 50.5587C124.748 50.5587 124.888 50.6162 124.992 50.7187C125.096 50.8211 125.155 50.9603 125.157 51.1061Z" fill="#E87754"/>
<path d="M123.099 48.9167C123.099 49.025 123.067 49.1308 123.007 49.2208C122.947 49.3108 122.861 49.381 122.761 49.4224C122.661 49.4638 122.551 49.4747 122.445 49.4536C122.339 49.4324 122.241 49.3803 122.165 49.3038C122.088 49.2272 122.036 49.1297 122.015 49.0235C121.994 48.9173 122.005 48.8073 122.046 48.7073C122.087 48.6073 122.158 48.5218 122.248 48.4616C122.338 48.4015 122.443 48.3694 122.552 48.3694C122.697 48.3694 122.836 48.4271 122.939 48.5297C123.041 48.6323 123.099 48.7716 123.099 48.9167V48.9167Z" fill="#E87754"/>
<path d="M132.068 42.2826C132.006 41.5051 131.885 40.7334 131.705 39.9746C131.163 37.9121 129.94 36.0929 128.236 34.811C127.073 33.9273 125.717 33.3308 124.279 33.0701C122.632 32.7686 120.934 32.912 119.36 33.4855C118.512 33.7882 117.716 34.2197 116.999 34.7649C116.24 35.3168 115.573 35.9844 115.021 36.7432C113.843 38.3462 113.208 40.2835 113.208 42.2727C113.208 44.262 113.843 46.1993 115.021 47.8023C116.113 49.3022 117.622 50.4487 119.36 51.0995C120.934 51.673 122.632 51.8165 124.279 51.515C125.717 51.2543 127.073 50.6578 128.236 49.774C129.938 48.4931 131.16 46.6767 131.705 44.6171C131.884 43.8581 132.005 43.0865 132.068 42.309C132.077 42.3591 132.077 42.4106 132.068 42.4607V42.9157C132.067 43.1631 132.047 43.41 132.008 43.6543C131.975 43.9881 131.915 44.3189 131.83 44.6435C131.622 45.5488 131.275 46.4164 130.801 47.2153C129.669 49.1538 127.893 50.6337 125.782 51.3977C123.671 52.1616 121.359 52.1611 119.248 51.3963C118.368 51.0832 117.541 50.6385 116.795 50.0774C116.005 49.5086 115.312 48.8161 114.744 48.0265C113.515 46.3697 112.852 44.3618 112.852 42.2991C112.852 40.2365 113.515 38.2285 114.744 36.5718C115.312 35.7822 116.005 35.0896 116.795 34.5209C117.541 33.9597 118.368 33.515 119.248 33.202C120.875 32.6183 122.628 32.4816 124.326 32.8063C125.668 33.0664 126.939 33.609 128.056 34.398C129.172 35.1871 130.108 36.2045 130.801 37.3829C131.274 38.1824 131.621 39.0498 131.83 39.9548C131.916 40.2815 131.975 40.6144 132.008 40.9505C132.048 41.1926 132.067 41.4373 132.068 41.6825V42.1376C132.076 42.1856 132.076 42.2346 132.068 42.2826V42.2826Z" fill="white"/>
<path d="M136.202 39.4008C135.468 39.1989 134.708 39.11 133.947 39.137C133.197 39.2728 132.47 39.5172 131.791 39.8624C131.791 39.8624 131.929 39.6118 132.298 39.3613C132.783 39.0485 133.334 38.8543 133.907 38.7941C134.484 38.7288 135.069 38.8058 135.609 39.0183C136.018 39.1832 136.222 39.3613 136.202 39.4008Z" fill="white"/>
<path d="M130.175 14.3944C128.856 26.3107 119.993 37.04 108.558 40.6538C112.244 45.969 109.923 56.085 110.016 64.526C110.108 72.3734 110.101 74.6156 105.017 78.6184C100.816 79.6274 98.4224 68.12 95.2702 64.9018C92.118 61.6837 89.1571 57.7204 89.3879 53.2493C89.5 51.1523 90.3177 49.1475 90.4298 47.0571C90.5617 44.7358 89.8165 42.4409 89.4076 40.179C87.5876 30.0564 92.8104 19.1688 101.654 13.8734C110.497 8.57804 122.242 8.93415 130.993 14.3483" fill="#263238"/>
<path d="M104.938 63.3851C103.842 59.5357 101.958 55.9561 99.4049 52.8734L99.5962 53.2823C98.8076 51.4839 97.6202 49.8885 96.1239 48.6169C94.6275 47.3453 92.8615 46.4307 90.9595 45.9425C89.0575 45.4542 87.0693 45.4051 85.1455 45.7988C83.2217 46.1925 81.4127 47.0187 79.8554 48.2149C78.2981 49.4111 77.0333 50.9459 76.1569 52.7031C75.2804 54.4603 74.8152 56.3939 74.7965 58.3575C74.7777 60.3211 75.206 62.2632 76.0487 64.0368C76.8915 65.8104 78.1268 67.3691 79.661 68.5948C78.1772 68.265 76.6736 69.5444 76.3637 71.0281C76.2487 71.7829 76.2881 72.5532 76.4797 73.2923C76.6713 74.0314 77.011 74.7239 77.4782 75.3278C80.571 79.8516 87.581 81.0452 91.9861 77.8007C95.4812 80.1682 100.645 78.7899 103.236 75.4597C105.828 72.1294 106.131 67.4341 104.938 63.3851Z" fill="#263238"/>
<path d="M90.7793 45.9294C90.6419 45.8 90.5161 45.6588 90.4034 45.5074C90.0965 45.0659 89.873 44.5719 89.744 44.05C89.3417 42.6849 89.5329 40.5285 90.6144 38.2468C91.2022 36.9976 92.0109 35.8649 93.0017 34.9034C94.0867 33.7622 95.2892 32.7388 96.5891 31.8501C98.0273 30.8593 99.5965 30.0736 101.251 29.5156C102.959 28.9287 104.773 28.4737 106.619 28.0121C108.466 27.5505 110.273 27.0955 111.961 26.5019C113.588 25.9411 115.169 25.2531 116.689 24.4445C119.26 23.0757 121.65 21.3922 123.805 19.4326C125.257 18.1049 126.598 16.6602 127.814 15.1132C128.249 14.5659 128.566 14.124 128.784 13.7943C128.886 13.6388 129.003 13.4931 129.133 13.3591C129.047 13.5239 128.95 13.6825 128.843 13.8339C128.638 14.1438 128.342 14.5988 127.92 15.1528C126.737 16.7422 125.413 18.221 123.963 19.5711C121.806 21.5726 119.404 23.2921 116.814 24.6885C115.283 25.5093 113.688 26.2083 112.047 26.7789C110.339 27.379 108.525 27.8406 106.679 28.3088C104.832 28.7771 103.025 29.2189 101.331 29.7926C99.6952 30.3367 98.142 31.1021 96.7144 32.0677C95.4298 32.9435 94.2368 33.9466 93.1533 35.0616C92.1882 36.0152 91.402 37.1342 90.8321 38.3655C89.744 40.5878 89.5132 42.6915 89.8759 44.0302C90.0439 44.7184 90.3514 45.3648 90.7793 45.9294Z" fill="#455A64"/>
<path d="M129.12 13.392C129.025 13.5243 128.922 13.6499 128.81 13.7679C128.599 14.0119 128.276 14.3548 127.86 14.7967C126.664 16.0276 125.393 17.1838 124.055 18.2588C122.076 19.8856 119.873 21.2182 117.513 22.2155C116.097 22.739 114.636 23.1341 113.148 23.3959C111.611 23.7059 110.009 23.9433 108.373 24.1939C105.292 24.5622 102.249 25.1999 99.2796 26.0997C96.8701 26.8862 94.6322 28.1237 92.6851 29.7465C91.3761 30.8439 90.2961 32.1884 89.5066 33.7032C89.3009 34.1193 89.1182 34.5464 88.9592 34.9825C88.9126 35.1387 88.8484 35.2891 88.768 35.4309C88.7988 35.2721 88.8406 35.1157 88.8933 34.9627C89.0249 34.5113 89.1902 34.0705 89.3879 33.6438C90.1424 32.0837 91.211 30.6962 92.5269 29.5684C94.4755 27.8964 96.731 26.6197 99.1675 25.8095C102.149 24.8781 105.208 24.216 108.308 23.8312C109.95 23.5872 111.545 23.3432 113.069 23.0464C114.54 22.7918 115.985 22.4078 117.388 21.899C119.725 20.928 121.914 19.6338 123.89 18.0544C125.24 17.0053 126.532 15.8848 127.761 14.6978L128.757 13.7218C128.867 13.5999 128.988 13.4895 129.12 13.392V13.392Z" fill="#455A64"/>
<path d="M145.863 0.34808C145.863 0.42062 144.577 0.466781 142.566 1.00753C142.021 1.14949 141.484 1.32121 140.957 1.52191C140.383 1.71315 139.803 1.99671 139.176 2.27368C136.509 3.56164 134.162 5.42677 132.305 7.73394C131.896 8.28129 131.487 8.78247 131.171 9.30344C130.855 9.76784 130.567 10.25 130.307 10.7476C129.337 12.5677 128.988 13.8207 128.935 13.7943C128.979 13.4971 129.054 13.2053 129.159 12.9238C129.254 12.5817 129.373 12.2468 129.516 11.9215C129.683 11.4708 129.877 11.0304 130.096 10.6026C130.342 10.0879 130.622 9.59001 130.933 9.1122C131.243 8.58464 131.646 8.06367 132.054 7.50314C132.998 6.33378 134.061 5.26626 135.226 4.31798C136.412 3.39751 137.692 2.60609 139.045 1.95714C139.637 1.67873 140.245 1.43433 140.865 1.22515C141.846 0.88096 142.857 0.629272 143.885 0.473378C144.233 0.405875 144.586 0.363996 144.94 0.34808C145.247 0.312054 145.557 0.312054 145.863 0.34808V0.34808Z" fill="#455A64"/>
<path d="M156.487 57.2852C156.487 57.2852 156.487 57.239 156.586 57.1533L156.896 56.7906C157.173 56.4674 157.588 55.9992 158.057 55.3464C158.646 54.577 159.093 53.7082 159.375 52.7811C159.536 52.2044 159.583 51.6019 159.514 51.0072C159.421 50.3433 159.196 49.7045 158.855 49.1277C158.142 47.8946 156.975 46.8197 155.907 45.4876C153.505 42.4816 151.962 38.8809 151.442 35.0682C151.23 32.9319 151.177 30.7827 151.284 28.6386C151.39 26.5133 151.193 24.3838 150.697 22.3144C150.17 20.5097 149.258 18.8406 148.024 17.4221C146.79 16.0036 145.263 14.8694 143.549 14.0977C142.127 13.4604 140.595 13.1065 139.038 13.0557C136.14 12.9387 133.285 13.7801 130.914 15.4495L130.518 15.7265C130.432 15.7859 130.386 15.8188 130.379 15.8122C130.996 15.2439 131.686 14.7604 132.43 14.3746C134.455 13.2881 136.728 12.7494 139.025 12.8117C140.615 12.8509 142.183 13.198 143.641 13.8339C145.405 14.6129 146.977 15.7678 148.249 17.2178C149.52 18.6678 150.459 20.378 151 22.2287C151.505 24.328 151.707 26.4887 151.601 28.6452C151.494 30.7738 151.545 32.9074 151.752 35.0287C152.254 38.7866 153.762 42.3389 156.118 45.3095C157.16 46.6284 158.334 47.7231 159.059 49.009C159.41 49.6171 159.635 50.2901 159.718 50.9874C159.784 51.6103 159.726 52.2402 159.547 52.8405C159.243 53.784 158.767 54.6628 158.142 55.4321C157.765 55.9253 157.36 56.3964 156.929 56.8433L156.586 57.1862C156.557 57.2231 156.524 57.2564 156.487 57.2852V57.2852Z" fill="#455A64"/>
<path d="M154.957 39.9548C154.895 39.1773 154.774 38.4056 154.594 37.6467C154.052 35.5842 152.83 33.765 151.126 32.4832C149.873 31.5411 148.405 30.927 146.855 30.6967C145.305 30.4663 143.722 30.6271 142.25 31.1643C140.512 31.8151 139.003 32.9615 137.91 34.4615C136.732 36.0631 136.096 37.9994 136.096 39.9877C136.096 41.9761 136.732 43.9124 137.91 45.5139C138.459 46.2755 139.127 46.9436 139.889 47.4923C140.607 48.0331 141.403 48.4622 142.25 48.765C143.483 49.2132 144.797 49.399 146.106 49.3104C147.415 49.2219 148.692 48.861 149.854 48.2508C151.016 47.6407 152.038 46.7947 152.854 45.767C153.67 44.7393 154.263 43.5525 154.594 42.2826C154.774 41.5237 154.895 40.7521 154.957 39.9745C154.967 40.0268 154.967 40.0805 154.957 40.1328C154.957 40.2515 154.957 40.4032 154.957 40.5812C154.957 40.8286 154.937 41.0756 154.898 41.3198C154.864 41.6558 154.804 41.9887 154.72 42.3156C154.511 43.2205 154.164 44.088 153.691 44.8875C153.067 45.9503 152.246 46.8837 151.271 47.6374C149.991 48.6242 148.483 49.2721 146.887 49.521C145.29 49.77 143.657 49.6121 142.137 49.0618C141.256 48.7522 140.429 48.3072 139.684 47.7429C138.896 47.1696 138.204 46.4752 137.633 45.6854C136.404 44.0301 135.741 42.0231 135.741 39.9614C135.741 37.8996 136.404 35.8926 137.633 34.2373C138.202 33.4477 138.895 32.7551 139.684 32.1864C140.431 31.6253 141.258 31.1806 142.137 30.8675C143.764 30.2819 145.517 30.143 147.215 30.4652C148.561 30.7282 149.836 31.2762 150.953 32.0724C152.07 32.8686 153.003 33.8946 153.691 35.0814C154.165 35.8781 154.512 36.7435 154.72 37.6467C154.804 37.9736 154.864 38.3065 154.898 38.6425C154.937 38.8867 154.957 39.1337 154.957 39.381C154.957 39.5591 154.957 39.7108 154.957 39.8361C154.963 39.8754 154.963 39.9154 154.957 39.9548V39.9548Z" fill="white"/>
<path d="M104.925 78.8624C104.808 78.8045 104.699 78.7314 104.601 78.6448C104.397 78.4931 104.107 78.2623 103.724 77.9854C102.658 77.1315 101.657 76.199 100.73 75.1959C99.2997 73.7156 98.3206 71.8581 97.908 69.8411C97.7712 68.6505 97.7184 67.4517 97.7497 66.2537C97.7722 64.9986 97.4135 63.7661 96.721 62.719C95.9449 61.7134 95.0821 60.7778 94.1425 59.923C93.2713 59.0792 92.5528 58.0907 92.0191 57.0016C91.5467 56.016 91.201 54.9746 90.9903 53.9022C90.7919 52.9727 90.7012 52.0234 90.7199 51.0731C90.7199 50.1961 90.9244 49.4311 91.0035 48.7584C91.0808 48.1836 91.094 47.6019 91.0431 47.0241C90.931 46.0745 90.7463 45.5667 90.7793 45.5535C90.84 45.6691 90.8886 45.7906 90.9244 45.9162C91.0344 46.2723 91.1182 46.636 91.175 47.0043C91.2459 47.5935 91.2459 48.189 91.175 48.7782C91.1156 49.4377 90.9574 50.229 90.9376 51.0797C90.9475 53.0809 91.3978 55.0554 92.2565 56.8631C92.7813 57.9165 93.484 58.8714 94.3337 59.6856C95.2972 60.5488 96.1802 61.4979 96.9716 62.5212C97.3546 63.0721 97.6381 63.6859 97.8091 64.3347C97.9603 64.9591 98.0421 65.5982 98.0531 66.2405C98.0204 67.4249 98.0667 68.6101 98.1915 69.7884C98.5742 71.7637 99.5042 73.5917 100.876 75.064C101.781 76.0746 102.753 77.0242 103.784 77.9062L104.681 78.5921C104.77 78.674 104.852 78.7646 104.925 78.8624V78.8624Z" fill="#455A64"/>
<path d="M97.4266 63.5038C97.4381 63.5935 97.4381 63.6844 97.4266 63.7742C97.4266 63.9522 97.4266 64.2094 97.3738 64.5457C97.2624 65.4936 97.0411 66.4253 96.7144 67.322C95.6724 70.3319 93.6035 72.8786 90.8708 74.515C88.1382 76.1515 84.9165 76.7731 81.7712 76.2708C80.8291 76.1284 79.9064 75.8784 79.0213 75.5256C78.7047 75.4069 78.4739 75.275 78.3157 75.2025C78.1574 75.1299 78.0783 75.0772 78.0849 75.064C79.2897 75.5088 80.5355 75.8335 81.8042 76.0334C83.183 76.2114 84.5804 76.1869 85.9521 75.9608C89.3492 75.4403 92.4075 73.6106 94.4722 70.8633C95.3178 69.7613 95.9976 68.5416 96.4902 67.2429C96.9202 66.0291 97.2338 64.777 97.4266 63.5038V63.5038Z" fill="#455A64"/>
<path d="M94.8877 60.4044C94.8602 60.7121 94.796 61.0154 94.6965 61.3078C94.4627 62.1163 94.1513 62.9003 93.7666 63.6489C92.4832 66.1344 90.5391 68.2177 88.1481 69.6697C85.7513 71.1054 83.0272 71.9044 80.2347 71.991C79.395 72.0167 78.5546 71.9725 77.7222 71.8591C77.4151 71.8313 77.1121 71.7693 76.8187 71.6744C77.9532 71.756 79.0911 71.7802 80.2281 71.747C82.9653 71.5957 85.6245 70.7809 87.9767 69.3729C90.3158 67.9474 92.2396 65.9327 93.5556 63.5302C94.0676 62.5185 94.5126 61.4744 94.8877 60.4044Z" fill="#455A64"/>
<path d="M75.5987 53.8362C75.7798 53.6951 75.9795 53.5797 76.1922 53.4933C76.4281 53.3662 76.6727 53.256 76.9242 53.1636C77.2534 53.0256 77.5903 52.9067 77.9332 52.8075C78.8211 52.5409 79.7335 52.3642 80.6567 52.2799C81.7879 52.1812 82.9264 52.2033 84.0529 52.3459C85.1778 52.5046 86.2829 52.7809 87.3502 53.1702C88.2169 53.503 89.0477 53.9228 89.8297 54.4231C90.13 54.612 90.4185 54.819 90.6936 55.043C90.912 55.1995 91.1171 55.3738 91.3069 55.564C91.4826 55.7115 91.6399 55.8798 91.7751 56.0652C91.7289 56.1179 91.0365 55.4057 89.6978 54.6276C88.9151 54.1664 88.0917 53.7779 87.2381 53.4669C86.1875 53.1076 85.1057 52.847 84.0067 52.6888C82.9133 52.5514 81.8092 52.5183 80.7095 52.5899C79.8029 52.6603 78.9046 52.8126 78.0255 53.0449C76.4956 53.4406 75.6647 53.8956 75.5987 53.8362Z" fill="#455A64"/>
<path d="M90.7793 52.6162C90.72 52.6888 86.5588 49.1541 81.4942 44.7028C76.4296 40.2515 72.3674 36.6311 72.4268 36.5586C72.4861 36.4861 76.6472 40.0273 81.7184 44.472C86.7896 48.9167 90.8321 52.5503 90.7793 52.6162Z" fill="#CCE5FD"/>
<path d="M109.778 45.3953C110.093 44.7777 110.561 44.251 111.137 43.8653C111.639 43.3863 112.257 43.0456 112.93 42.8761C112.439 43.3372 111.909 43.7564 111.348 44.1291C110.858 44.591 110.333 45.0143 109.778 45.3953V45.3953Z" fill="white"/>
<path d="M91.2607 49.108C91.2279 49.0669 91.1992 49.0227 91.175 48.9761C91.1157 48.864 91.0431 48.7321 90.9508 48.5738C90.695 48.0403 90.5216 47.4711 90.4364 46.8856C90.1927 44.6923 90.8177 42.4908 92.1774 40.7527C92.6068 40.1698 93.1001 39.6367 93.6479 39.1634C94.2486 38.6602 94.8981 38.2184 95.5867 37.8445C97.1152 37.0438 98.756 36.4791 100.453 36.1695C104.021 35.4243 108.037 35.6024 112.126 34.9957C114.126 34.7311 116.068 34.1314 117.87 33.2218C119.515 32.327 121.004 31.1686 122.275 29.7926C124.432 27.4488 126.16 24.7433 127.379 21.8C128.46 19.3007 129.14 17.1839 129.634 15.7595L130.195 14.0911L130.346 13.6624C130.362 13.6124 130.382 13.5639 130.406 13.5173C130.406 13.5173 130.406 13.5701 130.406 13.669L130.287 14.1108L129.74 15.8254C129.129 17.8932 128.409 19.9272 127.583 21.9188C126.383 24.9076 124.656 27.6571 122.486 30.0366C121.189 31.4375 119.669 32.6141 117.988 33.5185C116.162 34.4513 114.191 35.0668 112.159 35.3386C108.017 35.9585 104.021 35.7607 100.493 36.486C96.965 37.2114 93.9381 38.682 92.3488 40.8978C91.0149 42.5745 90.3731 44.698 90.5551 46.8328C90.6689 47.6237 90.907 48.3915 91.2607 49.108V49.108Z" fill="#FAFAFA"/>
<path d="M95.4482 75.2948C95.3102 76.207 95.0438 77.0951 94.6569 77.9326C94.2113 78.9397 93.6324 79.8824 92.9357 80.7353C92.0117 81.8749 90.8793 82.8282 89.5989 83.5445C88.0307 84.3944 86.2783 84.8472 84.4947 84.8635C82.4359 84.9108 80.4131 84.3187 78.7047 83.1687C76.8257 81.8684 75.4664 79.9463 74.8667 77.7414C74.5463 76.58 74.4789 75.3634 74.6689 74.1737C74.8778 72.9494 75.3479 71.7843 76.0472 70.7578C77.1873 69.0277 78.9362 67.7895 80.9469 67.2891V67.6188C78.9072 67.3033 76.9696 66.5151 75.2888 65.3173C73.7306 64.2181 72.4889 62.7285 71.6882 60.9979C70.9835 59.4426 70.6819 57.7348 70.8111 56.0322C70.92 54.5611 71.4135 53.1443 72.2421 51.9238C72.9391 50.9333 73.8382 50.1017 74.8799 49.4839C75.654 49.0268 76.4986 48.7014 77.3792 48.5211C77.9305 48.4117 78.4929 48.3696 79.0543 48.3958L79.4829 48.4419C79.531 48.4347 79.5799 48.4347 79.628 48.4419C78.8807 48.4033 78.1316 48.4609 77.399 48.6134C76.5409 48.8096 75.7209 49.1461 74.9722 49.6092C73.973 50.2287 73.1149 51.0509 72.4531 52.0227C71.6605 53.216 71.1944 54.5961 71.1013 56.0256C70.991 57.6809 71.2947 59.3376 71.9849 60.8462C72.7721 62.5224 73.9838 63.9636 75.4998 65.0271C77.146 66.1864 79.0368 66.9513 81.026 67.2627L81.8767 67.3946L81.0392 67.5924C79.1105 68.0753 77.4342 69.2666 76.3439 70.9292C75.6718 71.9204 75.2219 73.0452 75.025 74.2265C74.8443 75.3698 74.9073 76.5384 75.2096 77.6556C75.7815 79.7957 77.092 81.6645 78.9092 82.9313C80.5615 84.0508 82.5189 84.6334 84.5145 84.5997C86.2564 84.5933 87.9702 84.1609 89.5066 83.3401C90.7665 82.6523 91.8851 81.7327 92.8038 80.6298C93.5038 79.7967 94.0933 78.8769 94.558 77.893C94.8462 77.2689 95.0908 76.6255 95.29 75.9675C95.3493 75.7564 95.3955 75.585 95.4284 75.4465L95.4482 75.2948Z" fill="#263238"/>
<path d="M91.5641 46.7735C91.5081 46.7571 91.4548 46.7326 91.4058 46.701L90.9442 46.457C90.367 46.1264 89.8179 45.7493 89.3021 45.3293C87.3861 43.7646 85.9243 41.7152 85.0684 39.3942C84.0752 36.6431 83.9874 33.6465 84.8178 30.8419C85.6483 28.0373 87.3535 25.5716 89.6846 23.8048C91.5499 22.4302 93.6474 21.4026 95.8769 20.7713C98.1059 20.142 100.392 19.7377 102.702 19.5645C104.918 19.3535 107.055 19.2546 109.086 19.1161C111.008 18.9951 112.923 18.775 114.823 18.4566C116.473 18.173 118.091 17.7314 119.657 17.1377C121.929 16.2995 124 14.9943 125.737 13.3063C126.194 12.8317 126.619 12.3272 127.01 11.7962L127.313 11.3807C127.344 11.33 127.382 11.2834 127.425 11.2422C126.991 12.0286 126.454 12.7537 125.829 13.3986C124.106 15.1459 122.022 16.4962 119.723 17.3554C118.147 17.9681 116.514 18.4253 114.849 18.7204C112.941 19.0417 111.017 19.2618 109.086 19.3799C105.03 19.703 100.513 19.736 95.9956 21.0747C93.8071 21.6961 91.7463 22.7009 89.9088 24.0422C87.6241 25.7674 85.9461 28.1733 85.1165 30.9133C84.2869 33.6533 84.3486 36.586 85.2927 39.2887C86.1199 41.5722 87.5293 43.5999 89.3813 45.171C89.8837 45.6009 90.4171 45.9932 90.9771 46.3449L91.4124 46.6152C91.4699 46.6609 91.5209 46.7141 91.5641 46.7735V46.7735Z" fill="#263238"/>
<path d="M165.053 37.0466C164.978 37.1368 164.884 37.2104 164.779 37.2626C164.673 37.3149 164.558 37.3446 164.44 37.3499C164.098 37.3566 163.761 37.2602 163.474 37.0733C163.187 36.8863 162.963 36.6174 162.831 36.3014C162.729 36.0721 162.685 35.8216 162.701 35.5713C162.717 35.321 162.793 35.0782 162.923 34.8638C163.228 34.3568 163.692 33.965 164.242 33.7493C164.914 33.5063 165.637 33.4393 166.343 33.5547C167.048 33.6701 167.712 33.9642 168.272 34.4088C168.946 34.8956 169.466 35.5664 169.768 36.341C170.089 37.1828 170.153 38.1005 169.953 38.9788C169.751 39.9308 169.235 40.7875 168.489 41.4122C167.699 42.0671 166.733 42.4753 165.713 42.586C164.624 42.6649 163.532 42.4986 162.516 42.0991C161.5 41.6996 160.587 41.0773 159.844 40.2779C159.025 39.4678 158.385 38.4951 157.964 37.4225C157.535 36.3076 157.421 35.0962 157.635 33.9208C157.863 32.7715 158.221 31.652 158.703 30.584C159.145 29.5288 159.554 28.4869 159.896 27.445C160.582 25.4433 161.025 23.3665 161.215 21.2593C161.392 19.3581 161.277 17.441 160.872 15.5748C160.513 13.9406 159.877 12.3795 158.993 10.9587C157.72 8.89196 155.892 7.22407 153.717 6.14467C153.123 5.87511 152.508 5.65456 151.878 5.48521L151.376 5.35992C151.319 5.3484 151.263 5.3284 151.211 5.30057H151.383L151.891 5.39289C152.538 5.54012 153.17 5.74993 153.777 6.01937C156 7.07533 157.874 8.74585 159.178 10.8334C160.095 12.2483 160.764 13.8094 161.156 15.4495C161.581 17.3439 161.71 19.2925 161.539 21.2263C161.353 23.3601 160.91 25.4636 160.22 27.4911C159.877 28.5463 159.461 29.6014 159.019 30.6499C158.552 31.7072 158.202 32.813 157.977 33.9472C157.781 35.0546 157.89 36.1947 158.294 37.2444C158.692 38.2763 159.306 39.2115 160.094 39.9877C160.8 40.7531 161.668 41.351 162.634 41.7378C163.6 42.1246 164.641 42.2905 165.68 42.2233C166.647 42.1246 167.565 41.7439 168.318 41.1286C169.019 40.5508 169.507 39.7543 169.703 38.8667C169.896 38.0387 169.843 37.1724 169.551 36.3739C169.267 35.6417 168.782 35.0041 168.153 34.5341C167.627 34.1071 167 33.8223 166.333 33.7068C165.666 33.5913 164.98 33.6491 164.341 33.8746C163.824 34.0653 163.386 34.4226 163.095 34.8902C162.969 35.0838 162.893 35.3051 162.872 35.5349C162.851 35.7648 162.887 35.9962 162.976 36.2091C163.096 36.5068 163.3 36.7629 163.564 36.9457C163.828 37.1285 164.139 37.2301 164.46 37.2378C164.671 37.2281 164.876 37.1621 165.053 37.0466V37.0466Z" fill="#263238"/>
<g opacity="0.2">
<path opacity="0.2" d="M160.846 186.294C164.051 185.39 167.375 188.272 170.626 187.527C172.604 187.065 174.094 185.298 174.991 183.445C175.888 181.592 176.37 179.548 177.319 177.714C178.269 175.881 179.851 174.199 181.896 173.916C183.769 173.665 185.991 174.542 187.382 173.256C188.457 172.267 188.312 170.434 187.455 169.254C186.598 168.073 185.239 167.381 183.927 166.734C182.487 165.948 180.957 165.341 179.37 164.928C177.767 164.52 176.069 164.717 174.602 165.481C171.859 167.077 171.305 170.698 170.507 173.771C170.02 175.933 169.105 177.975 167.816 179.778C166.508 181.586 164.569 182.838 162.383 183.287C161.541 183.317 160.715 183.529 159.962 183.907C159.27 184.381 159 185.568 159.718 186.01" fill="black"/>
</g>
<path d="M144.142 174.443L156.157 170.256L166.926 153.42C167.452 152.599 168.139 151.893 168.946 151.347C169.754 150.8 170.664 150.424 171.622 150.242L190.937 146.595C191.182 147.331 191.149 148.131 190.844 148.844C190.539 149.558 189.983 150.135 189.282 150.466C186.703 151.936 175.103 154.64 175.103 154.64L192.968 154.337C192.968 154.337 193.515 156.915 191.491 157.838C189.466 158.762 176.739 159.223 176.739 159.223L193.047 161.545C193.047 161.545 193.139 164.136 189.414 164.182C185.745 164.149 182.08 163.929 178.434 163.523C178.282 163.5 178.128 163.538 178.005 163.628C177.881 163.718 177.799 163.853 177.774 164.004V164.004C177.75 164.15 177.783 164.299 177.865 164.421C177.947 164.544 178.072 164.63 178.216 164.664L189.051 167.222C189.363 167.292 189.644 167.463 189.849 167.708C190.054 167.954 190.173 168.261 190.185 168.581C190.198 168.9 190.105 169.216 189.92 169.477C189.735 169.738 189.469 169.931 189.163 170.025C188.965 170.075 188.759 170.089 188.556 170.065C186.716 169.88 175.684 168.482 175.684 168.482C175.684 168.482 171.793 182.119 169.274 183.221C166.755 184.322 161.473 184.625 161.473 184.625L150.262 189.063L144.142 174.443Z" fill="#E4BFB1"/>
<path d="M191.728 154.284C191.42 154.349 191.106 154.38 190.792 154.376L188.233 154.502C186.077 154.594 183.089 154.699 179.799 154.785L175.15 154.904C173.899 154.852 172.649 155.03 171.463 155.431C170.683 155.739 170.02 156.286 169.571 156.994C169.426 157.267 169.301 157.549 169.195 157.838C169.182 157.758 169.182 157.675 169.195 157.594C169.245 157.365 169.325 157.144 169.432 156.935C169.862 156.163 170.537 155.557 171.351 155.214C172.557 154.767 173.838 154.556 175.123 154.594L179.739 154.449C183.037 154.363 186.024 154.297 188.18 154.264H190.739C191.069 154.243 191.4 154.25 191.728 154.284V154.284Z" fill="#AA6550"/>
<path d="M191.999 161.591C191.709 161.602 191.42 161.582 191.135 161.531L188.8 161.235C186.822 160.977 184.105 160.575 181.104 160.14C179.607 159.929 178.176 159.658 176.884 159.546C175.75 159.41 174.602 159.616 173.587 160.14C172.91 160.516 172.326 161.039 171.879 161.67C171.562 162.118 171.437 162.402 171.41 162.389C171.421 162.313 171.443 162.24 171.476 162.171C171.557 161.97 171.654 161.776 171.767 161.591C172.191 160.907 172.775 160.337 173.468 159.929C174.515 159.345 175.718 159.1 176.91 159.23C178.229 159.329 179.66 159.593 181.164 159.797C184.164 160.245 186.881 160.674 188.84 160.997L191.161 161.399C191.446 161.436 191.726 161.5 191.999 161.591V161.591Z" fill="#AA6550"/>
<path d="M182.931 165.739C182.293 165.648 181.663 165.512 181.045 165.33C179.884 165.046 178.289 164.624 176.521 164.261C176.101 164.163 175.673 164.099 175.242 164.07C174.856 164.085 174.48 164.196 174.147 164.393C173.557 164.72 173.06 165.192 172.703 165.765C172.408 166.324 172.213 166.932 172.129 167.559C172.074 167.389 172.061 167.208 172.09 167.031C172.124 166.547 172.259 166.076 172.485 165.646C172.84 165.01 173.359 164.482 173.989 164.116C174.368 163.891 174.795 163.759 175.235 163.734C175.69 163.758 176.142 163.82 176.587 163.919C178.381 164.294 179.964 164.749 181.104 165.092C181.733 165.247 182.345 165.463 182.931 165.739V165.739Z" fill="#AA6550"/>
<path d="M54.9513 183.498L90.9903 179.066L154.199 168.792L162.356 189.294C138.616 197.524 114.256 204.95 90.3573 211.478C88.404 211.868 86.4131 212.036 84.4222 211.979C76.4428 212.012 56.7648 208.807 54.9513 183.498Z" fill="#CCE5FD"/>
<path d="M162.356 189.294C162.295 189.176 162.24 189.055 162.191 188.932C162.079 188.674 161.934 188.318 161.736 187.857C161.347 186.894 160.78 185.509 160.061 183.742L154.067 168.838L154.219 168.924L123.508 174.054C116.254 175.301 109.297 176.112 102.992 176.949C99.8336 177.365 96.8397 177.78 94.0502 178.268C92.6522 178.492 91.3069 178.712 90.0143 178.928C88.7757 179.126 87.5494 179.395 86.3412 179.732C82.702 180.879 79.6364 183.369 77.7683 186.696C77.2566 187.591 76.8347 188.534 76.5088 189.512C76.3967 189.848 76.3241 190.112 76.278 190.283C76.2552 190.374 76.2243 190.462 76.1856 190.547C76.2471 190.19 76.333 189.837 76.4428 189.492C76.7432 188.498 77.1477 187.539 77.6496 186.63C78.4426 185.186 79.4623 183.879 80.6699 182.759C82.2863 181.281 84.2029 180.17 86.2884 179.501C87.5054 179.155 88.7404 178.875 89.988 178.664C91.3069 178.426 92.6258 178.182 94.0238 177.952C96.8199 177.49 99.8138 177.055 102.966 176.633C109.277 175.782 116.228 174.964 123.468 173.711L154.192 168.653H154.304L154.344 168.759C156.797 174.984 158.815 180.115 160.226 183.702L161.835 187.843C162.013 188.312 162.145 188.674 162.251 188.932C162.356 189.189 162.356 189.294 162.356 189.294Z" fill="#263238"/>
<path d="M74.3458 210.891C74.4442 210.902 74.5414 210.922 74.6359 210.951L75.4734 211.155C76.212 211.313 77.3001 211.564 78.7245 211.735C82.7487 212.231 86.828 212.035 90.7859 211.155C92.0389 210.891 93.3314 210.535 94.6833 210.153L98.8906 208.966L108.123 206.328C114.645 204.429 121.8 202.299 129.285 199.971C141.814 196.08 153.328 192.268 162.257 189.189L162.178 189.367C159.712 183.102 157.687 177.978 156.283 174.397C155.59 172.623 155.056 171.232 154.68 170.269C154.502 169.807 154.37 169.451 154.271 169.188C154.172 168.924 154.146 168.818 154.146 168.818C154.146 168.818 154.205 168.937 154.311 169.174C154.416 169.412 154.561 169.788 154.753 170.243L156.421 174.338L162.429 189.268L162.482 189.4L162.35 189.446C153.407 192.572 141.907 196.403 129.377 200.3C121.892 202.628 114.731 204.752 108.202 206.638L98.9169 209.276L94.703 210.436C93.3841 210.812 92.0652 211.168 90.7925 211.425C86.8064 212.289 82.7005 212.452 78.6586 211.907C77.1916 211.708 75.7473 211.368 74.3458 210.891Z" fill="#263238"/>
<path d="M88.3129 179.066C88.0176 179.144 87.7147 179.191 87.4095 179.205L84.9366 179.449L76.7857 180.247L68.6349 181.117L66.162 181.374C65.8615 181.426 65.5563 181.443 65.2519 181.427C65.5452 181.34 65.8452 181.279 66.1488 181.242C66.7291 181.15 67.5666 181.025 68.6085 180.88C70.6858 180.589 73.561 180.22 76.7462 179.91C79.9313 179.6 82.8263 179.35 84.9168 179.211C85.9653 179.139 86.816 179.093 87.4029 179.066C87.7057 179.04 88.0101 179.04 88.3129 179.066V179.066Z" fill="#263238"/>
<path d="M58.6423 59.39C54.0235 53.783 45.2952 51.3537 39.1565 55.2333C35.5378 57.5203 33.2826 61.5906 32.4839 65.8047C32.1673 67.2518 31.9637 68.7213 31.8749 70.2C30.634 69.3882 29.3331 68.672 27.9835 68.0576C24.1359 66.1886 19.5246 65.5441 15.5311 67.068C8.75018 69.6763 5.46295 78.1189 7.19974 85.1711C8.93653 92.2233 14.685 97.7293 21.185 100.954C27.685 104.179 37.5144 107.568 49.7791 104.569C56.1844 99.2735 61.6181 87.1842 62.9195 80.0397C64.2209 72.8952 63.2458 65.0068 58.6423 59.39Z" fill="#CCE5FD"/>
<path d="M63.3392 71.7213L63.1395 71.8476L62.5236 72.1831L60.0973 73.4477L51.268 77.9526L51.3557 77.7682L53.6127 89.0289L53.7423 89.7103L53.2447 89.2292C49.4098 85.4921 45.1065 81.3199 40.5717 76.9176L36.4561 72.9064L36.8581 72.7599L36.0243 85.5438L36.0114 85.6595L35.9423 85.7032L20.3043 93.436L15.8641 95.5971L14.678 96.1532L14.2579 96.322C14.3782 96.2293 14.5068 96.1481 14.642 96.0792L15.7941 95.4693L20.1865 93.1987L35.7351 85.3073L35.6223 85.4861L36.4107 72.6985L36.4458 72.1925L36.8079 72.5443C38.1478 73.8478 39.5524 75.1857 40.9409 76.5661C45.4603 80.978 49.7531 85.1676 53.588 88.9047L53.2346 89.1281L51.069 77.8419L51.0443 77.7177L51.1518 77.6497L60.0512 73.2726L62.4876 72.1091L63.1201 71.8169L63.3392 71.7213Z" fill="#FAFAFA"/>
</svg>
